<svg width="620" height="384" viewBox="0 0 620 384" fill="none" xmlns="http://www.w3.org/2000/svg">
<rect width="620" height="384" rx="16" fill="#00EEFF" fill-opacity="0.2"/>
<rect width="620" height="64" fill="#00EEFF"/>
<path d="M27.808 38V28.464H24.64V26.64H32.96V28.464H29.792V38H27.808ZM37.7537 38.256C36.8471 38.256 36.0737 38.0267 35.4337 37.568C34.8044 37.1093 34.3244 36.4373 33.9937 35.552C33.6631 34.6667 33.4977 33.5947 33.4977 32.336C33.4977 31.056 33.6631 29.9733 33.9937 29.088C34.3244 28.2027 34.8044 27.5307 35.4337 27.072C36.0737 26.6133 36.8471 26.384 37.7537 26.384C38.6604 26.384 39.4284 26.6133 40.0578 27.072C40.6977 27.5307 41.1831 28.2027 41.5138 29.088C41.8444 29.9733 42.0098 31.056 42.0098 32.336C42.0098 33.5947 41.8444 34.6667 41.5138 35.552C41.1831 36.4373 40.6977 37.1093 40.0578 37.568C39.4284 38.0267 38.6604 38.256 37.7537 38.256ZM37.7537 36.464C38.2338 36.464 38.6391 36.3147 38.9697 36.016C39.3004 35.7173 39.5457 35.264 39.7057 34.656C39.8764 34.0373 39.9618 33.264 39.9618 32.336C39.9618 31.408 39.8764 30.6347 39.7057 30.016C39.5457 29.3973 39.3004 28.9387 38.9697 28.64C38.6391 28.3307 38.2338 28.176 37.7537 28.176C37.2737 28.176 36.8684 28.3307 36.5377 28.64C36.2071 28.9387 35.9564 29.3973 35.7857 30.016C35.6257 30.6347 35.5457 31.408 35.5457 32.336C35.5457 33.264 35.6257 34.0373 35.7857 34.656C35.9564 35.264 36.2071 35.7173 36.5377 36.016C36.8684 36.3147 37.2737 36.464 37.7537 36.464ZM45.7155 38V28.464H42.5475V26.64H50.8675V28.464H47.6995V38H45.7155ZM51.1972 38L54.4293 26.64H56.8932L60.1253 38H58.0933L55.6613 28.88L53.2292 38H51.1972ZM53.1813 35.312L53.7253 33.536H57.5973L58.1413 35.312H53.1813ZM61.351 38V26.64H63.335V37.36L61.975 36.176H68.519V38H61.351ZM69.9207 39.712V38H77.2167V39.712H69.9207ZM79.2585 38V26.64H86.4265V28.432H80.0265L81.2425 27.28V32.496L80.0265 31.552H86.1385V33.328H80.0265L81.2425 32.4V38H79.2585ZM90.4843 38V28.464H87.3163V26.64H95.6363V28.464H92.4683V38H90.4843ZM96.782 39.712V38H104.078V39.712H96.782ZM105.608 38V26.64H109.208C110.424 26.64 111.378 26.944 112.072 27.552C112.765 28.16 113.112 28.992 113.112 30.048C113.112 30.592 112.989 31.072 112.744 31.488C112.509 31.904 112.194 32.2347 111.8 32.48C111.405 32.7147 110.973 32.848 110.504 32.88L110.44 32.672C111.261 32.704 111.874 32.8853 112.28 33.216C112.685 33.536 112.92 34.064 112.984 34.8L113.256 38H111.272L111.032 35.264C111 34.8587 110.92 34.544 110.792 34.32C110.674 34.096 110.488 33.9413 110.232 33.856C109.986 33.7707 109.645 33.728 109.208 33.728H107.592V38H105.608ZM107.592 31.904H109.16C109.778 31.904 110.248 31.7547 110.568 31.456C110.898 31.1573 111.064 30.7307 111.064 30.176C111.064 29.6213 110.898 29.2 110.568 28.912C110.248 28.6133 109.778 28.464 109.16 28.464H107.592V31.904ZM113.873 38L117.105 26.64H119.569L122.801 38H120.769L118.337 28.88L115.905 38H113.873ZM115.857 35.312L116.401 33.536H120.273L120.817 35.312H115.857ZM126.299 38V28.464H123.131V26.64H131.451V28.464H128.283V38H126.299ZM132.661 38V36.176H135.253V28.464H132.661V26.64H139.829V28.464H137.237V36.176H139.829V38H132.661ZM145.199 38.256C144.292 38.256 143.519 38.0267 142.879 37.568C142.249 37.1093 141.769 36.4373 141.439 35.552C141.108 34.6667 140.943 33.5947 140.943 32.336C140.943 31.056 141.108 29.9733 141.439 29.088C141.769 28.2027 142.249 27.5307 142.879 27.072C143.519 26.6133 144.292 26.384 145.199 26.384C146.105 26.384 146.873 26.6133 147.503 27.072C148.143 27.5307 148.628 28.2027 148.959 29.088C149.289 29.9733 149.455 31.056 149.455 32.336C149.455 33.5947 149.289 34.6667 148.959 35.552C148.628 36.4373 148.143 37.1093 147.503 37.568C146.873 38.0267 146.105 38.256 145.199 38.256ZM145.199 36.464C145.679 36.464 146.084 36.3147 146.415 36.016C146.745 35.7173 146.991 35.264 147.151 34.656C147.321 34.0373 147.407 33.264 147.407 32.336C147.407 31.408 147.321 30.6347 147.151 30.016C146.991 29.3973 146.745 28.9387 146.415 28.64C146.084 28.3307 145.679 28.176 145.199 28.176C144.719 28.176 144.313 28.3307 143.983 28.64C143.652 28.9387 143.401 29.3973 143.231 30.016C143.071 30.6347 142.991 31.408 142.991 32.336C142.991 33.264 143.071 34.0373 143.231 34.656C143.401 35.264 143.652 35.7173 143.983 36.016C144.313 36.3147 144.719 36.464 145.199 36.464ZM150.505 39.712V38H157.801V39.712H150.505ZM159.682 38V26.64H166.722V28.464H161.666V31.424H166.53V33.184H161.666V36.176H166.85V38H159.682ZM170.988 38L167.644 26.64H169.74L172.364 36.176H171.756L174.38 26.64H176.476L173.132 38H170.988ZM181.014 38.256C180.107 38.256 179.334 38.0267 178.694 37.568C178.064 37.1093 177.584 36.4373 177.254 35.552C176.923 34.6667 176.758 33.5947 176.758 32.336C176.758 31.056 176.923 29.9733 177.254 29.088C177.584 28.2027 178.064 27.5307 178.694 27.072C179.334 26.6133 180.107 26.384 181.014 26.384C181.92 26.384 182.688 26.6133 183.318 27.072C183.958 27.5307 184.443 28.2027 184.774 29.088C185.104 29.9733 185.27 31.056 185.27 32.336C185.27 33.5947 185.104 34.6667 184.774 35.552C184.443 36.4373 183.958 37.1093 183.318 37.568C182.688 38.0267 181.92 38.256 181.014 38.256ZM181.014 36.464C181.494 36.464 181.899 36.3147 182.23 36.016C182.56 35.7173 182.806 35.264 182.966 34.656C183.136 34.0373 183.222 33.264 183.222 32.336C183.222 31.408 183.136 30.6347 182.966 30.016C182.806 29.3973 182.56 28.9387 182.23 28.64C181.899 28.3307 181.494 28.176 181.014 28.176C180.534 28.176 180.128 28.3307 179.798 28.64C179.467 28.9387 179.216 29.3973 179.046 30.016C178.886 30.6347 178.806 31.408 178.806 32.336C178.806 33.264 178.886 34.0373 179.046 34.656C179.216 35.264 179.467 35.7173 179.798 36.016C180.128 36.3147 180.534 36.464 181.014 36.464ZM186.703 38V26.64H188.687V37.36L187.327 36.176H193.871V38H186.703ZM198.921 38.256C197.695 38.256 196.735 37.8933 196.041 37.168C195.359 36.432 195.017 35.3973 195.017 34.064V26.64H197.001V34.192C197.001 34.9173 197.161 35.4773 197.481 35.872C197.812 36.2667 198.292 36.464 198.921 36.464C199.551 36.464 200.025 36.2667 200.345 35.872C200.676 35.4773 200.841 34.9173 200.841 34.192V26.64H202.825V34.064C202.825 35.3973 202.479 36.432 201.785 37.168C201.103 37.8933 200.148 38.256 198.921 38.256ZM206.883 38V28.464H203.715V26.64H212.035V28.464H208.867V38H206.883ZM213.245 38V36.176H215.837V28.464H213.245V26.64H220.413V28.464H217.821V36.176H220.413V38H213.245ZM225.782 38.256C224.876 38.256 224.102 38.0267 223.462 37.568C222.833 37.1093 222.353 36.4373 222.022 35.552C221.692 34.6667 221.526 33.5947 221.526 32.336C221.526 31.056 221.692 29.9733 222.022 29.088C222.353 28.2027 222.833 27.5307 223.462 27.072C224.102 26.6133 224.876 26.384 225.782 26.384C226.689 26.384 227.457 26.6133 228.086 27.072C228.726 27.5307 229.212 28.2027 229.542 29.088C229.873 29.9733 230.038 31.056 230.038 32.336C230.038 33.5947 229.873 34.6667 229.542 35.552C229.212 36.4373 228.726 37.1093 228.086 37.568C227.457 38.0267 226.689 38.256 225.782 38.256ZM225.782 36.464C226.262 36.464 226.668 36.3147 226.998 36.016C227.329 35.7173 227.574 35.264 227.734 34.656C227.905 34.0373 227.99 33.264 227.99 32.336C227.99 31.408 227.905 30.6347 227.734 30.016C227.574 29.3973 227.329 28.9387 226.998 28.64C226.668 28.3307 226.262 28.176 225.782 28.176C225.302 28.176 224.897 28.3307 224.566 28.64C224.236 28.9387 223.985 29.3973 223.814 30.016C223.654 30.6347 223.574 31.408 223.574 32.336C223.574 33.264 223.654 34.0373 223.814 34.656C223.985 35.264 224.236 35.7173 224.566 36.016C224.897 36.3147 225.302 36.464 225.782 36.464ZM230.992 38V26.64H233.12L236.56 34.8V26.64H238.48V38H236.352L232.912 29.84V38H230.992Z" fill="#252527"/>
</svg>
