<svg width="24" height="33" viewBox="0 0 24 33" fill="none" xmlns="http://www.w3.org/2000/svg">
<path d="M24 28.5C24 30.9853 21.9853 33 19.5 33L4.5 33C2.01472 33 1.76132e-07 30.9853 3.93402e-07 28.5L1.04907e-06 21L24 21L24 28.5Z" fill="url(#paint0_linear_372_127)"/>
<path d="M24 12L0 12L0 4.5C0 2.01472 2.01472 0 4.5 0L19.5 0C21.9853 0 24 2.01472 24 4.5L24 12Z" fill="url(#paint1_linear_372_127)"/>
<path d="M24 12L0 12L0 4.5C0 2.01472 2.01472 0 4.5 0L19.5 0C21.9853 0 24 2.01472 24 4.5L24 12Z" fill="white" fill-opacity="0.12" style="mix-blend-mode:plus-lighter"/>
<rect y="12" width="24" height="9" fill="url(#paint2_linear_372_127)"/>
<path d="M12 0.5L14.5981 10.25H9.40192L12 0.5Z" fill="#252527" fill-opacity="0.25"/>
<defs>
<linearGradient id="paint0_linear_372_127" x1="12" y1="33" x2="12" y2="21" gradientUnits="userSpaceOnUse">
<stop stop-color="#A9AAAF"/>
<stop offset="1" stop-color="#DADAE2"/>
</linearGradient>
<linearGradient id="paint1_linear_372_127" x1="12" y1="12" x2="12" y2="0" gradientUnits="userSpaceOnUse">
<stop stop-color="#DADAE2"/>
<stop offset="1" stop-color="#B8BAC4"/>
</linearGradient>
<linearGradient id="paint2_linear_372_127" x1="12" y1="12" x2="12" y2="21" gradientUnits="userSpaceOnUse">
<stop stop-color="white"/>
<stop offset="1" stop-color="#E5E6F0"/>
</linearGradient>
</defs>
</svg>
