<svg width="186" height="186" viewBox="0 0 186 186" fill="none" xmlns="http://www.w3.org/2000/svg">
<ellipse cx="63.9868" cy="64.0102" rx="63.9868" ry="64.0102" transform="matrix(0.499706 -0.866195 -0.866257 -0.499599 116.39 180.24)" fill="#919297"/>
<ellipse cx="63.9868" cy="64.0102" rx="63.9868" ry="64.0102" transform="matrix(0.499706 -0.866195 -0.866257 -0.499599 116.39 180.24)" fill="url(#paint0_radial_863_691)"/>
<path d="M147.065 124.065C164.31 94.1728 154.047 55.958 124.141 38.7099C94.2341 21.4618 56.0104 31.7128 38.7654 61.6049C21.5206 91.4973 31.7839 129.713 61.6905 146.961C91.597 164.209 129.82 153.957 147.065 124.065Z" stroke="white" stroke-opacity="0.05" stroke-width="3"/>
<path d="M137.542 127.807C140.809 129.692 144.778 129.908 148.231 128.39L151.821 126.812L151.39 122.915C150.975 119.167 148.8 115.84 145.533 113.955L93.4392 83.9101C89.6138 81.7038 84.7239 83.0161 82.5173 86.8413C80.3106 90.6664 81.6229 95.5559 85.4482 97.7622L137.542 127.807Z" fill="#55565C"/>
<path d="M149.899 123.081C149.537 119.806 147.637 116.9 144.784 115.254L92.6895 85.2088C89.5819 83.4167 85.6097 84.4834 83.817 87.5907C82.0244 90.6981 83.0899 94.6701 86.1974 96.4626L138.292 126.508C141.145 128.154 144.612 128.342 147.627 127.017L150.209 125.883L149.899 123.081Z" stroke="white" stroke-opacity="0.05" stroke-width="3"/>
<defs>
<radialGradient id="paint0_radial_863_691" cx="0" cy="0" r="1" gradientTransform="matrix(3.80436 89.1919 -89.1588 3.80332 63.9868 64.0102)" gradientUnits="userSpaceOnUse">
<stop offset="0.35" stop-color="#DADAE2"/>
<stop offset="1" stop-color="#A9AAAF"/>
</radialGradient>
</defs>
</svg>
