<svg width="136" height="137" viewBox="0 0 136 137" fill="none" xmlns="http://www.w3.org/2000/svg">
<ellipse cx="63.9868" cy="64.0102" rx="63.9868" ry="64.0102" transform="matrix(1 -0.000339564 -0.000462938 -1 4.10254 132.064)" fill="#919297"/>
<ellipse cx="63.9868" cy="64.0102" rx="63.9868" ry="64.0102" transform="matrix(1 -0.000339564 -0.000462938 -1 4.10254 132.064)" fill="url(#paint0_radial_863_691)"/>
<path d="M68.0891 130.542C102.599 130.53 130.562 102.535 130.546 68.0113C130.531 33.4875 102.541 5.51032 68.0312 5.52178C33.5213 5.5335 5.55692 33.5298 5.57291 68.0537C5.58913 102.577 33.5793 130.554 68.0891 130.542Z" stroke="white" stroke-opacity="0.05" stroke-width="3"/>
<path d="M60.087 124.166C60.0887 127.937 61.8859 131.483 64.9269 133.715L68.0882 136.034L71.2474 133.712C74.2864 131.479 76.0804 127.932 76.0787 124.16L76.0518 64.0231C76.0499 59.6071 72.4684 56.0285 68.0524 56.0301C63.6364 56.0317 60.0581 59.6128 60.0601 64.0288L60.087 124.166Z" fill="#55565C"/>
<path d="M70.3593 132.504C73.0135 130.553 74.5806 127.455 74.5792 124.161L74.5522 64.0232C74.5504 60.4359 71.6406 57.5292 68.0533 57.5304C64.4658 57.5317 61.5587 60.4405 61.5601 64.0278L61.587 124.165C61.5885 127.46 63.1584 130.556 65.8143 132.505L68.0875 134.174L70.3593 132.504Z" stroke="white" stroke-opacity="0.05" stroke-width="3"/>
<defs>
<radialGradient id="paint0_radial_863_691" cx="0" cy="0" r="1" gradientTransform="matrix(3.80436 89.1919 -89.1588 3.80332 63.9868 64.0102)" gradientUnits="userSpaceOnUse">
<stop offset="0.35" stop-color="#DADAE2"/>
<stop offset="1" stop-color="#A9AAAF"/>
</radialGradient>
</defs>
</svg>
