<svg width="136" height="136" viewBox="0 0 136 136" fill="none" xmlns="http://www.w3.org/2000/svg">
<ellipse cx="63.9868" cy="64.0102" rx="63.9868" ry="64.0102" transform="matrix(-1 0.000339479 0.000462853 1 131.897 3.97315)" fill="#919297"/>
<ellipse cx="63.9868" cy="64.0102" rx="63.9868" ry="64.0102" transform="matrix(-1 0.000339479 0.000462853 1 131.897 3.97315)" fill="url(#paint0_radial_863_691)"/>
<path d="M67.9109 5.49487C33.4013 5.50685 5.43777 33.5023 5.45351 68.0258C5.46949 102.55 33.459 130.527 67.9687 130.515C102.479 130.504 130.443 102.507 130.427 67.9834C130.411 33.4597 102.421 5.48316 67.9109 5.49487Z" stroke="white" stroke-opacity="0.05" stroke-width="3"/>
<path d="M75.913 11.8713C75.9113 8.09965 74.1142 4.55389 71.0731 2.32249L67.9118 0.00284169L64.7526 2.32473C61.7136 4.55828 59.9196 8.10532 59.9213 11.877L59.9482 72.014C59.9501 76.43 63.5316 80.0086 67.9476 80.007C72.3636 80.0055 75.9419 76.4243 75.9399 72.0083L75.913 11.8713Z" fill="#55565C"/>
<path d="M65.6407 3.53294C62.9865 5.4837 61.4195 8.5821 61.4208 11.8762L61.4477 72.0139C61.4496 75.6012 64.3594 78.5079 67.9467 78.5067C71.5342 78.5054 74.4413 75.5967 74.4399 72.0093L74.413 11.8716C74.4115 8.57754 72.8416 5.48119 70.1857 3.53231L67.9125 1.86319L65.6407 3.53294Z" stroke="white" stroke-opacity="0.05" stroke-width="3"/>
<defs>
<radialGradient id="paint0_radial_863_691" cx="0" cy="0" r="1" gradientTransform="matrix(3.80436 89.1919 -89.1588 3.80332 63.9868 64.0102)" gradientUnits="userSpaceOnUse">
<stop offset="0.35" stop-color="#DADAE2"/>
<stop offset="1" stop-color="#A9AAAF"/>
</radialGradient>
</defs>
</svg>
