<svg width="1246" height="420" viewBox="0 0 1246 420" fill="none" xmlns="http://www.w3.org/2000/svg">
<g filter="url(#filter0_gn_577_207)">
<mask id="mask0_577_207" style="mask-type:alpha" maskUnits="userSpaceOnUse" x="75" y="212" width="1095" height="238">
<path d="M622.86 212.5V398.797V436.423C410.376 447.64 5.59953 461.997 86.3643 429.693C187.32 389.314 199.828 344.318 250.753 294.762C291.492 255.116 346.05 266.21 368.237 276.713C379.702 282.729 412.193 292.865 450.431 285.279C488.669 277.692 500.015 231.16 500.909 212.5H622.86Z" fill="#FF5CF1"/>
<path d="M622.86 212.5V398.797V436.423C835.344 447.64 1240.12 461.997 1159.36 429.693C1058.4 389.314 1045.89 344.318 994.967 294.762C954.228 255.116 899.67 266.21 877.483 276.713C866.018 282.729 833.527 292.865 795.289 285.279C757.051 277.692 745.705 231.16 744.811 212.5H622.86Z" fill="#FF5CF1"/>
</mask>
<g mask="url(#mask0_577_207)">
<rect x="41.86" y="159.102" width="1172" height="296.25" fill="#DB55F2"/>
<g style="mix-blend-mode:plus-lighter" opacity="0.15">
<mask id="path-4-inside-1_577_207" fill="white">
<path d="M1308.86 152.153C1308.86 176.6 1292.46 200.807 1260.6 223.394C1228.74 245.98 1182.04 266.502 1123.17 283.789C1064.29 301.076 994.402 314.788 917.481 324.144C840.561 333.499 758.118 338.315 674.86 338.315C591.602 338.315 509.159 333.499 432.239 324.144C355.318 314.788 285.427 301.076 226.554 283.789C167.682 266.502 120.982 245.98 89.1203 223.394C57.2589 200.807 40.86 176.6 40.86 152.152H205.71C205.71 170.243 217.845 188.156 241.422 204.87C264.999 221.583 299.556 236.77 343.121 249.561C386.685 262.353 438.404 272.5 495.324 279.423C552.244 286.346 613.25 289.91 674.86 289.91C736.47 289.91 797.476 286.346 854.396 279.423C911.316 272.5 963.035 262.353 1006.6 249.561C1050.16 236.77 1084.72 221.583 1108.3 204.87C1131.88 188.156 1144.01 170.243 1144.01 152.153H1308.86Z"/>
</mask>
<path d="M1308.86 152.153C1308.86 176.6 1292.46 200.807 1260.6 223.394C1228.74 245.98 1182.04 266.502 1123.17 283.789C1064.29 301.076 994.402 314.788 917.481 324.144C840.561 333.499 758.118 338.315 674.86 338.315C591.602 338.315 509.159 333.499 432.239 324.144C355.318 314.788 285.427 301.076 226.554 283.789C167.682 266.502 120.982 245.98 89.1203 223.394C57.2589 200.807 40.86 176.6 40.86 152.152H205.71C205.71 170.243 217.845 188.156 241.422 204.87C264.999 221.583 299.556 236.77 343.121 249.561C386.685 262.353 438.404 272.5 495.324 279.423C552.244 286.346 613.25 289.91 674.86 289.91C736.47 289.91 797.476 286.346 854.396 279.423C911.316 272.5 963.035 262.353 1006.6 249.561C1050.16 236.77 1084.72 221.583 1108.3 204.87C1131.88 188.156 1144.01 170.243 1144.01 152.153H1308.86Z" fill="#FF5CF1"/>
<path d="M1308.86 152.153C1308.86 176.6 1292.46 200.807 1260.6 223.394C1228.74 245.98 1182.04 266.502 1123.17 283.789C1064.29 301.076 994.402 314.788 917.481 324.144C840.561 333.499 758.118 338.315 674.86 338.315C591.602 338.315 509.159 333.499 432.239 324.144C355.318 314.788 285.427 301.076 226.554 283.789C167.682 266.502 120.982 245.98 89.1203 223.394C57.2589 200.807 40.86 176.6 40.86 152.152H205.71C205.71 170.243 217.845 188.156 241.422 204.87C264.999 221.583 299.556 236.77 343.121 249.561C386.685 262.353 438.404 272.5 495.324 279.423C552.244 286.346 613.25 289.91 674.86 289.91C736.47 289.91 797.476 286.346 854.396 279.423C911.316 272.5 963.035 262.353 1006.6 249.561C1050.16 236.77 1084.72 221.583 1108.3 204.87C1131.88 188.156 1144.01 170.243 1144.01 152.153H1308.86Z" stroke="#252527" stroke-width="2" mask="url(#path-4-inside-1_577_207)"/>
</g>
<g style="mix-blend-mode:plus-lighter" opacity="0.15">
<mask id="path-5-inside-2_577_207" fill="white">
<path d="M1539.86 268.458C1539.86 296.652 1517.28 324.569 1473.41 350.616C1429.53 376.664 1365.23 400.331 1284.16 420.267C1203.1 440.203 1106.86 456.016 1000.94 466.806C895.025 477.595 781.504 483.148 666.86 483.148C552.216 483.148 438.695 477.595 332.777 466.806C226.86 456.016 130.621 440.203 49.5557 420.267C-31.5098 400.331 -95.8145 376.664 -139.687 350.616C-183.559 324.569 -206.14 296.652 -206.14 268.458H20.8534C20.8534 289.321 37.5628 309.979 70.0277 329.254C102.493 348.529 150.077 366.042 210.064 380.794C270.052 395.546 341.267 407.248 419.644 415.232C498.021 423.216 582.025 427.325 666.86 427.325C751.695 427.325 835.699 423.216 914.076 415.232C992.453 407.248 1063.67 395.546 1123.66 380.794C1183.64 366.042 1231.23 348.529 1263.69 329.254C1296.16 309.979 1312.87 289.321 1312.87 268.458H1539.86Z"/>
</mask>
<path d="M1539.86 268.458C1539.86 296.652 1517.28 324.569 1473.41 350.616C1429.53 376.664 1365.23 400.331 1284.16 420.267C1203.1 440.203 1106.86 456.016 1000.94 466.806C895.025 477.595 781.504 483.148 666.86 483.148C552.216 483.148 438.695 477.595 332.777 466.806C226.86 456.016 130.621 440.203 49.5557 420.267C-31.5098 400.331 -95.8145 376.664 -139.687 350.616C-183.559 324.569 -206.14 296.652 -206.14 268.458H20.8534C20.8534 289.321 37.5628 309.979 70.0277 329.254C102.493 348.529 150.077 366.042 210.064 380.794C270.052 395.546 341.267 407.248 419.644 415.232C498.021 423.216 582.025 427.325 666.86 427.325C751.695 427.325 835.699 423.216 914.076 415.232C992.453 407.248 1063.67 395.546 1123.66 380.794C1183.64 366.042 1231.23 348.529 1263.69 329.254C1296.16 309.979 1312.87 289.321 1312.87 268.458H1539.86Z" fill="#FF5CF1"/>
<path d="M1539.86 268.458C1539.86 296.652 1517.28 324.569 1473.41 350.616C1429.53 376.664 1365.23 400.331 1284.16 420.267C1203.1 440.203 1106.86 456.016 1000.94 466.806C895.025 477.595 781.504 483.148 666.86 483.148C552.216 483.148 438.695 477.595 332.777 466.806C226.86 456.016 130.621 440.203 49.5557 420.267C-31.5098 400.331 -95.8145 376.664 -139.687 350.616C-183.559 324.569 -206.14 296.652 -206.14 268.458H20.8534C20.8534 289.321 37.5628 309.979 70.0277 329.254C102.493 348.529 150.077 366.042 210.064 380.794C270.052 395.546 341.267 407.248 419.644 415.232C498.021 423.216 582.025 427.325 666.86 427.325C751.695 427.325 835.699 423.216 914.076 415.232C992.453 407.248 1063.67 395.546 1123.66 380.794C1183.64 366.042 1231.23 348.529 1263.69 329.254C1296.16 309.979 1312.87 289.321 1312.87 268.458H1539.86Z" stroke="#252527" stroke-width="2" mask="url(#path-5-inside-2_577_207)"/>
</g>
</g>
</g>
<ellipse cx="619.36" cy="214" rx="356.5" ry="59.5" fill="#335B68"/>
<ellipse cx="619.36" cy="214" rx="356.5" ry="59.5" fill="url(#paint0_linear_577_207)" fill-opacity="0.2" style="mix-blend-mode:plus-lighter"/>
<ellipse cx="619.86" cy="214" rx="164" ry="27.5" fill="#FF5CF1"/>
<path d="M619.86 210C626.743 210 632.962 210.503 637.449 211.31C639.696 211.715 641.485 212.191 642.7 212.708C643.309 212.967 643.746 213.225 644.022 213.469C644.301 213.714 644.36 213.891 644.36 214C644.36 214.108 644.301 214.286 644.022 214.531C643.746 214.774 643.309 215.032 642.7 215.292C641.485 215.809 639.696 216.285 637.449 216.689C632.962 217.497 626.743 218 619.86 218C612.977 218 606.758 217.497 602.271 216.689C600.024 216.285 598.235 215.809 597.02 215.292C596.411 215.032 595.974 214.774 595.698 214.531C595.419 214.286 595.36 214.108 595.36 214C595.36 213.891 595.419 213.714 595.698 213.469C595.974 213.225 596.411 212.967 597.02 212.708C598.235 212.191 600.024 211.715 602.271 211.31C606.758 210.503 612.977 210 619.86 210Z" fill="#252527" stroke="#252527"/>
<g filter="url(#filter1_ddg_577_207)">
<path d="M637.183 150.659C641.4 155.53 646.22 182.32 646.22 184.756C646.645 186.901 645.825 193.113 647.425 196.6C647.425 196.6 648.049 197.553 650.438 198.76C652.342 199.722 654.235 200.828 655.252 202.038C655.645 202.506 655.323 203.142 654.718 203.232C649.039 204.074 639.394 202.861 636.58 200.587C635.029 199.332 641.4 189.018 639.593 182.929C635.376 171.969 628.146 163.445 627.543 154.312C619.711 145.788 620.313 131.783 617.301 131.783C614.891 131.783 608.665 130.972 605.854 130.566V138.481C605.854 143.961 603.186 150.659 604.046 156.747C605.596 167.707 601.034 166.489 605.854 177.449C609.71 186.217 609.469 197.948 608.264 203.022C602.841 203.022 593.202 203.022 595.612 200.587C597.419 198.76 602.841 199.369 602.841 195.107C602.841 191.697 600.833 185.568 599.829 182.929C593.804 168.925 593.202 156.747 593.804 150.659C594.407 144.57 591.997 130.566 590.792 126.304C582.959 125.086 575.93 118.591 573.922 114.735L584.164 106.819C585.771 104.181 589.828 97.8081 593.202 93.4242C597.419 87.9443 598.021 94.0331 599.829 86.7266C601.636 79.42 595.612 64.1981 595.612 66.6336C595.612 69.0691 586.574 73.3313 583.562 74.549C581.152 75.5232 575.328 75.3609 572.717 75.1579C572.717 75.3609 572.476 75.8886 571.512 76.3757C570.548 76.8628 569.504 76.9845 569.102 76.9845L560.667 87.9443L558.86 86.1177C561.069 83.2763 565.608 77.1063 566.09 75.1579C566.692 72.7224 564.885 74.549 566.692 69.678C568.5 64.807 567.295 70.8958 569.102 67.8514C570.91 64.807 573.922 69.678 575.729 68.4603C577.175 67.486 579.947 66.8366 581.152 66.6336C583.16 66.0247 587.659 64.0763 589.587 61.1537C591.515 58.2311 595.612 55.6738 598.624 55.6738C600.28 55.6738 602.841 54.2125 600.431 53.2383C598.021 52.2641 597.419 49.5851 597.419 48.3673C597.821 46.9466 598.624 43.6181 598.624 41.6697C598.624 39.2342 600.431 31.3188 601.034 29.4921C601.636 27.6655 603.444 25.23 608.264 24.6211C612.12 24.134 614.289 25.23 614.891 25.8389C615.694 27.0566 617.662 30.101 619.108 32.5365C620.554 34.972 620.916 36.3928 620.916 36.7987C620.514 37.4076 620.313 39.2342 622.723 41.6697C625.133 44.1052 623.728 46.3377 622.723 47.1496C621.92 47.1496 620.554 47.7585 621.518 50.194C622.723 53.2383 630.556 51.4117 633.568 55.065C635.978 57.9876 635.376 66.0248 634.773 69.678C634.371 72.9254 633.689 79.9072 634.171 81.8556C634.653 83.804 635.175 87.1325 635.376 88.5532V105.602C638.99 111.082 645.979 122.285 645.015 123.259C644.051 124.233 636.581 129.348 632.966 131.783C633.568 136.654 637.785 146.396 637.183 150.659Z" fill="#252527"/>
<path d="M637.183 150.659C641.4 155.53 646.22 182.32 646.22 184.756C646.645 186.901 645.825 193.113 647.425 196.6C647.425 196.6 648.049 197.553 650.438 198.76C652.342 199.722 654.235 200.828 655.252 202.038C655.645 202.506 655.323 203.142 654.718 203.232C649.039 204.074 639.394 202.861 636.58 200.587C635.029 199.332 641.4 189.018 639.593 182.929C635.376 171.969 628.146 163.445 627.543 154.312C619.711 145.788 620.313 131.783 617.301 131.783C614.891 131.783 608.665 130.972 605.854 130.566V138.481C605.854 143.961 603.186 150.659 604.046 156.747C605.596 167.707 601.034 166.489 605.854 177.449C609.71 186.217 609.469 197.948 608.264 203.022C602.841 203.022 593.202 203.022 595.612 200.587C597.419 198.76 602.841 199.369 602.841 195.107C602.841 191.697 600.833 185.568 599.829 182.929C593.804 168.925 593.202 156.747 593.804 150.659C594.407 144.57 591.997 130.566 590.792 126.304C582.959 125.086 575.93 118.591 573.922 114.735L584.164 106.819C585.771 104.181 589.828 97.8081 593.202 93.4242C597.419 87.9443 598.021 94.0331 599.829 86.7266C601.636 79.42 595.612 64.1981 595.612 66.6336C595.612 69.0691 586.574 73.3313 583.562 74.549C581.152 75.5232 575.328 75.3609 572.717 75.1579C572.717 75.3609 572.476 75.8886 571.512 76.3757C570.548 76.8628 569.504 76.9845 569.102 76.9845L560.667 87.9443L558.86 86.1177C561.069 83.2763 565.608 77.1063 566.09 75.1579C566.692 72.7224 564.885 74.549 566.692 69.678C568.5 64.807 567.295 70.8958 569.102 67.8514C570.91 64.807 573.922 69.678 575.729 68.4603C577.175 67.486 579.947 66.8366 581.152 66.6336C583.16 66.0247 587.659 64.0763 589.587 61.1537C591.515 58.2311 595.612 55.6738 598.624 55.6738C600.28 55.6738 602.841 54.2125 600.431 53.2383C598.021 52.2641 597.419 49.5851 597.419 48.3673C597.821 46.9466 598.624 43.6181 598.624 41.6697C598.624 39.2342 600.431 31.3188 601.034 29.4921C601.636 27.6655 603.444 25.23 608.264 24.6211C612.12 24.134 614.289 25.23 614.891 25.8389C615.694 27.0566 617.662 30.101 619.108 32.5365C620.554 34.972 620.916 36.3928 620.916 36.7987C620.514 37.4076 620.313 39.2342 622.723 41.6697C625.133 44.1052 623.728 46.3377 622.723 47.1496C621.92 47.1496 620.554 47.7585 621.518 50.194C622.723 53.2383 630.556 51.4117 633.568 55.065C635.978 57.9876 635.376 66.0248 634.773 69.678C634.371 72.9254 633.689 79.9072 634.171 81.8556C634.653 83.804 635.175 87.1325 635.376 88.5532V105.602C638.99 111.082 645.979 122.285 645.015 123.259C644.051 124.233 636.581 129.348 632.966 131.783C633.568 136.654 637.785 146.396 637.183 150.659Z" stroke="#252527"/>
</g>
<defs>
<filter id="filter0_gn_577_207" x="-1.52588e-05" y="136.64" width="1245.72" height="388.72" filterUnits="userSpaceOnUse" color-interpolation-filters="sRGB">
<feFlood flood-opacity="0" result="BackgroundImageFix"/>
<feBlend mode="normal" in="SourceGraphic" in2="BackgroundImageFix" result="shape"/>
<feTurbulence type="fractalNoise" baseFrequency="4.5454545021057129 4.5454545021057129" numOctaves="3" seed="4831" result="displacementX" />
<feTurbulence type="fractalNoise" baseFrequency="4.5454545021057129 4.5454545021057129" numOctaves="3" seed="4832" result="displacementY" />
<feColorMatrix in="displacementX" type="matrix" values="0 0 0 1 0  0 0 0 0 0  0 0 0 0 0  0 0 0 0 1" result="displacementXRed" />
<feColorMatrix in="displacementY" type="matrix" values="0 0 0 0 0  0 0 0 1 0  0 0 0 0 0  0 0 0 0 1" />
<feComposite in="displacementXRed" operator="arithmetic" k1="0" k2="1" k3="1" k4="0"/>
<feDisplacementMap in="shape" scale="151.72000122070312" xChannelSelector="R" yChannelSelector="G" width="100%" height="100%" />
<feColorMatrix type="matrix" values="0 0 0 0 0  0 0 0 0 0  0 0 0 0 0  0 0 0 1 0" />
<feComponentTransfer result="sourceDisplacedAlpha">
<feFuncA type="gamma" exponent="0.2" />
</feComponentTransfer>
<feColorMatrix in="shape" type="matrix" values="0 0 0 0 0  0 0 0 0 0  0 0 0 0 0  0 0 0 1 0" />
<feComponentTransfer result="inputSourceAlpha">
<feFuncA type="gamma" exponent="0.2" />
</feComponentTransfer>
<feComposite in="sourceDisplacedAlpha" operator="arithmetic" k1="1" k2="0" k3="0" k4="0" result="displacementAlphasMultiplied"/>
<feComposite in="displacementAlphasMultiplied"  operator="arithmetic" k1="0" k2="0" k3="-0.5" k4="0.5" result="centeringAdjustment"/>
<feComposite in="displacementX" in2="displacementAlphasMultiplied" operator="arithmetic" k1="1" k2="0" k3="0" k4="0" />
<feComposite in="centeringAdjustment" operator="arithmetic" k1="0" k2="1" k3="1" k4="0" />
<feColorMatrix  type="matrix" values="0 0 0 1 0  0 0 0 0 0  0 0 0 0 0  0 0 0 0 1" result="displacementXFinal" />
<feComposite in="displacementY" in2="displacementAlphasMultiplied" operator="arithmetic" k1="1" k2="0" k3="0" k4="0" />
<feComposite in="centeringAdjustment" operator="arithmetic" k1="0" k2="1" k3="1" k4="0" />
<feColorMatrix  type="matrix" values="0 0 0 0 0  0 0 0 1 0  0 0 0 0 0  0 0 0 0 1" result="displacementYFinal" />
<feComposite in="displacementXFinal" in2="displacementYFinal" operator="arithmetic" k1="0" k2="1" k3="1" k4="0" />
<feComposite in2="displacementAlphasMultiplied" operator="in" result="displacementMap" />
<feFlood flood-color="rgb(127, 127, 127)" flood-opacity="1"/>
<feComposite in2="displacementAlphasMultiplied" operator="out" />
<feComposite in2="displacementMap" operator="over" result="displacementMapWithBg"/>
<feDisplacementMap in="shape" scale="151.72000122070312" xChannelSelector="R" yChannelSelector="G" width="100%" height="100%" result="displacedImage" />
<feColorMatrix in="shape" type="matrix" values="1 0 0 0 0  0 1 0 0 0  0 0 1 0 0  0 0 0 127 0" result="imageOpaque" />
<feDisplacementMap in="imageOpaque" in2="displacementMapWithBg" scale="151.72000122070312" xChannelSelector="R" yChannelSelector="G" width="100%" height="100%" result="displacedImageOpaque" />
<feColorMatrix in="displacedImage" type="matrix" values="0 0 0 1 0  0 0 0 0 0  0 0 0 0 0  0 0 0 127 0" result="displacedImageRed" />
<feColorMatrix in="shape" type="matrix" values="0 0 0 1 0  0 0 0 0 0  0 0 0 0 0  0 0 0 127 0" />
<feComposite in="displacedImageRed"  operator="atop" result="transparencyRedMap"/>
<feColorMatrix in="transparencyRedMap" type="matrix" values="0 0 0 0 0  0 0 0 0 0  0 0 0 0 0  1 0 0 0 0" result="transparencyAlphaMap" />
<feComposite in="displacedImageOpaque" in2="imageOpaque" operator="over" />
<feComposite in2="transparencyAlphaMap" operator="in" result="effect1_texture_577_207"/>
<feTurbulence type="fractalNoise" baseFrequency="0.94339627027511597 0.94339627027511597" stitchTiles="stitch" numOctaves="3" result="noise" seed="5289" />
<feColorMatrix in="noise" type="luminanceToAlpha" result="alphaNoise" />
<feComponentTransfer in="alphaNoise" result="coloredNoise1">
<feFuncA type="discrete" tableValues="0 0 0 0 0 0 0 0 0 0 0 0 0 0 1 1 1 1 1 1 1 1 1 1 1 1 1 1 1 1 1 1 1 1 1 0 0 0 0 0 0 0 0 0 0 0 0 0 0 0 0 0 0 0 0 0 0 0 0 0 0 0 0 0 0 0 0 0 0 0 0 0 0 0 0 0 0 0 0 0 0 0 0 0 0 0 0 0 0 0 0 0 0 0 0 0 0 0 0 0 "/>
</feComponentTransfer>
<feComposite operator="in" in2="effect1_texture_577_207" in="coloredNoise1" result="noise1Clipped" />
<feFlood flood-color="rgba(0, 0, 0, 0.25)" result="color1Flood" />
<feComposite operator="in" in2="noise1Clipped" in="color1Flood" result="color1" />
<feMerge result="effect2_noise_577_207">
<feMergeNode in="effect1_texture_577_207" />
<feMergeNode in="color1" />
</feMerge>
</filter>
<filter id="filter1_ddg_577_207" x="534.196" y="0" width="145.729" height="228" filterUnits="userSpaceOnUse" color-interpolation-filters="sRGB">
<feFlood flood-opacity="0" result="BackgroundImageFix"/>
<feColorMatrix in="SourceAlpha" type="matrix" values="0 0 0 0 0 0 0 0 0 0 0 0 0 0 0 0 0 0 127 0" result="hardAlpha"/>
<feOffset/>
<feGaussianBlur stdDeviation="12"/>
<feComposite in2="hardAlpha" operator="out"/>
<feColorMatrix type="matrix" values="0 0 0 0 1 0 0 0 0 0.361892 0 0 0 0 0.946825 0 0 0 1 0"/>
<feBlend mode="normal" in2="BackgroundImageFix" result="effect1_dropShadow_577_207"/>
<feColorMatrix in="SourceAlpha" type="matrix" values="0 0 0 0 0 0 0 0 0 0 0 0 0 0 0 0 0 0 127 0" result="hardAlpha"/>
<feOffset/>
<feGaussianBlur stdDeviation="6"/>
<feComposite in2="hardAlpha" operator="out"/>
<feColorMatrix type="matrix" values="0 0 0 0 1 0 0 0 0 1 0 0 0 0 1 0 0 0 1 0"/>
<feBlend mode="normal" in2="effect1_dropShadow_577_207" result="effect2_dropShadow_577_207"/>
<feBlend mode="normal" in="SourceGraphic" in2="effect2_dropShadow_577_207" result="shape"/>
<feTurbulence type="fractalNoise" baseFrequency="2 2" numOctaves="3" seed="9759" />
<feDisplacementMap in="shape" scale="8.3599996566772461" xChannelSelector="R" yChannelSelector="G" result="displacedImage" width="100%" height="100%" />
<feMerge result="effect3_texture_577_207">
<feMergeNode in="displacedImage"/>
</feMerge>
</filter>
<linearGradient id="paint0_linear_577_207" x1="619.36" y1="154.5" x2="619.36" y2="273.5" gradientUnits="userSpaceOnUse">
<stop offset="0.3" stop-color="white" stop-opacity="0"/>
<stop offset="0.5" stop-color="white"/>
<stop offset="0.7" stop-color="white" stop-opacity="0"/>
</linearGradient>
</defs>
</svg>
