<svg width="156" height="30" viewBox="0 0 156 30" fill="none" xmlns="http://www.w3.org/2000/svg">
<g opacity="0.25">
<path d="M10.6962 3.69535V15.7405C10.6962 16.2576 10.5628 16.6244 10.296 16.8406C10.0384 17.0569 9.74393 17.165 9.41269 17.165H7.41146C7.08022 17.165 6.78119 17.0569 6.51436 16.8406C6.24753 16.6244 6.11411 16.2576 6.11411 15.7405V3.69535H10.6962ZM18.5632 3.69535V15.7405C18.5632 16.2576 18.4297 16.6244 18.1629 16.8406C17.9053 17.0569 17.6108 17.165 17.2796 17.165H15.2646C14.9425 17.165 14.6481 17.0569 14.3813 16.8406C14.1144 16.6244 13.981 16.2576 13.981 15.7405V3.69535H18.5632ZM26.4301 3.69535V15.7405C26.4301 16.2576 26.2967 16.6244 26.0298 16.8406C25.7722 17.0569 25.4778 17.165 25.1465 17.165H23.1315C22.8002 17.165 22.5012 17.0569 22.2344 16.8406C21.9768 16.6244 21.8479 16.2576 21.8479 15.7405V3.69535H26.4301ZM7.7703 14.6403H9.05385V26.3611H7.7703V14.6403ZM15.6372 14.6403H16.9208V26.3611H15.6372V14.6403ZM23.5041 14.6403H24.7877V26.3611H23.5041V14.6403ZM4.3337 27.9549C2.88914 27.9549 1.80341 27.5882 1.07653 26.8547C0.358842 26.1307 0 25.0447 0 23.5966V6.36107C0 4.90362 0.358842 3.81288 1.07653 3.08886C1.80341 2.35543 2.88914 1.98872 4.3337 1.98872H28.2105C29.6642 1.98872 30.75 2.35543 31.4677 3.08886C32.1853 3.82228 32.5442 4.91302 32.5442 6.36107V23.5966C32.5442 25.0447 32.1853 26.1307 31.4677 26.8547C30.75 27.5882 29.6642 27.9549 28.2105 27.9549H4.3337ZM4.36131 25.6841H28.1829C28.8638 25.6841 29.3882 25.5007 29.7563 25.134C30.1335 24.7579 30.3221 24.2031 30.3221 23.4697V6.48801C30.3221 5.75458 30.1335 5.19981 29.7563 4.8237C29.3882 4.44758 28.8638 4.25952 28.1829 4.25952H4.36131C3.67123 4.25952 3.14216 4.44758 2.77412 4.8237C2.40608 5.19981 2.22206 5.75458 2.22206 6.48801V23.4697C2.22206 24.2031 2.40608 24.7579 2.77412 25.134C3.14216 25.5007 3.67123 25.6841 4.36131 25.6841Z" fill="white"/>
<path d="M63.2505 27.3625L69.3646 13.2581V6.75599C69.3646 6.25764 69.2404 5.90973 68.992 5.71227C68.7528 5.51481 68.3295 5.28444 67.7223 5.02116C67.5474 4.91772 67.4416 4.78138 67.4048 4.61213C67.3772 4.43347 67.4324 4.26422 67.5704 4.10437L70.6068 0.535966C70.9288 0.178655 71.2095 0 71.4487 0C71.6419 0 71.7983 0.0658204 71.9179 0.197461C72.0376 0.319699 72.0974 0.48425 72.0974 0.691114C72.0974 0.841561 72.0514 1.19417 71.9593 1.74894C71.8765 2.30371 71.7891 3.00893 71.6971 3.8646C71.6143 4.72026 71.5729 5.68406 71.5729 6.75599V13.3004L77.6594 27.3625C77.8342 27.7574 77.8986 28.1523 77.8526 28.5472C77.8158 28.9516 77.6594 29.2854 77.3834 29.5487C77.1165 29.8213 76.7347 29.9577 76.2378 29.9577C75.971 29.9577 75.7088 29.8966 75.4512 29.7743C75.2027 29.6615 74.8991 29.4546 74.5402 29.1537L70.7586 25.9238C70.6206 25.811 70.5194 25.7546 70.455 25.7546C70.3906 25.7546 70.2894 25.811 70.1513 25.9238L66.3697 29.1537C66.0201 29.4546 65.7164 29.6615 65.4588 29.7743C65.2104 29.8966 64.9481 29.9577 64.6721 29.9577C64.1752 29.9577 63.7934 29.8213 63.5266 29.5487C63.2597 29.2854 63.1033 28.9516 63.0573 28.5472C63.0113 28.1523 63.0757 27.7574 63.2505 27.3625ZM64.6721 27.9267C64.5985 28.1053 64.6123 28.2275 64.7135 28.2934C64.8147 28.3686 64.9297 28.3498 65.0585 28.237L69.3094 24.6121C69.7603 24.2454 70.1421 24.0621 70.455 24.0621C70.7678 24.0621 71.1497 24.2454 71.6005 24.6121L75.8514 28.237C75.9802 28.3498 76.0952 28.3686 76.1964 28.2934C76.2976 28.2275 76.3115 28.1053 76.2378 27.9267L70.5378 14.6403H70.3722L64.6721 27.9267ZM73.3395 25.0212C73.1647 25.0212 73.0129 24.9553 72.8841 24.8237C72.7644 24.6921 72.7046 24.5322 72.7046 24.3441C72.7046 24.1655 72.769 24.0056 72.8979 23.8646C73.0267 23.7236 73.1739 23.653 73.3395 23.653C73.5327 23.653 73.6937 23.7236 73.8226 23.8646C73.9606 24.0056 74.0296 24.1655 74.0296 24.3441C74.0296 24.5228 73.9606 24.6827 73.8226 24.8237C73.6845 24.9553 73.5235 25.0212 73.3395 25.0212ZM72.6356 23.2581C72.4516 23.2581 72.2906 23.1923 72.1526 23.0606C72.0238 22.929 71.9593 22.7692 71.9593 22.5811C71.9593 22.4024 72.0238 22.2426 72.1526 22.1016C72.2906 21.9605 72.4516 21.89 72.6356 21.89C72.8104 21.89 72.9669 21.9605 73.1049 22.1016C73.2429 22.2332 73.3119 22.393 73.3119 22.5811C73.3119 22.7692 73.2429 22.929 73.1049 23.0606C72.9669 23.1923 72.8104 23.2581 72.6356 23.2581ZM71.9041 21.481C71.7293 21.481 71.5729 21.4151 71.4349 21.2835C71.3061 21.1519 71.2417 20.9967 71.2417 20.8181C71.2417 20.6394 71.3061 20.4795 71.4349 20.3385C71.5729 20.1881 71.7293 20.1128 71.9041 20.1128C72.0882 20.1128 72.2446 20.1834 72.3734 20.3244C72.5022 20.4654 72.5666 20.63 72.5666 20.8181C72.5666 21.0061 72.5022 21.166 72.3734 21.2976C72.2446 21.4198 72.0882 21.481 71.9041 21.481ZM75.9204 21.5233C76.1596 21.0155 76.3943 20.5924 76.6243 20.2539C76.8543 19.906 76.9693 19.6004 76.9693 19.3371C76.9693 18.9798 76.8911 18.6319 76.7347 18.2934C76.5783 17.9549 76.4219 17.5976 76.2654 17.2214C76.109 16.8453 76.0308 16.4175 76.0308 15.9379C76.0308 15.402 76.1826 14.9694 76.4863 14.6403C76.7991 14.3112 77.1948 14.1467 77.6732 14.1467C78.0965 14.1467 78.4415 14.2595 78.7083 14.4852C78.9844 14.7109 79.2144 14.9506 79.3984 15.2045C79.5272 15.3832 79.6422 15.5383 79.7434 15.67C79.8539 15.8016 79.9551 15.8674 80.0471 15.8674C80.1299 15.8674 80.1943 15.8157 80.2403 15.7123C80.2955 15.6088 80.3323 15.4725 80.3507 15.3032C80.3691 15.1246 80.3783 14.9318 80.3783 14.725L80.3507 6.10719C80.3507 5.90973 80.3369 5.78279 80.3093 5.72637C80.2909 5.66055 80.2357 5.61824 80.1437 5.59944C79.8585 5.50541 79.6974 5.26563 79.6606 4.88011L79.3846 2.00282C79.3662 1.72073 79.4674 1.48096 79.6882 1.2835L80.8614 0.22567C81.0362 0.0752233 81.234 0 81.4548 0C81.6757 0 81.8689 0.0752233 82.0345 0.22567L83.2215 1.2835C83.4423 1.48096 83.5435 1.72073 83.5251 2.00282L83.2353 4.88011C83.1985 5.27504 83.042 5.51481 82.766 5.59944C82.6648 5.62764 82.605 5.66996 82.5866 5.72637C82.5682 5.77339 82.559 5.90033 82.559 6.10719L82.5452 14.725C82.536 14.9412 82.5406 15.1387 82.559 15.3173C82.5866 15.4866 82.6234 15.6229 82.6694 15.7264C82.7154 15.8204 82.7844 15.8674 82.8764 15.8674C82.9592 15.8674 83.0558 15.8063 83.1662 15.6841C83.2767 15.5618 83.3917 15.402 83.5113 15.2045C83.6769 14.9318 83.8977 14.6874 84.1738 14.4711C84.459 14.2548 84.8178 14.1467 85.2503 14.1467C85.7287 14.1467 86.1198 14.3159 86.4234 14.6544C86.7271 14.9835 86.8789 15.4114 86.8789 15.9379C86.8789 16.4175 86.8007 16.8453 86.6443 17.2214C86.4878 17.5976 86.3314 17.9549 86.175 18.2934C86.0186 18.6319 85.9404 18.9798 85.9404 19.3371C85.9404 19.5628 86.0278 19.8213 86.2026 20.1128C86.3774 20.3949 86.5752 20.7334 86.7961 21.1283C87.0261 21.5139 87.2239 21.9699 87.3895 22.4965C87.5644 23.023 87.6518 23.6389 87.6518 24.3441C87.6518 25.4819 87.3941 26.4739 86.8789 27.3202C86.3636 28.1664 85.6413 28.8246 84.712 29.2948C83.7827 29.7649 82.697 30 81.4548 30C80.9212 30 80.3967 29.9483 79.8815 29.8449C79.3754 29.7414 78.8785 29.591 78.3909 29.3935C78.5105 29.1302 78.5749 28.8669 78.5841 28.6037C78.6025 28.3404 78.5749 28.0442 78.5013 27.7151C78.9338 27.9314 79.3938 28.0959 79.8815 28.2087C80.3691 28.3216 80.8936 28.378 81.4548 28.378C82.8994 28.378 84.0311 28.0207 84.85 27.3061C85.6689 26.5914 86.0784 25.6041 86.0784 24.3441C86.0784 23.6953 85.991 23.1406 85.8162 22.6798C85.6505 22.2191 85.4527 21.8101 85.2227 21.4527C85.0019 21.0954 84.804 20.7569 84.6292 20.4372C84.4636 20.1081 84.3808 19.7461 84.3808 19.3512C84.3808 18.8716 84.459 18.4438 84.6154 18.0677C84.781 17.6916 84.9421 17.3343 85.0985 16.9958C85.2549 16.6573 85.3331 16.3 85.3331 15.9238C85.3331 15.7734 85.2641 15.6982 85.1261 15.6982C84.9789 15.6982 84.8362 15.7828 84.6982 15.952C84.5602 16.1213 84.413 16.3188 84.2566 16.5444C84.1002 16.7701 83.9069 16.9723 83.6769 17.1509C83.4469 17.3202 83.1662 17.4048 82.835 17.4048C82.5222 17.4048 82.2507 17.3155 82.0207 17.1368C81.7907 16.9488 81.6205 16.6714 81.5101 16.3047H81.3996C81.2984 16.662 81.1328 16.9346 80.9028 17.1227C80.6728 17.3108 80.4013 17.4048 80.0885 17.4048C79.7481 17.4048 79.4628 17.3202 79.2328 17.1509C79.012 16.9723 78.8187 16.7701 78.6531 16.5444C78.4967 16.3188 78.3495 16.1213 78.2115 15.952C78.0735 15.7828 77.9262 15.6982 77.7698 15.6982C77.6502 15.6982 77.5904 15.7734 77.5904 15.9238C77.5904 16.3 77.6686 16.6573 77.825 16.9958C77.9814 17.3343 78.1379 17.6916 78.2943 18.0677C78.4507 18.4438 78.5289 18.8716 78.5289 19.3512C78.5289 19.8307 78.4047 20.268 78.1563 20.6629C77.917 21.0578 77.664 21.4951 77.3972 21.9746C77.1303 22.4448 76.9647 23.0371 76.9003 23.7518L75.9204 21.5233ZM78.7221 24.1044C78.5749 24.0574 78.4691 23.9633 78.4047 23.8223C78.3403 23.6718 78.3311 23.5261 78.3771 23.385L79.5226 20.1551C79.5778 20.0141 79.6744 19.9107 79.8125 19.8449C79.9597 19.7696 80.1069 19.7602 80.2541 19.8166C80.3921 19.8637 80.4933 19.9624 80.5577 20.1128C80.6222 20.2539 80.6314 20.3996 80.5853 20.5501L79.4398 23.7659C79.3846 23.9069 79.288 24.015 79.15 24.0903C79.012 24.1561 78.8693 24.1608 78.7221 24.1044ZM84.1876 24.1044C84.0403 24.1608 83.8977 24.1561 83.7597 24.0903C83.6217 24.015 83.5251 23.9069 83.4699 23.7659L82.3243 20.5501C82.2783 20.3996 82.2875 20.2539 82.352 20.1128C82.4164 19.9624 82.5176 19.8637 82.6556 19.8166C82.8028 19.7602 82.9454 19.7696 83.0834 19.8449C83.2215 19.9107 83.3181 20.0141 83.3733 20.1551L84.5188 23.385C84.574 23.5261 84.5694 23.6718 84.505 23.8223C84.4406 23.9633 84.3348 24.0574 84.1876 24.1044ZM92.2753 29.9154C91.1896 29.9154 90.2143 29.7649 89.3494 29.464C88.4845 29.1725 87.776 28.7353 87.2239 28.1523C87.3803 27.9267 87.5184 27.6963 87.638 27.4612C87.7668 27.2261 87.8864 26.9535 87.9968 26.6432C88.7605 27.7621 90.1867 28.3216 92.2753 28.3216C93.7199 28.3216 94.847 28.0395 95.6567 27.4753C96.4756 26.9205 96.885 26.1542 96.885 25.1763C96.885 24.6027 96.793 24.1091 96.609 23.6953C96.425 23.2722 96.2088 22.8867 95.9603 22.5388C95.7119 22.1815 95.4911 21.8289 95.2979 21.481C95.1138 21.1236 95.0218 20.7287 95.0218 20.2962C95.0218 19.7978 95.0908 19.2995 95.2288 18.8011C95.3761 18.2934 95.4497 17.8091 95.4497 17.3484C95.4497 16.5961 95.1552 16.0837 94.5664 15.811C93.9775 15.5289 93.2138 15.3879 92.2753 15.3879C91.3092 15.3879 90.5363 15.5336 89.9566 15.8251C89.377 16.1072 89.0871 16.615 89.0871 17.3484C89.0871 17.8091 89.1561 18.2934 89.2942 18.8011C89.4414 19.2995 89.515 19.7978 89.515 20.2962C89.515 20.8039 89.377 21.2788 89.1009 21.7207C88.8249 22.1533 88.5397 22.5576 88.2452 22.9337C88.1808 22.6422 88.1026 22.3554 88.0106 22.0733C87.9278 21.7819 87.8174 21.4857 87.6794 21.1848C87.7806 20.9779 87.8496 20.8086 87.8864 20.677C87.9232 20.5454 87.9416 20.4278 87.9416 20.3244C87.9416 19.8543 87.8726 19.3888 87.7346 18.9281C87.5966 18.4579 87.5276 17.9314 87.5276 17.3484C87.5276 16.3799 87.845 15.5994 88.4799 15.0071C89.1147 14.4147 90.0118 14.048 91.1712 13.9069V5.58533C91.1712 5.31265 91.1482 5.11989 91.1022 5.00705C91.0562 4.88481 90.9504 4.76258 90.7847 4.64034C90.5271 4.47109 90.4029 4.26422 90.4121 4.01975L90.6191 0.535966C90.6283 0.376117 90.6789 0.249177 90.7709 0.155148C90.8721 0.051716 90.9918 0 91.1298 0H93.3932C93.5405 0 93.6601 0.051716 93.7521 0.155148C93.8533 0.249177 93.9085 0.376117 93.9177 0.535966L94.1247 4.01975C94.1431 4.26422 94.0189 4.47109 93.7521 4.64034C93.5957 4.75317 93.4898 4.87071 93.4346 4.99295C93.3886 5.10578 93.3656 5.30324 93.3656 5.58533V13.9069C94.525 14.048 95.4221 14.4147 96.0569 15.0071C96.6918 15.5994 97.0093 16.3799 97.0093 17.3484C97.0093 17.9314 96.9402 18.4579 96.8022 18.9281C96.6642 19.3888 96.5952 19.8543 96.5952 20.3244C96.5952 20.6347 96.6872 20.9262 96.8712 21.1989C97.0645 21.4716 97.2807 21.7772 97.5199 22.1157C97.7683 22.4542 97.9846 22.8679 98.1686 23.3568C98.3618 23.8364 98.4584 24.4429 98.4584 25.1763C98.4584 26.6244 97.8972 27.7762 96.7746 28.6319C95.6613 29.4875 94.1615 29.9154 92.2753 29.9154ZM92.2753 21.4386C91.8521 21.4386 91.4932 21.2929 91.1988 21.0014C90.9043 20.7005 90.7571 20.3385 90.7571 19.9154C90.7571 19.4922 90.9043 19.1302 91.1988 18.8293C91.5024 18.5284 91.8613 18.378 92.2753 18.378C92.6802 18.378 93.0298 18.5284 93.3242 18.8293C93.6187 19.1302 93.7659 19.4922 93.7659 19.9154C93.7659 20.3385 93.6187 20.7005 93.3242 21.0014C93.0298 21.2929 92.6802 21.4386 92.2753 21.4386ZM90.5087 25.4302C90.3431 25.4302 90.2005 25.3691 90.0809 25.2468C89.9612 25.134 89.9014 24.9929 89.9014 24.8237C89.9014 24.6544 89.9612 24.5087 90.0809 24.3865C90.2005 24.2548 90.3431 24.189 90.5087 24.189H94.0143C94.1799 24.189 94.3179 24.2501 94.4284 24.3724C94.548 24.4946 94.6078 24.645 94.6078 24.8237C94.6078 24.9929 94.548 25.134 94.4284 25.2468C94.3179 25.3691 94.1799 25.4302 94.0143 25.4302H90.5087Z" fill="white"/>
<path d="M142.663 28.7588C142.313 28.7588 142.014 28.6366 141.766 28.3921C141.526 28.1476 141.407 27.8467 141.407 27.4894V19.4217L134.244 26.1918C133.968 26.4551 133.646 26.5961 133.278 26.6149C132.919 26.6338 132.583 26.4786 132.27 26.1495L129.993 27.969C129.864 28.063 129.726 28.1053 129.579 28.0959C129.441 28.0865 129.312 28.0254 129.192 27.9126L128.792 27.4894C128.663 27.3672 128.599 27.2308 128.599 27.0804C128.599 26.9299 128.64 26.7983 128.723 26.6855L130.49 24.3583C130.168 24.0197 130.016 23.6671 130.034 23.3004C130.053 22.9337 130.191 22.6046 130.448 22.3131L143.284 8.19464C143.173 7.37659 143.27 6.56323 143.574 5.75458C143.886 4.94593 144.406 4.17019 145.133 3.42736L152.724 11.1989C151.997 11.9417 151.229 12.4777 150.419 12.8068C149.619 13.1359 148.827 13.244 148.045 13.1312L143.919 17.024V27.4894C143.919 27.8467 143.794 28.1476 143.546 28.3921C143.307 28.6366 143.012 28.7588 142.663 28.7588ZM131.87 23.4697L133.14 24.7673L145.975 12.3413C145.791 12.2285 145.607 12.0968 145.423 11.9464C145.239 11.7866 145.064 11.6173 144.899 11.4386C144.724 11.2506 144.563 11.0625 144.416 10.8745C144.278 10.677 144.153 10.4748 144.043 10.268L131.87 23.4697ZM146.513 2.00282C147.323 1.17536 148.183 0.615891 149.094 0.324401C150.005 0.0329102 150.907 0.0141044 151.799 0.267983C152.701 0.512459 153.538 1.02492 154.311 1.80536C155.084 2.5952 155.59 3.45087 155.829 4.37236C156.078 5.29384 156.055 6.22003 155.76 7.15092C155.475 8.08181 154.928 8.95628 154.118 9.77433L146.513 2.00282Z" fill="white"/>
</g>
</svg>
