<svg width="1440" height="816" viewBox="0 0 1440 816" fill="none" xmlns="http://www.w3.org/2000/svg">
<rect y="611" width="32" height="205" fill="url(#paint0_linear_372_351)"/>
<rect y="611" width="32" height="205" fill="url(#paint1_linear_372_351)"/>
<rect x="32" y="643" width="32" height="173" fill="url(#paint2_linear_372_351)"/>
<rect x="32" y="643" width="32" height="173" fill="url(#paint3_linear_372_351)"/>
<rect x="64" y="691" width="32" height="125" fill="url(#paint4_linear_372_351)"/>
<rect x="64" y="691" width="32" height="125" fill="url(#paint5_linear_372_351)"/>
<rect x="96" y="700" width="32" height="116" fill="url(#paint6_linear_372_351)"/>
<rect x="96" y="700" width="32" height="116" fill="url(#paint7_linear_372_351)"/>
<rect x="128" y="666" width="32" height="150" fill="url(#paint8_linear_372_351)"/>
<rect x="128" y="666" width="32" height="150" fill="url(#paint9_linear_372_351)"/>
<rect x="160" y="627" width="32" height="189" fill="url(#paint10_linear_372_351)"/>
<rect x="160" y="627" width="32" height="189" fill="url(#paint11_linear_372_351)"/>
<rect x="192" y="605" width="32" height="211" fill="url(#paint12_linear_372_351)"/>
<rect x="192" y="605" width="32" height="211" fill="url(#paint13_linear_372_351)"/>
<rect x="224" y="611" width="32" height="205" fill="url(#paint14_linear_372_351)"/>
<rect x="224" y="611" width="32" height="205" fill="url(#paint15_linear_372_351)"/>
<rect x="256" y="621" width="32" height="195" fill="url(#paint16_linear_372_351)"/>
<rect x="256" y="621" width="32" height="195" fill="url(#paint17_linear_372_351)"/>
<rect x="288" y="585" width="32" height="231" fill="url(#paint18_linear_372_351)"/>
<rect x="288" y="585" width="32" height="231" fill="url(#paint19_linear_372_351)"/>
<rect x="320" y="546" width="32" height="270" fill="url(#paint20_linear_372_351)"/>
<rect x="320" y="546" width="32" height="270" fill="url(#paint21_linear_372_351)"/>
<rect x="352" y="500" width="32" height="316" fill="url(#paint22_linear_372_351)"/>
<rect x="352" y="500" width="32" height="316" fill="url(#paint23_linear_372_351)"/>
<rect x="384" y="474" width="32" height="342" fill="url(#paint24_linear_372_351)"/>
<rect x="384" y="474" width="32" height="342" fill="url(#paint25_linear_372_351)"/>
<rect x="416" y="462" width="32" height="354" fill="url(#paint26_linear_372_351)"/>
<rect x="416" y="462" width="32" height="354" fill="url(#paint27_linear_372_351)"/>
<rect x="448" y="474" width="32" height="342" fill="url(#paint28_linear_372_351)"/>
<rect x="448" y="474" width="32" height="342" fill="url(#paint29_linear_372_351)"/>
<rect x="480" y="452" width="32" height="364" fill="url(#paint30_linear_372_351)"/>
<rect x="480" y="452" width="32" height="364" fill="url(#paint31_linear_372_351)"/>
<rect x="512" y="421" width="32" height="395" fill="url(#paint32_linear_372_351)"/>
<rect x="512" y="421" width="32" height="395" fill="url(#paint33_linear_372_351)"/>
<rect x="544" y="379" width="32" height="437" fill="url(#paint34_linear_372_351)"/>
<rect x="544" y="379" width="32" height="437" fill="url(#paint35_linear_372_351)"/>
<rect x="576" y="338" width="32" height="478" fill="url(#paint36_linear_372_351)"/>
<rect x="576" y="338" width="32" height="478" fill="url(#paint37_linear_372_351)"/>
<rect x="608" y="312" width="32" height="504" fill="url(#paint38_linear_372_351)"/>
<rect x="608" y="312" width="32" height="504" fill="url(#paint39_linear_372_351)"/>
<rect x="640" y="301" width="32" height="515" fill="url(#paint40_linear_372_351)"/>
<rect x="640" y="301" width="32" height="515" fill="url(#paint41_linear_372_351)"/>
<rect x="672" y="295" width="32" height="521" fill="url(#paint42_linear_372_351)"/>
<rect x="704" y="285" width="32" height="531" fill="url(#paint43_linear_372_351)"/>
<rect x="704" y="285" width="32" height="531" fill="url(#paint44_linear_372_351)"/>
<rect x="736" y="301" width="32" height="515" fill="url(#paint45_linear_372_351)"/>
<rect x="736" y="301" width="32" height="515" fill="url(#paint46_linear_372_351)"/>
<rect x="768" y="312" width="32" height="504" fill="url(#paint47_linear_372_351)"/>
<rect x="768" y="312" width="32" height="504" fill="url(#paint48_linear_372_351)"/>
<rect x="800" y="336" width="32" height="480" fill="url(#paint49_linear_372_351)"/>
<rect x="800" y="336" width="32" height="480" fill="url(#paint50_linear_372_351)"/>
<rect x="832" y="388" width="32" height="428" fill="url(#paint51_linear_372_351)"/>
<rect x="832" y="388" width="32" height="428" fill="url(#paint52_linear_372_351)"/>
<rect x="864" y="433" width="32" height="383" fill="url(#paint53_linear_372_351)"/>
<rect x="864" y="433" width="32" height="383" fill="url(#paint54_linear_372_351)"/>
<rect x="896" y="458" width="32" height="358" fill="url(#paint55_linear_372_351)"/>
<rect x="896" y="458" width="32" height="358" fill="url(#paint56_linear_372_351)"/>
<rect x="928" y="452" width="32" height="364" fill="url(#paint57_linear_372_351)"/>
<rect x="928" y="452" width="32" height="364" fill="url(#paint58_linear_372_351)"/>
<rect x="960" y="470" width="32" height="346" fill="url(#paint59_linear_372_351)"/>
<rect x="960" y="470" width="32" height="346" fill="url(#paint60_linear_372_351)"/>
<rect x="992" y="500" width="32" height="316" fill="url(#paint61_linear_372_351)"/>
<rect x="992" y="500" width="32" height="316" fill="url(#paint62_linear_372_351)"/>
<rect x="1024" y="525" width="32" height="291" fill="url(#paint63_linear_372_351)"/>
<rect x="1024" y="525" width="32" height="291" fill="url(#paint64_linear_372_351)"/>
<rect x="1056" y="536" width="32" height="280" fill="url(#paint65_linear_372_351)"/>
<rect x="1056" y="536" width="32" height="280" fill="url(#paint66_linear_372_351)"/>
<rect x="1088" y="525" width="32" height="291" fill="url(#paint67_linear_372_351)"/>
<rect x="1088" y="525" width="32" height="291" fill="url(#paint68_linear_372_351)"/>
<rect x="1120" y="553" width="32" height="263" fill="url(#paint69_linear_372_351)"/>
<rect x="1120" y="553" width="32" height="263" fill="url(#paint70_linear_372_351)"/>
<rect x="1152" y="607" width="32" height="209" fill="url(#paint71_linear_372_351)"/>
<rect x="1152" y="607" width="32" height="209" fill="url(#paint72_linear_372_351)"/>
<rect x="1184" y="631" width="32" height="185" fill="url(#paint73_linear_372_351)"/>
<rect x="1184" y="631" width="32" height="185" fill="url(#paint74_linear_372_351)"/>
<rect x="1216" y="664" width="32" height="152" fill="url(#paint75_linear_372_351)"/>
<rect x="1216" y="664" width="32" height="152" fill="url(#paint76_linear_372_351)"/>
<rect x="1248" y="676" width="32" height="140" fill="url(#paint77_linear_372_351)"/>
<rect x="1248" y="676" width="32" height="140" fill="url(#paint78_linear_372_351)"/>
<rect x="1280" y="686" width="32" height="130" fill="url(#paint79_linear_372_351)"/>
<rect x="1280" y="686" width="32" height="130" fill="url(#paint80_linear_372_351)"/>
<rect x="1312" y="676" width="32" height="140" fill="url(#paint81_linear_372_351)"/>
<rect x="1312" y="676" width="32" height="140" fill="url(#paint82_linear_372_351)"/>
<rect x="1344" y="638" width="32" height="178" fill="url(#paint83_linear_372_351)"/>
<rect x="1344" y="638" width="32" height="178" fill="url(#paint84_linear_372_351)"/>
<rect x="1376" y="591" width="32" height="225" fill="url(#paint85_linear_372_351)"/>
<rect x="1376" y="591" width="32" height="225" fill="url(#paint86_linear_372_351)"/>
<rect x="1408" y="625" width="32" height="191" fill="url(#paint87_linear_372_351)"/>
<rect x="1408" y="625" width="32" height="191" fill="url(#paint88_linear_372_351)"/>
<defs>
<linearGradient id="paint0_linear_372_351" x1="0" y1="713.5" x2="32" y2="713.5" gradientUnits="userSpaceOnUse">
<stop stop-color="#00EEFF"/>
<stop offset="1" stop-color="#008F99"/>
</linearGradient>
<linearGradient id="paint1_linear_372_351" x1="16" y1="611" x2="16" y2="816" gradientUnits="userSpaceOnUse">
<stop stop-color="white"/>
<stop offset="1" stop-color="#00E5FF"/>
</linearGradient>
<linearGradient id="paint2_linear_372_351" x1="32" y1="729.5" x2="64" y2="729.5" gradientUnits="userSpaceOnUse">
<stop stop-color="#00EEFF"/>
<stop offset="1" stop-color="#008F99"/>
</linearGradient>
<linearGradient id="paint3_linear_372_351" x1="48" y1="643" x2="48" y2="816" gradientUnits="userSpaceOnUse">
<stop stop-color="white"/>
<stop offset="1" stop-color="#00E5FF"/>
</linearGradient>
<linearGradient id="paint4_linear_372_351" x1="64" y1="753.5" x2="96" y2="753.5" gradientUnits="userSpaceOnUse">
<stop stop-color="#00EEFF"/>
<stop offset="1" stop-color="#008F99"/>
</linearGradient>
<linearGradient id="paint5_linear_372_351" x1="80" y1="691" x2="80" y2="816" gradientUnits="userSpaceOnUse">
<stop stop-color="white"/>
<stop offset="1" stop-color="#00E5FF"/>
</linearGradient>
<linearGradient id="paint6_linear_372_351" x1="96" y1="758" x2="128" y2="758" gradientUnits="userSpaceOnUse">
<stop stop-color="#00EEFF"/>
<stop offset="1" stop-color="#008F99"/>
</linearGradient>
<linearGradient id="paint7_linear_372_351" x1="112" y1="700" x2="112" y2="816" gradientUnits="userSpaceOnUse">
<stop stop-color="white"/>
<stop offset="1" stop-color="#00E5FF"/>
</linearGradient>
<linearGradient id="paint8_linear_372_351" x1="128" y1="741" x2="160" y2="741" gradientUnits="userSpaceOnUse">
<stop stop-color="#00EEFF"/>
<stop offset="1" stop-color="#008F99"/>
</linearGradient>
<linearGradient id="paint9_linear_372_351" x1="144" y1="666" x2="144" y2="816" gradientUnits="userSpaceOnUse">
<stop stop-color="white"/>
<stop offset="1" stop-color="#00E5FF"/>
</linearGradient>
<linearGradient id="paint10_linear_372_351" x1="160" y1="721.5" x2="192" y2="721.5" gradientUnits="userSpaceOnUse">
<stop stop-color="#00EEFF"/>
<stop offset="1" stop-color="#008F99"/>
</linearGradient>
<linearGradient id="paint11_linear_372_351" x1="176" y1="627" x2="176" y2="816" gradientUnits="userSpaceOnUse">
<stop stop-color="white"/>
<stop offset="1" stop-color="#00E5FF"/>
</linearGradient>
<linearGradient id="paint12_linear_372_351" x1="192" y1="710.5" x2="224" y2="710.5" gradientUnits="userSpaceOnUse">
<stop stop-color="#00EEFF"/>
<stop offset="1" stop-color="#008F99"/>
</linearGradient>
<linearGradient id="paint13_linear_372_351" x1="208" y1="605" x2="208" y2="816" gradientUnits="userSpaceOnUse">
<stop stop-color="white"/>
<stop offset="1" stop-color="#00E5FF"/>
</linearGradient>
<linearGradient id="paint14_linear_372_351" x1="224" y1="713.5" x2="256" y2="713.5" gradientUnits="userSpaceOnUse">
<stop stop-color="#00EEFF"/>
<stop offset="1" stop-color="#008F99"/>
</linearGradient>
<linearGradient id="paint15_linear_372_351" x1="240" y1="611" x2="240" y2="816" gradientUnits="userSpaceOnUse">
<stop stop-color="white"/>
<stop offset="1" stop-color="#00E5FF"/>
</linearGradient>
<linearGradient id="paint16_linear_372_351" x1="256" y1="718.5" x2="288" y2="718.5" gradientUnits="userSpaceOnUse">
<stop stop-color="#00EEFF"/>
<stop offset="1" stop-color="#008F99"/>
</linearGradient>
<linearGradient id="paint17_linear_372_351" x1="272" y1="621" x2="272" y2="816" gradientUnits="userSpaceOnUse">
<stop stop-color="white"/>
<stop offset="1" stop-color="#00E5FF"/>
</linearGradient>
<linearGradient id="paint18_linear_372_351" x1="288" y1="700.5" x2="320" y2="700.5" gradientUnits="userSpaceOnUse">
<stop stop-color="#00EEFF"/>
<stop offset="1" stop-color="#008F99"/>
</linearGradient>
<linearGradient id="paint19_linear_372_351" x1="304" y1="585" x2="304" y2="816" gradientUnits="userSpaceOnUse">
<stop stop-color="white"/>
<stop offset="1" stop-color="#00E5FF"/>
</linearGradient>
<linearGradient id="paint20_linear_372_351" x1="320" y1="681" x2="352" y2="681" gradientUnits="userSpaceOnUse">
<stop stop-color="#00EEFF"/>
<stop offset="1" stop-color="#008F99"/>
</linearGradient>
<linearGradient id="paint21_linear_372_351" x1="336" y1="546" x2="336" y2="816" gradientUnits="userSpaceOnUse">
<stop stop-color="white"/>
<stop offset="1" stop-color="#00E5FF"/>
</linearGradient>
<linearGradient id="paint22_linear_372_351" x1="352" y1="658" x2="384" y2="658" gradientUnits="userSpaceOnUse">
<stop stop-color="#00EEFF"/>
<stop offset="1" stop-color="#008F99"/>
</linearGradient>
<linearGradient id="paint23_linear_372_351" x1="368" y1="500" x2="368" y2="816" gradientUnits="userSpaceOnUse">
<stop stop-color="white"/>
<stop offset="1" stop-color="#00E5FF"/>
</linearGradient>
<linearGradient id="paint24_linear_372_351" x1="384" y1="645" x2="416" y2="645" gradientUnits="userSpaceOnUse">
<stop stop-color="#00EEFF"/>
<stop offset="1" stop-color="#008F99"/>
</linearGradient>
<linearGradient id="paint25_linear_372_351" x1="400" y1="474" x2="400" y2="816" gradientUnits="userSpaceOnUse">
<stop stop-color="white"/>
<stop offset="1" stop-color="#00E5FF"/>
</linearGradient>
<linearGradient id="paint26_linear_372_351" x1="416" y1="639" x2="448" y2="639" gradientUnits="userSpaceOnUse">
<stop stop-color="#00EEFF"/>
<stop offset="1" stop-color="#008F99"/>
</linearGradient>
<linearGradient id="paint27_linear_372_351" x1="432" y1="462" x2="432" y2="816" gradientUnits="userSpaceOnUse">
<stop stop-color="white"/>
<stop offset="1" stop-color="#00E5FF"/>
</linearGradient>
<linearGradient id="paint28_linear_372_351" x1="448" y1="645" x2="480" y2="645" gradientUnits="userSpaceOnUse">
<stop stop-color="#00EEFF"/>
<stop offset="1" stop-color="#008F99"/>
</linearGradient>
<linearGradient id="paint29_linear_372_351" x1="464" y1="474" x2="464" y2="816" gradientUnits="userSpaceOnUse">
<stop stop-color="white"/>
<stop offset="1" stop-color="#00E5FF"/>
</linearGradient>
<linearGradient id="paint30_linear_372_351" x1="480" y1="634" x2="512" y2="634" gradientUnits="userSpaceOnUse">
<stop stop-color="#00EEFF"/>
<stop offset="1" stop-color="#008F99"/>
</linearGradient>
<linearGradient id="paint31_linear_372_351" x1="496" y1="452" x2="496" y2="816" gradientUnits="userSpaceOnUse">
<stop stop-color="white"/>
<stop offset="1" stop-color="#00E5FF"/>
</linearGradient>
<linearGradient id="paint32_linear_372_351" x1="512" y1="618.5" x2="544" y2="618.5" gradientUnits="userSpaceOnUse">
<stop stop-color="#00EEFF"/>
<stop offset="1" stop-color="#008F99"/>
</linearGradient>
<linearGradient id="paint33_linear_372_351" x1="528" y1="421" x2="528" y2="816" gradientUnits="userSpaceOnUse">
<stop stop-color="white"/>
<stop offset="1" stop-color="#00E5FF"/>
</linearGradient>
<linearGradient id="paint34_linear_372_351" x1="544" y1="597.5" x2="576" y2="597.5" gradientUnits="userSpaceOnUse">
<stop stop-color="#00EEFF"/>
<stop offset="1" stop-color="#008F99"/>
</linearGradient>
<linearGradient id="paint35_linear_372_351" x1="560" y1="379" x2="560" y2="816" gradientUnits="userSpaceOnUse">
<stop stop-color="white"/>
<stop offset="1" stop-color="#00E5FF"/>
</linearGradient>
<linearGradient id="paint36_linear_372_351" x1="576" y1="577" x2="608" y2="577" gradientUnits="userSpaceOnUse">
<stop stop-color="#00EEFF"/>
<stop offset="1" stop-color="#008F99"/>
</linearGradient>
<linearGradient id="paint37_linear_372_351" x1="592" y1="338" x2="592" y2="816" gradientUnits="userSpaceOnUse">
<stop stop-color="white"/>
<stop offset="1" stop-color="#00E5FF"/>
</linearGradient>
<linearGradient id="paint38_linear_372_351" x1="608" y1="564" x2="640" y2="564" gradientUnits="userSpaceOnUse">
<stop stop-color="#00EEFF"/>
<stop offset="1" stop-color="#008F99"/>
</linearGradient>
<linearGradient id="paint39_linear_372_351" x1="624" y1="312" x2="624" y2="816" gradientUnits="userSpaceOnUse">
<stop stop-color="white"/>
<stop offset="1" stop-color="#00E5FF"/>
</linearGradient>
<linearGradient id="paint40_linear_372_351" x1="640" y1="558.5" x2="672" y2="558.5" gradientUnits="userSpaceOnUse">
<stop stop-color="#00EEFF"/>
<stop offset="1" stop-color="#008F99"/>
</linearGradient>
<linearGradient id="paint41_linear_372_351" x1="656" y1="301" x2="656" y2="816" gradientUnits="userSpaceOnUse">
<stop stop-color="white"/>
<stop offset="1" stop-color="#00E5FF"/>
</linearGradient>
<linearGradient id="paint42_linear_372_351" x1="688" y1="295" x2="688" y2="816" gradientUnits="userSpaceOnUse">
<stop stop-color="white"/>
<stop offset="1" stop-color="#00E5FF"/>
</linearGradient>
<linearGradient id="paint43_linear_372_351" x1="704" y1="550.5" x2="736" y2="550.5" gradientUnits="userSpaceOnUse">
<stop stop-color="#00EEFF"/>
<stop offset="1" stop-color="#008F99"/>
</linearGradient>
<linearGradient id="paint44_linear_372_351" x1="720" y1="285" x2="720" y2="816" gradientUnits="userSpaceOnUse">
<stop stop-color="white"/>
<stop offset="1" stop-color="#00E5FF"/>
</linearGradient>
<linearGradient id="paint45_linear_372_351" x1="736" y1="558.5" x2="768" y2="558.5" gradientUnits="userSpaceOnUse">
<stop stop-color="#00EEFF"/>
<stop offset="1" stop-color="#008F99"/>
</linearGradient>
<linearGradient id="paint46_linear_372_351" x1="752" y1="301" x2="752" y2="816" gradientUnits="userSpaceOnUse">
<stop stop-color="white"/>
<stop offset="1" stop-color="#00E5FF"/>
</linearGradient>
<linearGradient id="paint47_linear_372_351" x1="768" y1="564" x2="800" y2="564" gradientUnits="userSpaceOnUse">
<stop stop-color="#00EEFF"/>
<stop offset="1" stop-color="#008F99"/>
</linearGradient>
<linearGradient id="paint48_linear_372_351" x1="784" y1="312" x2="784" y2="816" gradientUnits="userSpaceOnUse">
<stop stop-color="white"/>
<stop offset="1" stop-color="#00E5FF"/>
</linearGradient>
<linearGradient id="paint49_linear_372_351" x1="800" y1="576" x2="832" y2="576" gradientUnits="userSpaceOnUse">
<stop stop-color="#00EEFF"/>
<stop offset="1" stop-color="#008F99"/>
</linearGradient>
<linearGradient id="paint50_linear_372_351" x1="816" y1="336" x2="816" y2="816" gradientUnits="userSpaceOnUse">
<stop stop-color="white"/>
<stop offset="1" stop-color="#00E5FF"/>
</linearGradient>
<linearGradient id="paint51_linear_372_351" x1="832" y1="602" x2="864" y2="602" gradientUnits="userSpaceOnUse">
<stop stop-color="#00EEFF"/>
<stop offset="1" stop-color="#008F99"/>
</linearGradient>
<linearGradient id="paint52_linear_372_351" x1="848" y1="388" x2="848" y2="816" gradientUnits="userSpaceOnUse">
<stop stop-color="white"/>
<stop offset="1" stop-color="#00E5FF"/>
</linearGradient>
<linearGradient id="paint53_linear_372_351" x1="864" y1="624.5" x2="896" y2="624.5" gradientUnits="userSpaceOnUse">
<stop stop-color="#00EEFF"/>
<stop offset="1" stop-color="#008F99"/>
</linearGradient>
<linearGradient id="paint54_linear_372_351" x1="880" y1="433" x2="880" y2="816" gradientUnits="userSpaceOnUse">
<stop stop-color="white"/>
<stop offset="1" stop-color="#00E5FF"/>
</linearGradient>
<linearGradient id="paint55_linear_372_351" x1="896" y1="637" x2="928" y2="637" gradientUnits="userSpaceOnUse">
<stop stop-color="#00EEFF"/>
<stop offset="1" stop-color="#008F99"/>
</linearGradient>
<linearGradient id="paint56_linear_372_351" x1="912" y1="458" x2="912" y2="816" gradientUnits="userSpaceOnUse">
<stop stop-color="white"/>
<stop offset="1" stop-color="#00E5FF"/>
</linearGradient>
<linearGradient id="paint57_linear_372_351" x1="928" y1="634" x2="960" y2="634" gradientUnits="userSpaceOnUse">
<stop stop-color="#00EEFF"/>
<stop offset="1" stop-color="#008F99"/>
</linearGradient>
<linearGradient id="paint58_linear_372_351" x1="944" y1="452" x2="944" y2="816" gradientUnits="userSpaceOnUse">
<stop stop-color="white"/>
<stop offset="1" stop-color="#00E5FF"/>
</linearGradient>
<linearGradient id="paint59_linear_372_351" x1="960" y1="643" x2="992" y2="643" gradientUnits="userSpaceOnUse">
<stop stop-color="#00EEFF"/>
<stop offset="1" stop-color="#008F99"/>
</linearGradient>
<linearGradient id="paint60_linear_372_351" x1="976" y1="470" x2="976" y2="816" gradientUnits="userSpaceOnUse">
<stop stop-color="white"/>
<stop offset="1" stop-color="#00E5FF"/>
</linearGradient>
<linearGradient id="paint61_linear_372_351" x1="992" y1="658" x2="1024" y2="658" gradientUnits="userSpaceOnUse">
<stop stop-color="#00EEFF"/>
<stop offset="1" stop-color="#008F99"/>
</linearGradient>
<linearGradient id="paint62_linear_372_351" x1="1008" y1="500" x2="1008" y2="816" gradientUnits="userSpaceOnUse">
<stop stop-color="white"/>
<stop offset="1" stop-color="#00E5FF"/>
</linearGradient>
<linearGradient id="paint63_linear_372_351" x1="1024" y1="670.5" x2="1056" y2="670.5" gradientUnits="userSpaceOnUse">
<stop stop-color="#00EEFF"/>
<stop offset="1" stop-color="#008F99"/>
</linearGradient>
<linearGradient id="paint64_linear_372_351" x1="1040" y1="525" x2="1040" y2="816" gradientUnits="userSpaceOnUse">
<stop stop-color="white"/>
<stop offset="1" stop-color="#00E5FF"/>
</linearGradient>
<linearGradient id="paint65_linear_372_351" x1="1056" y1="676" x2="1088" y2="676" gradientUnits="userSpaceOnUse">
<stop stop-color="#00EEFF"/>
<stop offset="1" stop-color="#008F99"/>
</linearGradient>
<linearGradient id="paint66_linear_372_351" x1="1072" y1="536" x2="1072" y2="816" gradientUnits="userSpaceOnUse">
<stop stop-color="white"/>
<stop offset="1" stop-color="#00E5FF"/>
</linearGradient>
<linearGradient id="paint67_linear_372_351" x1="1088" y1="670.5" x2="1120" y2="670.5" gradientUnits="userSpaceOnUse">
<stop stop-color="#00EEFF"/>
<stop offset="1" stop-color="#008F99"/>
</linearGradient>
<linearGradient id="paint68_linear_372_351" x1="1104" y1="525" x2="1104" y2="816" gradientUnits="userSpaceOnUse">
<stop stop-color="white"/>
<stop offset="1" stop-color="#00E5FF"/>
</linearGradient>
<linearGradient id="paint69_linear_372_351" x1="1120" y1="684.5" x2="1152" y2="684.5" gradientUnits="userSpaceOnUse">
<stop stop-color="#00EEFF"/>
<stop offset="1" stop-color="#008F99"/>
</linearGradient>
<linearGradient id="paint70_linear_372_351" x1="1136" y1="553" x2="1136" y2="816" gradientUnits="userSpaceOnUse">
<stop stop-color="white"/>
<stop offset="1" stop-color="#00E5FF"/>
</linearGradient>
<linearGradient id="paint71_linear_372_351" x1="1152" y1="711.5" x2="1184" y2="711.5" gradientUnits="userSpaceOnUse">
<stop stop-color="#00EEFF"/>
<stop offset="1" stop-color="#008F99"/>
</linearGradient>
<linearGradient id="paint72_linear_372_351" x1="1168" y1="607" x2="1168" y2="816" gradientUnits="userSpaceOnUse">
<stop stop-color="white"/>
<stop offset="1" stop-color="#00E5FF"/>
</linearGradient>
<linearGradient id="paint73_linear_372_351" x1="1184" y1="723.5" x2="1216" y2="723.5" gradientUnits="userSpaceOnUse">
<stop stop-color="#00EEFF"/>
<stop offset="1" stop-color="#008F99"/>
</linearGradient>
<linearGradient id="paint74_linear_372_351" x1="1200" y1="631" x2="1200" y2="816" gradientUnits="userSpaceOnUse">
<stop stop-color="white"/>
<stop offset="1" stop-color="#00E5FF"/>
</linearGradient>
<linearGradient id="paint75_linear_372_351" x1="1216" y1="740" x2="1248" y2="740" gradientUnits="userSpaceOnUse">
<stop stop-color="#00EEFF"/>
<stop offset="1" stop-color="#008F99"/>
</linearGradient>
<linearGradient id="paint76_linear_372_351" x1="1232" y1="664" x2="1232" y2="816" gradientUnits="userSpaceOnUse">
<stop stop-color="white"/>
<stop offset="1" stop-color="#00E5FF"/>
</linearGradient>
<linearGradient id="paint77_linear_372_351" x1="1248" y1="746" x2="1280" y2="746" gradientUnits="userSpaceOnUse">
<stop stop-color="#00EEFF"/>
<stop offset="1" stop-color="#008F99"/>
</linearGradient>
<linearGradient id="paint78_linear_372_351" x1="1264" y1="676" x2="1264" y2="816" gradientUnits="userSpaceOnUse">
<stop stop-color="white"/>
<stop offset="1" stop-color="#00E5FF"/>
</linearGradient>
<linearGradient id="paint79_linear_372_351" x1="1280" y1="751" x2="1312" y2="751" gradientUnits="userSpaceOnUse">
<stop stop-color="#00EEFF"/>
<stop offset="1" stop-color="#008F99"/>
</linearGradient>
<linearGradient id="paint80_linear_372_351" x1="1296" y1="686" x2="1296" y2="816" gradientUnits="userSpaceOnUse">
<stop stop-color="white"/>
<stop offset="1" stop-color="#00E5FF"/>
</linearGradient>
<linearGradient id="paint81_linear_372_351" x1="1312" y1="746" x2="1344" y2="746" gradientUnits="userSpaceOnUse">
<stop stop-color="#00EEFF"/>
<stop offset="1" stop-color="#008F99"/>
</linearGradient>
<linearGradient id="paint82_linear_372_351" x1="1328" y1="676" x2="1328" y2="816" gradientUnits="userSpaceOnUse">
<stop stop-color="white"/>
<stop offset="1" stop-color="#00E5FF"/>
</linearGradient>
<linearGradient id="paint83_linear_372_351" x1="1344" y1="727" x2="1376" y2="727" gradientUnits="userSpaceOnUse">
<stop stop-color="#00EEFF"/>
<stop offset="1" stop-color="#008F99"/>
</linearGradient>
<linearGradient id="paint84_linear_372_351" x1="1360" y1="638" x2="1360" y2="816" gradientUnits="userSpaceOnUse">
<stop stop-color="white"/>
<stop offset="1" stop-color="#00E5FF"/>
</linearGradient>
<linearGradient id="paint85_linear_372_351" x1="1376" y1="703.5" x2="1408" y2="703.5" gradientUnits="userSpaceOnUse">
<stop stop-color="#00EEFF"/>
<stop offset="1" stop-color="#008F99"/>
</linearGradient>
<linearGradient id="paint86_linear_372_351" x1="1392" y1="591" x2="1392" y2="816" gradientUnits="userSpaceOnUse">
<stop stop-color="white"/>
<stop offset="1" stop-color="#00E5FF"/>
</linearGradient>
<linearGradient id="paint87_linear_372_351" x1="1408" y1="720.5" x2="1440" y2="720.5" gradientUnits="userSpaceOnUse">
<stop stop-color="#00EEFF"/>
<stop offset="1" stop-color="#008F99"/>
</linearGradient>
<linearGradient id="paint88_linear_372_351" x1="1424" y1="625" x2="1424" y2="816" gradientUnits="userSpaceOnUse">
<stop stop-color="white"/>
<stop offset="1" stop-color="#00E5FF"/>
</linearGradient>
</defs>
</svg>
