<svg width="1360" height="622" viewBox="0 0 1360 622" fill="none" xmlns="http://www.w3.org/2000/svg">
<g filter="url(#filter0_g_372_348)">
<path d="M492.177 275.686L490.718 274.318L491.469 273.518L492.547 273.721L492.177 275.686ZM773.517 382.478L775.002 383.818L773.871 385.072L772.445 384.167L773.517 382.478ZM1242.62 9.08078C1243.7 8.86992 1244.75 9.57794 1244.96 10.6622L1248.4 28.3312C1248.61 29.4154 1247.9 30.4653 1246.82 30.6762C1245.73 30.887 1244.68 30.179 1244.47 29.0948L1241.42 13.389L1225.71 16.4435C1224.63 16.6543 1223.58 15.9463 1223.37 14.8621C1223.16 13.7778 1223.86 12.7279 1224.95 12.517L1242.62 9.08078ZM652.943 305.934L653.312 303.968L653.69 304.039L654.014 304.245L652.943 305.934ZM989 182.044L987.752 180.481L988.935 179.537L990.165 180.418L989 182.044ZM1082.5 249.044L1084.16 250.162L1083.01 251.868L1081.34 250.67L1082.5 249.044ZM865 281.044L863.515 279.705L863.624 279.583L863.752 279.481L865 281.044ZM339.5 438.478L340.959 439.846L340.172 440.685L339.051 440.427L339.5 438.478ZM246.5 417.044L244.854 415.907L245.626 414.79L246.949 415.095L246.5 417.044ZM156 548.044L157.646 549.181L157.303 549.676L156.744 549.901L156 548.044ZM492.177 275.686L492.547 273.721L653.312 303.968L652.943 305.934L652.573 307.899L491.807 277.652L492.177 275.686ZM652.943 305.934L654.014 304.245L774.589 380.79L773.517 382.478L772.445 384.167L651.871 307.622L652.943 305.934ZM989 182.044L990.165 180.418L1083.66 247.418L1082.5 249.044L1081.34 250.67L987.835 183.67L989 182.044ZM1082.5 249.044L1080.84 247.926L1241.34 9.92577L1243 11.044L1244.66 12.1622L1084.16 250.162L1082.5 249.044ZM773.517 382.478L772.032 381.139L863.515 279.705L865 281.044L866.485 282.383L775.002 383.818L773.517 382.478ZM865 281.044L863.752 279.481L987.752 180.481L989 182.044L990.248 183.607L866.248 282.607L865 281.044ZM339.5 438.478L338.041 437.11L490.718 274.318L492.177 275.686L493.636 277.054L340.959 439.846L339.5 438.478ZM246.5 417.044L246.949 415.095L339.949 436.529L339.5 438.478L339.051 440.427L246.051 418.993L246.5 417.044ZM156 548.044L154.354 546.907L244.854 415.907L246.5 417.044L248.146 418.181L157.646 549.181L156 548.044ZM0 610.544L-0.743807 608.687L155.256 546.187L156 548.044L156.744 549.901L0.743807 612.401L0 610.544Z" fill="#00EEFF"/>
</g>
<g filter="url(#filter1_g_372_348)">
<path d="M1295.96 35.992C1293.72 35.992 1291.76 35.6507 1290.08 34.968C1288.39 34.264 1287.06 33.2933 1286.08 32.056C1285.12 30.7973 1284.6 29.3573 1284.54 27.736H1288.7C1288.87 29.2507 1289.6 30.456 1290.88 31.352C1292.16 32.248 1293.87 32.696 1296.03 32.696C1298.12 32.696 1299.7 32.344 1300.76 31.64C1301.83 30.936 1302.36 30.0293 1302.36 28.92C1302.36 28.28 1302.19 27.7253 1301.85 27.256C1301.53 26.7867 1300.97 26.392 1300.16 26.072C1299.35 25.752 1298.22 25.5173 1296.76 25.368L1293.56 25.048C1290.68 24.7493 1288.53 24.024 1287.1 22.872C1285.69 21.72 1284.99 20.1733 1284.99 18.232C1284.99 16.8027 1285.4 15.5547 1286.24 14.488C1287.09 13.4213 1288.28 12.5893 1289.82 11.992C1291.36 11.3947 1293.18 11.096 1295.29 11.096C1297.4 11.096 1299.24 11.416 1300.8 12.056C1302.38 12.696 1303.61 13.592 1304.51 14.744C1305.4 15.896 1305.9 17.2293 1305.98 18.744H1301.85C1301.7 17.4853 1301.08 16.4507 1300 15.64C1298.91 14.808 1297.32 14.392 1295.23 14.392C1293.22 14.392 1291.71 14.744 1290.68 15.448C1289.66 16.1307 1289.15 17.0267 1289.15 18.136C1289.15 18.6907 1289.3 19.192 1289.6 19.64C1289.92 20.0667 1290.45 20.4293 1291.2 20.728C1291.94 21.0053 1292.96 21.208 1294.24 21.336L1297.6 21.656C1299.77 21.848 1301.51 22.2427 1302.81 22.84C1304.14 23.4373 1305.08 24.216 1305.66 25.176C1306.26 26.1147 1306.56 27.2453 1306.56 28.568C1306.56 29.9973 1306.13 31.2773 1305.28 32.408C1304.42 33.5173 1303.21 34.392 1301.63 35.032C1300.05 35.672 1298.16 35.992 1295.96 35.992ZM1297.15 8.92V38.168H1293.92V8.92H1297.15ZM1317.87 35.992C1315.63 35.992 1313.67 35.6507 1311.99 34.968C1310.3 34.264 1308.97 33.2933 1307.99 32.056C1307.03 30.7973 1306.51 29.3573 1306.45 27.736H1310.61C1310.78 29.2507 1311.51 30.456 1312.79 31.352C1314.07 32.248 1315.78 32.696 1317.94 32.696C1320.03 32.696 1321.61 32.344 1322.67 31.64C1323.74 30.936 1324.27 30.0293 1324.27 28.92C1324.27 28.28 1324.1 27.7253 1323.76 27.256C1323.44 26.7867 1322.88 26.392 1322.07 26.072C1321.25 25.752 1320.12 25.5173 1318.67 25.368L1315.47 25.048C1312.59 24.7493 1310.44 24.024 1309.01 22.872C1307.6 21.72 1306.9 20.1733 1306.9 18.232C1306.9 16.8027 1307.31 15.5547 1308.15 14.488C1309 13.4213 1310.19 12.5893 1311.73 11.992C1313.27 11.3947 1315.09 11.096 1317.2 11.096C1319.31 11.096 1321.15 11.416 1322.71 12.056C1324.28 12.696 1325.52 13.592 1326.42 14.744C1327.31 15.896 1327.8 17.2293 1327.89 18.744H1323.76C1323.61 17.4853 1322.99 16.4507 1321.91 15.64C1320.82 14.808 1319.23 14.392 1317.14 14.392C1315.13 14.392 1313.62 14.744 1312.59 15.448C1311.57 16.1307 1311.06 17.0267 1311.06 18.136C1311.06 18.6907 1311.21 19.192 1311.51 19.64C1311.83 20.0667 1312.36 20.4293 1313.11 20.728C1313.85 21.0053 1314.87 21.208 1316.15 21.336L1319.51 21.656C1321.68 21.848 1323.42 22.2427 1324.72 22.84C1326.04 23.4373 1326.99 24.216 1327.57 25.176C1328.17 26.1147 1328.47 27.2453 1328.47 28.568C1328.47 29.9973 1328.04 31.2773 1327.19 32.408C1326.33 33.5173 1325.12 34.392 1323.54 35.032C1321.96 35.672 1320.07 35.992 1317.87 35.992ZM1319.06 8.92V38.168H1315.83V8.92H1319.06ZM1339.78 35.992C1337.54 35.992 1335.58 35.6507 1333.89 34.968C1332.21 34.264 1330.88 33.2933 1329.89 32.056C1328.93 30.7973 1328.42 29.3573 1328.36 27.736H1332.52C1332.69 29.2507 1333.41 30.456 1334.69 31.352C1335.97 32.248 1337.69 32.696 1339.85 32.696C1341.94 32.696 1343.52 32.344 1344.58 31.64C1345.65 30.936 1346.18 30.0293 1346.18 28.92C1346.18 28.28 1346.01 27.7253 1345.67 27.256C1345.35 26.7867 1344.79 26.392 1343.97 26.072C1343.16 25.752 1342.03 25.5173 1340.58 25.368L1337.38 25.048C1334.5 24.7493 1332.35 24.024 1330.92 22.872C1329.51 21.72 1328.81 20.1733 1328.81 18.232C1328.81 16.8027 1329.22 15.5547 1330.05 14.488C1330.91 13.4213 1332.1 12.5893 1333.64 11.992C1335.17 11.3947 1337 11.096 1339.11 11.096C1341.22 11.096 1343.06 11.416 1344.61 12.056C1346.19 12.696 1347.43 13.592 1348.33 14.744C1349.22 15.896 1349.71 17.2293 1349.8 18.744H1345.67C1345.52 17.4853 1344.9 16.4507 1343.81 15.64C1342.73 14.808 1341.14 14.392 1339.05 14.392C1337.04 14.392 1335.53 14.744 1334.5 15.448C1333.48 16.1307 1332.97 17.0267 1332.97 18.136C1332.97 18.6907 1333.12 19.192 1333.41 19.64C1333.73 20.0667 1334.27 20.4293 1335.01 20.728C1335.76 21.0053 1336.77 21.208 1338.05 21.336L1341.41 21.656C1343.59 21.848 1345.33 22.2427 1346.63 22.84C1347.95 23.4373 1348.9 24.216 1349.48 25.176C1350.08 26.1147 1350.37 27.2453 1350.37 28.568C1350.37 29.9973 1349.95 31.2773 1349.09 32.408C1348.24 33.5173 1347.03 34.392 1345.45 35.032C1343.87 35.672 1341.98 35.992 1339.78 35.992ZM1340.97 8.92V38.168H1337.73V8.92H1340.97Z" fill="#00EEFF"/>
</g>
<defs>
<filter id="filter0_g_372_348" x="-9.66384" y="0.123625" width="1267.02" height="621.197" filterUnits="userSpaceOnUse" color-interpolation-filters="sRGB">
<feFlood flood-opacity="0" result="BackgroundImageFix"/>
<feBlend mode="normal" in="SourceGraphic" in2="BackgroundImageFix" result="shape"/>
<feTurbulence type="fractalNoise" baseFrequency="2 2" numOctaves="3" seed="5448" />
<feDisplacementMap in="shape" scale="17.840000152587891" xChannelSelector="R" yChannelSelector="G" result="displacedImage" width="100%" height="100%" />
<feMerge result="effect1_texture_372_348">
<feMergeNode in="displacedImage"/>
</feMerge>
</filter>
<filter id="filter1_g_372_348" x="1275.62" y="-1.90735e-06" width="83.6735" height="47.088" filterUnits="userSpaceOnUse" color-interpolation-filters="sRGB">
<feFlood flood-opacity="0" result="BackgroundImageFix"/>
<feBlend mode="normal" in="SourceGraphic" in2="BackgroundImageFix" result="shape"/>
<feTurbulence type="fractalNoise" baseFrequency="2 2" numOctaves="3" seed="5448" />
<feDisplacementMap in="shape" scale="17.840000152587891" xChannelSelector="R" yChannelSelector="G" result="displacedImage" width="100%" height="100%" />
<feMerge result="effect1_texture_372_348">
<feMergeNode in="displacedImage"/>
</feMerge>
</filter>
</defs>
</svg>
