<svg width="151" height="360" viewBox="0 0 151 360" fill="none" xmlns="http://www.w3.org/2000/svg">
<g filter="url(#filter0_g_372_345)">
<path d="M8 43L25 8L42 43H34V352H16V43H8Z" fill="url(#paint0_linear_372_345)"/>
</g>
<g filter="url(#filter1_g_372_345)">
<path d="M50.576 67.064H53.952C54.0053 67.3947 54.16 67.6827 54.416 67.928C54.672 68.1733 55.0133 68.3653 55.44 68.504C55.8773 68.632 56.3893 68.696 56.976 68.696C57.7867 68.696 58.4267 68.5947 58.896 68.392C59.3653 68.1787 59.6 67.8693 59.6 67.464C59.6 67.1547 59.4667 66.9147 59.2 66.744C58.9333 66.5733 58.4213 66.4507 57.664 66.376L55.424 66.168C53.7707 66.0187 52.5707 65.6453 51.824 65.048C51.0773 64.44 50.704 63.624 50.704 62.6C50.704 61.768 50.944 61.064 51.424 60.488C51.9147 59.912 52.5973 59.48 53.472 59.192C54.3573 58.8933 55.3867 58.744 56.56 58.744C57.712 58.744 58.736 58.9093 59.632 59.24C60.528 59.56 61.2373 60.0187 61.76 60.616C62.2933 61.2133 62.5813 61.9067 62.624 62.696H59.264C59.2213 62.408 59.0827 62.1627 58.848 61.96C58.624 61.7467 58.3147 61.5867 57.92 61.48C57.5253 61.3627 57.0507 61.304 56.496 61.304C55.7493 61.304 55.1573 61.4053 54.72 61.608C54.2827 61.8 54.064 62.088 54.064 62.472C54.064 62.7493 54.192 62.9733 54.448 63.144C54.7147 63.3147 55.1893 63.432 55.872 63.496L58.256 63.736C59.3973 63.8427 60.3093 64.0293 60.992 64.296C61.6747 64.552 62.1707 64.9093 62.48 65.368C62.7893 65.8267 62.944 66.3973 62.944 67.08C62.944 67.9227 62.6933 68.6587 62.192 69.288C61.6907 69.9067 60.9867 70.392 60.08 70.744C59.1733 71.0853 58.1173 71.256 56.912 71.256C55.6747 71.256 54.5813 71.0853 53.632 70.744C52.6933 70.392 51.9573 69.9013 51.424 69.272C50.8907 68.632 50.608 67.896 50.576 67.064ZM66.6625 60.456H69.9905V71H66.6625V60.456ZM62.0865 59H74.5665V61.944H62.0865V59ZM77.0043 64.248H81.3723C81.9056 64.248 82.3216 64.1253 82.6203 63.88C82.9189 63.6347 83.0683 63.2933 83.0683 62.856C83.0683 62.408 82.9189 62.0667 82.6203 61.832C82.3216 61.5867 81.9056 61.464 81.3723 61.464H76.5403L78.0283 59.88V71H74.7163V59H81.8363C82.7536 59 83.5536 59.1653 84.2363 59.496C84.9189 59.816 85.4523 60.264 85.8363 60.84C86.2203 61.4053 86.4123 62.0773 86.4123 62.856C86.4123 63.6133 86.2203 64.28 85.8363 64.856C85.4523 65.432 84.9189 65.88 84.2363 66.2C83.5536 66.52 82.7536 66.68 81.8363 66.68H77.0043V64.248ZM78.7963 65.384H82.5243L86.8283 71H82.9883L78.7963 65.384ZM97.286 63.8V66.2H88.502V63.8H97.286ZM90.758 65L89.974 69.816L88.63 68.312H97.814V71H86.662L87.574 65L86.662 59H97.734V61.688H88.63L89.974 60.184L90.758 65ZM100.57 68.696V66.024H108.842V68.696H100.57ZM106.954 59L112.41 71H108.874L104.298 60.408H105.258L100.666 71H97.1304L102.586 59H106.954ZM129.803 59V71H126.651V60.184L127.355 60.264L122.715 71H119.355L114.699 60.296L115.419 60.216V71H112.267V59H117.387L121.691 69.304H120.411L124.683 59H129.803ZM130.224 67.064H133.6C133.653 67.3947 133.808 67.6827 134.064 67.928C134.32 68.1733 134.661 68.3653 135.088 68.504C135.525 68.632 136.037 68.696 136.624 68.696C137.435 68.696 138.075 68.5947 138.544 68.392C139.013 68.1787 139.248 67.8693 139.248 67.464C139.248 67.1547 139.115 66.9147 138.848 66.744C138.581 66.5733 138.069 66.4507 137.312 66.376L135.072 66.168C133.419 66.0187 132.219 65.6453 131.472 65.048C130.725 64.44 130.352 63.624 130.352 62.6C130.352 61.768 130.592 61.064 131.072 60.488C131.563 59.912 132.245 59.48 133.12 59.192C134.005 58.8933 135.035 58.744 136.208 58.744C137.36 58.744 138.384 58.9093 139.28 59.24C140.176 59.56 140.885 60.0187 141.408 60.616C141.941 61.2133 142.229 61.9067 142.272 62.696H138.912C138.869 62.408 138.731 62.1627 138.496 61.96C138.272 61.7467 137.963 61.5867 137.568 61.48C137.173 61.3627 136.699 61.304 136.144 61.304C135.397 61.304 134.805 61.4053 134.368 61.608C133.931 61.8 133.712 62.088 133.712 62.472C133.712 62.7493 133.84 62.9733 134.096 63.144C134.363 63.3147 134.837 63.432 135.52 63.496L137.904 63.736C139.045 63.8427 139.957 64.0293 140.64 64.296C141.323 64.552 141.819 64.9093 142.128 65.368C142.437 65.8267 142.592 66.3973 142.592 67.08C142.592 67.9227 142.341 68.6587 141.84 69.288C141.339 69.9067 140.635 70.392 139.728 70.744C138.821 71.0853 137.765 71.256 136.56 71.256C135.323 71.256 134.229 71.0853 133.28 70.744C132.341 70.392 131.605 69.9013 131.072 69.272C130.539 68.632 130.256 67.896 130.224 67.064ZM50.576 83.064H53.952C54.0053 83.3947 54.16 83.6827 54.416 83.928C54.672 84.1733 55.0133 84.3653 55.44 84.504C55.8773 84.632 56.3893 84.696 56.976 84.696C57.7867 84.696 58.4267 84.5947 58.896 84.392C59.3653 84.1787 59.6 83.8693 59.6 83.464C59.6 83.1547 59.4667 82.9147 59.2 82.744C58.9333 82.5733 58.4213 82.4507 57.664 82.376L55.424 82.168C53.7707 82.0187 52.5707 81.6453 51.824 81.048C51.0773 80.44 50.704 79.624 50.704 78.6C50.704 77.768 50.944 77.064 51.424 76.488C51.9147 75.912 52.5973 75.48 53.472 75.192C54.3573 74.8933 55.3867 74.744 56.56 74.744C57.712 74.744 58.736 74.9093 59.632 75.24C60.528 75.56 61.2373 76.0187 61.76 76.616C62.2933 77.2133 62.5813 77.9067 62.624 78.696H59.264C59.2213 78.408 59.0827 78.1627 58.848 77.96C58.624 77.7467 58.3147 77.5867 57.92 77.48C57.5253 77.3627 57.0507 77.304 56.496 77.304C55.7493 77.304 55.1573 77.4053 54.72 77.608C54.2827 77.8 54.064 78.088 54.064 78.472C54.064 78.7493 54.192 78.9733 54.448 79.144C54.7147 79.3147 55.1893 79.432 55.872 79.496L58.256 79.736C59.3973 79.8427 60.3093 80.0293 60.992 80.296C61.6747 80.552 62.1707 80.9093 62.48 81.368C62.7893 81.8267 62.944 82.3973 62.944 83.08C62.944 83.9227 62.6933 84.6587 62.192 85.288C61.6907 85.9067 60.9867 86.392 60.08 86.744C59.1733 87.0853 58.1173 87.256 56.912 87.256C55.6747 87.256 54.5813 87.0853 53.632 86.744C52.6933 86.392 51.9573 85.9013 51.424 85.272C50.8907 84.632 50.608 83.896 50.576 83.064ZM66.6625 76.456H69.9905V87H66.6625V76.456ZM62.0865 75H74.5665V77.944H62.0865V75ZM77.0043 80.248H81.3723C81.9056 80.248 82.3216 80.1253 82.6203 79.88C82.9189 79.6347 83.0683 79.2933 83.0683 78.856C83.0683 78.408 82.9189 78.0667 82.6203 77.832C82.3216 77.5867 81.9056 77.464 81.3723 77.464H76.5403L78.0283 75.88V87H74.7163V75H81.8363C82.7536 75 83.5536 75.1653 84.2363 75.496C84.9189 75.816 85.4523 76.264 85.8363 76.84C86.2203 77.4053 86.4123 78.0773 86.4123 78.856C86.4123 79.6133 86.2203 80.28 85.8363 80.856C85.4523 81.432 84.9189 81.88 84.2363 82.2C83.5536 82.52 82.7536 82.68 81.8363 82.68H77.0043V80.248ZM78.7963 81.384H82.5243L86.8283 87H82.9883L78.7963 81.384ZM97.286 79.8V82.2H88.502V79.8H97.286ZM90.758 81L89.974 85.816L88.63 84.312H97.814V87H86.662L87.574 81L86.662 75H97.734V77.688H88.63L89.974 76.184L90.758 81ZM100.57 84.696V82.024H108.842V84.696H100.57ZM106.954 75L112.41 87H108.874L104.298 76.408H105.258L100.666 87H97.1304L102.586 75H106.954ZM129.803 75V87H126.651V76.184L127.355 76.264L122.715 87H119.355L114.699 76.296L115.419 76.216V87H112.267V75H117.387L121.691 85.304H120.411L124.683 75H129.803ZM130.224 83.064H133.6C133.653 83.3947 133.808 83.6827 134.064 83.928C134.32 84.1733 134.661 84.3653 135.088 84.504C135.525 84.632 136.037 84.696 136.624 84.696C137.435 84.696 138.075 84.5947 138.544 84.392C139.013 84.1787 139.248 83.8693 139.248 83.464C139.248 83.1547 139.115 82.9147 138.848 82.744C138.581 82.5733 138.069 82.4507 137.312 82.376L135.072 82.168C133.419 82.0187 132.219 81.6453 131.472 81.048C130.725 80.44 130.352 79.624 130.352 78.6C130.352 77.768 130.592 77.064 131.072 76.488C131.563 75.912 132.245 75.48 133.12 75.192C134.005 74.8933 135.035 74.744 136.208 74.744C137.36 74.744 138.384 74.9093 139.28 75.24C140.176 75.56 140.885 76.0187 141.408 76.616C141.941 77.2133 142.229 77.9067 142.272 78.696H138.912C138.869 78.408 138.731 78.1627 138.496 77.96C138.272 77.7467 137.963 77.5867 137.568 77.48C137.173 77.3627 136.699 77.304 136.144 77.304C135.397 77.304 134.805 77.4053 134.368 77.608C133.931 77.8 133.712 78.088 133.712 78.472C133.712 78.7493 133.84 78.9733 134.096 79.144C134.363 79.3147 134.837 79.432 135.52 79.496L137.904 79.736C139.045 79.8427 139.957 80.0293 140.64 80.296C141.323 80.552 141.819 80.9093 142.128 81.368C142.437 81.8267 142.592 82.3973 142.592 83.08C142.592 83.9227 142.341 84.6587 141.84 85.288C141.339 85.9067 140.635 86.392 139.728 86.744C138.821 87.0853 137.765 87.256 136.56 87.256C135.323 87.256 134.229 87.0853 133.28 86.744C132.341 86.392 131.605 85.9013 131.072 85.272C130.539 84.632 130.256 83.896 130.224 83.064ZM50.576 99.064H53.952C54.0053 99.3947 54.16 99.6827 54.416 99.928C54.672 100.173 55.0133 100.365 55.44 100.504C55.8773 100.632 56.3893 100.696 56.976 100.696C57.7867 100.696 58.4267 100.595 58.896 100.392C59.3653 100.179 59.6 99.8693 59.6 99.464C59.6 99.1547 59.4667 98.9147 59.2 98.744C58.9333 98.5733 58.4213 98.4507 57.664 98.376L55.424 98.168C53.7707 98.0187 52.5707 97.6453 51.824 97.048C51.0773 96.44 50.704 95.624 50.704 94.6C50.704 93.768 50.944 93.064 51.424 92.488C51.9147 91.912 52.5973 91.48 53.472 91.192C54.3573 90.8933 55.3867 90.744 56.56 90.744C57.712 90.744 58.736 90.9093 59.632 91.24C60.528 91.56 61.2373 92.0187 61.76 92.616C62.2933 93.2133 62.5813 93.9067 62.624 94.696H59.264C59.2213 94.408 59.0827 94.1627 58.848 93.96C58.624 93.7467 58.3147 93.5867 57.92 93.48C57.5253 93.3627 57.0507 93.304 56.496 93.304C55.7493 93.304 55.1573 93.4053 54.72 93.608C54.2827 93.8 54.064 94.088 54.064 94.472C54.064 94.7493 54.192 94.9733 54.448 95.144C54.7147 95.3147 55.1893 95.432 55.872 95.496L58.256 95.736C59.3973 95.8427 60.3093 96.0293 60.992 96.296C61.6747 96.552 62.1707 96.9093 62.48 97.368C62.7893 97.8267 62.944 98.3973 62.944 99.08C62.944 99.9227 62.6933 100.659 62.192 101.288C61.6907 101.907 60.9867 102.392 60.08 102.744C59.1733 103.085 58.1173 103.256 56.912 103.256C55.6747 103.256 54.5813 103.085 53.632 102.744C52.6933 102.392 51.9573 101.901 51.424 101.272C50.8907 100.632 50.608 99.896 50.576 99.064ZM66.6625 92.456H69.9905V103H66.6625V92.456ZM62.0865 91H74.5665V93.944H62.0865V91ZM77.0043 96.248H81.3723C81.9056 96.248 82.3216 96.1253 82.6203 95.88C82.9189 95.6347 83.0683 95.2933 83.0683 94.856C83.0683 94.408 82.9189 94.0667 82.6203 93.832C82.3216 93.5867 81.9056 93.464 81.3723 93.464H76.5403L78.0283 91.88V103H74.7163V91H81.8363C82.7536 91 83.5536 91.1653 84.2363 91.496C84.9189 91.816 85.4523 92.264 85.8363 92.84C86.2203 93.4053 86.4123 94.0773 86.4123 94.856C86.4123 95.6133 86.2203 96.28 85.8363 96.856C85.4523 97.432 84.9189 97.88 84.2363 98.2C83.5536 98.52 82.7536 98.68 81.8363 98.68H77.0043V96.248ZM78.7963 97.384H82.5243L86.8283 103H82.9883L78.7963 97.384ZM97.286 95.8V98.2H88.502V95.8H97.286ZM90.758 97L89.974 101.816L88.63 100.312H97.814V103H86.662L87.574 97L86.662 91H97.734V93.688H88.63L89.974 92.184L90.758 97ZM100.57 100.696V98.024H108.842V100.696H100.57ZM106.954 91L112.41 103H108.874L104.298 92.408H105.258L100.666 103H97.1304L102.586 91H106.954ZM129.803 91V103H126.651V92.184L127.355 92.264L122.715 103H119.355L114.699 92.296L115.419 92.216V103H112.267V91H117.387L121.691 101.304H120.411L124.683 91H129.803ZM130.224 99.064H133.6C133.653 99.3947 133.808 99.6827 134.064 99.928C134.32 100.173 134.661 100.365 135.088 100.504C135.525 100.632 136.037 100.696 136.624 100.696C137.435 100.696 138.075 100.595 138.544 100.392C139.013 100.179 139.248 99.8693 139.248 99.464C139.248 99.1547 139.115 98.9147 138.848 98.744C138.581 98.5733 138.069 98.4507 137.312 98.376L135.072 98.168C133.419 98.0187 132.219 97.6453 131.472 97.048C130.725 96.44 130.352 95.624 130.352 94.6C130.352 93.768 130.592 93.064 131.072 92.488C131.563 91.912 132.245 91.48 133.12 91.192C134.005 90.8933 135.035 90.744 136.208 90.744C137.36 90.744 138.384 90.9093 139.28 91.24C140.176 91.56 140.885 92.0187 141.408 92.616C141.941 93.2133 142.229 93.9067 142.272 94.696H138.912C138.869 94.408 138.731 94.1627 138.496 93.96C138.272 93.7467 137.963 93.5867 137.568 93.48C137.173 93.3627 136.699 93.304 136.144 93.304C135.397 93.304 134.805 93.4053 134.368 93.608C133.931 93.8 133.712 94.088 133.712 94.472C133.712 94.7493 133.84 94.9733 134.096 95.144C134.363 95.3147 134.837 95.432 135.52 95.496L137.904 95.736C139.045 95.8427 139.957 96.0293 140.64 96.296C141.323 96.552 141.819 96.9093 142.128 97.368C142.437 97.8267 142.592 98.3973 142.592 99.08C142.592 99.9227 142.341 100.659 141.84 101.288C141.339 101.907 140.635 102.392 139.728 102.744C138.821 103.085 137.765 103.256 136.56 103.256C135.323 103.256 134.229 103.085 133.28 102.744C132.341 102.392 131.605 101.901 131.072 101.272C130.539 100.632 130.256 99.896 130.224 99.064Z" fill="#00EEFF"/>
</g>
<defs>
<filter id="filter0_g_372_345" x="0" y="0" width="50" height="360" filterUnits="userSpaceOnUse" color-interpolation-filters="sRGB">
<feFlood flood-opacity="0" result="BackgroundImageFix"/>
<feBlend mode="normal" in="SourceGraphic" in2="BackgroundImageFix" result="shape"/>
<feTurbulence type="fractalNoise" baseFrequency="2 2" numOctaves="3" seed="5448" />
<feDisplacementMap in="shape" scale="16" xChannelSelector="R" yChannelSelector="G" result="displacedImage" width="100%" height="100%" />
<feMerge result="effect1_texture_372_345">
<feMergeNode in="displacedImage"/>
</feMerge>
</filter>
<filter id="filter1_g_372_345" x="42.576" y="50.744" width="108.016" height="60.512" filterUnits="userSpaceOnUse" color-interpolation-filters="sRGB">
<feFlood flood-opacity="0" result="BackgroundImageFix"/>
<feBlend mode="normal" in="SourceGraphic" in2="BackgroundImageFix" result="shape"/>
<feTurbulence type="fractalNoise" baseFrequency="2 2" numOctaves="3" seed="5448" />
<feDisplacementMap in="shape" scale="16" xChannelSelector="R" yChannelSelector="G" result="displacedImage" width="100%" height="100%" />
<feMerge result="effect1_texture_372_345">
<feMergeNode in="displacedImage"/>
</feMerge>
</filter>
<linearGradient id="paint0_linear_372_345" x1="25" y1="5.3062e-06" x2="25" y2="528" gradientUnits="userSpaceOnUse">
<stop stop-color="#00EEFF"/>
<stop offset="1" stop-color="white"/>
</linearGradient>
</defs>
</svg>
