<svg width="152" height="585" viewBox="0 0 152 585" fill="none" xmlns="http://www.w3.org/2000/svg">
<g filter="url(#filter0_g_372_342)">
<path d="M108.519 43.92L125.519 8.92001L142.519 43.92H134.519V528.92L116.519 610.42V43.92H108.519Z" fill="url(#paint0_linear_372_342)"/>
</g>
<g filter="url(#filter1_g_372_342)">
<path d="M20.704 68.12H18.904L26.248 51.92H30.568L22.024 69.92H17.44L8.91998 51.92H13.288L20.704 68.12ZM30.5957 51.92H34.6757V69.92H30.5957V51.92ZM51.3135 59.36V62.48H38.4255V59.36H51.3135ZM41.1615 60.92L39.9615 68.552L38.1855 66.536H52.0575V69.92H35.8575L37.2495 60.92L35.8575 51.92H51.9375V55.304H38.1855L39.9615 53.288L41.1615 60.92ZM75.1326 68.264H73.7406L78.7566 51.92H83.0286L77.2446 69.92H72.0366L66.3726 53.984H68.1486L62.4846 69.92H57.2766L51.4926 51.92H55.8126L60.7806 68.264L59.4366 68.24L65.1006 51.92H69.4446L75.1326 68.264ZM81.6492 64.04H85.7772C85.8732 64.648 86.1372 65.184 86.5692 65.648C87.0172 66.096 87.6092 66.448 88.3452 66.704C89.0972 66.944 89.9612 67.064 90.9372 67.064C92.3612 67.064 93.4812 66.864 94.2972 66.464C95.1292 66.048 95.5452 65.472 95.5452 64.736C95.5452 64.16 95.3052 63.72 94.8252 63.416C94.3612 63.096 93.4892 62.864 92.2092 62.72L88.5852 62.312C86.2492 62.056 84.5532 61.512 83.4972 60.68C82.4572 59.832 81.9372 58.656 81.9372 57.152C81.9372 55.968 82.2812 54.96 82.9692 54.128C83.6732 53.296 84.6572 52.664 85.9212 52.232C87.1852 51.784 88.6732 51.56 90.3852 51.56C92.0492 51.56 93.5292 51.808 94.8252 52.304C96.1212 52.784 97.1532 53.464 97.9212 54.344C98.6892 55.208 99.1052 56.224 99.1692 57.392H95.0412C94.9612 56.864 94.7212 56.408 94.3212 56.024C93.9372 55.624 93.4012 55.32 92.7132 55.112C92.0252 54.888 91.2172 54.776 90.2892 54.776C88.9932 54.776 87.9612 54.968 87.1932 55.352C86.4252 55.736 86.0412 56.28 86.0412 56.984C86.0412 57.528 86.2652 57.952 86.7132 58.256C87.1772 58.544 87.9852 58.76 89.1372 58.904L92.9052 59.36C94.5692 59.536 95.8892 59.824 96.8652 60.224C97.8572 60.608 98.5612 61.128 98.9772 61.784C99.4092 62.44 99.6252 63.272 99.6252 64.28C99.6252 65.48 99.2572 66.536 98.5212 67.448C97.8012 68.344 96.7852 69.04 95.4732 69.536C94.1612 70.032 92.6252 70.28 90.8652 70.28C89.0732 70.28 87.4972 70.024 86.1372 69.512C84.7772 68.984 83.7052 68.256 82.9212 67.328C82.1372 66.384 81.7132 65.288 81.6492 64.04ZM20.704 92.12H18.904L26.248 75.92H30.568L22.024 93.92H17.44L8.91998 75.92H13.288L20.704 92.12ZM30.5957 75.92H34.6757V93.92H30.5957V75.92ZM51.3135 83.36V86.48H38.4255V83.36H51.3135ZM41.1615 84.92L39.9615 92.552L38.1855 90.536H52.0575V93.92H35.8575L37.2495 84.92L35.8575 75.92H51.9375V79.304H38.1855L39.9615 77.288L41.1615 84.92ZM75.1326 92.264H73.7406L78.7566 75.92H83.0286L77.2446 93.92H72.0366L66.3726 77.984H68.1486L62.4846 93.92H57.2766L51.4926 75.92H55.8126L60.7806 92.264L59.4366 92.24L65.1006 75.92H69.4446L75.1326 92.264ZM81.6492 88.04H85.7772C85.8732 88.648 86.1372 89.184 86.5692 89.648C87.0172 90.096 87.6092 90.448 88.3452 90.704C89.0972 90.944 89.9612 91.064 90.9372 91.064C92.3612 91.064 93.4812 90.864 94.2972 90.464C95.1292 90.048 95.5452 89.472 95.5452 88.736C95.5452 88.16 95.3052 87.72 94.8252 87.416C94.3612 87.096 93.4892 86.864 92.2092 86.72L88.5852 86.312C86.2492 86.056 84.5532 85.512 83.4972 84.68C82.4572 83.832 81.9372 82.656 81.9372 81.152C81.9372 79.968 82.2812 78.96 82.9692 78.128C83.6732 77.296 84.6572 76.664 85.9212 76.232C87.1852 75.784 88.6732 75.56 90.3852 75.56C92.0492 75.56 93.5292 75.808 94.8252 76.304C96.1212 76.784 97.1532 77.464 97.9212 78.344C98.6892 79.208 99.1052 80.224 99.1692 81.392H95.0412C94.9612 80.864 94.7212 80.408 94.3212 80.024C93.9372 79.624 93.4012 79.32 92.7132 79.112C92.0252 78.888 91.2172 78.776 90.2892 78.776C88.9932 78.776 87.9612 78.968 87.1932 79.352C86.4252 79.736 86.0412 80.28 86.0412 80.984C86.0412 81.528 86.2652 81.952 86.7132 82.256C87.1772 82.544 87.9852 82.76 89.1372 82.904L92.9052 83.36C94.5692 83.536 95.8892 83.824 96.8652 84.224C97.8572 84.608 98.5612 85.128 98.9772 85.784C99.4092 86.44 99.6252 87.272 99.6252 88.28C99.6252 89.48 99.2572 90.536 98.5212 91.448C97.8012 92.344 96.7852 93.04 95.4732 93.536C94.1612 94.032 92.6252 94.28 90.8652 94.28C89.0732 94.28 87.4972 94.024 86.1372 93.512C84.7772 92.984 83.7052 92.256 82.9212 91.328C82.1372 90.384 81.7132 89.288 81.6492 88.04ZM20.704 116.12H18.904L26.248 99.92H30.568L22.024 117.92H17.44L8.91998 99.92H13.288L20.704 116.12ZM30.5957 99.92H34.6757V117.92H30.5957V99.92ZM51.3135 107.36V110.48H38.4255V107.36H51.3135ZM41.1615 108.92L39.9615 116.552L38.1855 114.536H52.0575V117.92H35.8575L37.2495 108.92L35.8575 99.92H51.9375V103.304H38.1855L39.9615 101.288L41.1615 108.92ZM75.1326 116.264H73.7406L78.7566 99.92H83.0286L77.2446 117.92H72.0366L66.3726 101.984H68.1486L62.4846 117.92H57.2766L51.4926 99.92H55.8126L60.7806 116.264L59.4366 116.24L65.1006 99.92H69.4446L75.1326 116.264ZM81.6492 112.04H85.7772C85.8732 112.648 86.1372 113.184 86.5692 113.648C87.0172 114.096 87.6092 114.448 88.3452 114.704C89.0972 114.944 89.9612 115.064 90.9372 115.064C92.3612 115.064 93.4812 114.864 94.2972 114.464C95.1292 114.048 95.5452 113.472 95.5452 112.736C95.5452 112.16 95.3052 111.72 94.8252 111.416C94.3612 111.096 93.4892 110.864 92.2092 110.72L88.5852 110.312C86.2492 110.056 84.5532 109.512 83.4972 108.68C82.4572 107.832 81.9372 106.656 81.9372 105.152C81.9372 103.968 82.2812 102.96 82.9692 102.128C83.6732 101.296 84.6572 100.664 85.9212 100.232C87.1852 99.784 88.6732 99.56 90.3852 99.56C92.0492 99.56 93.5292 99.808 94.8252 100.304C96.1212 100.784 97.1532 101.464 97.9212 102.344C98.6892 103.208 99.1052 104.224 99.1692 105.392H95.0412C94.9612 104.864 94.7212 104.408 94.3212 104.024C93.9372 103.624 93.4012 103.32 92.7132 103.112C92.0252 102.888 91.2172 102.776 90.2892 102.776C88.9932 102.776 87.9612 102.968 87.1932 103.352C86.4252 103.736 86.0412 104.28 86.0412 104.984C86.0412 105.528 86.2652 105.952 86.7132 106.256C87.1772 106.544 87.9852 106.76 89.1372 106.904L92.9052 107.36C94.5692 107.536 95.8892 107.824 96.8652 108.224C97.8572 108.608 98.5612 109.128 98.9772 109.784C99.4092 110.44 99.6252 111.272 99.6252 112.28C99.6252 113.48 99.2572 114.536 98.5212 115.448C97.8012 116.344 96.7852 117.04 95.4732 117.536C94.1612 118.032 92.6252 118.28 90.8652 118.28C89.0732 118.28 87.4972 118.024 86.1372 117.512C84.7772 116.984 83.7052 116.256 82.9212 115.328C82.1372 114.384 81.7132 113.288 81.6492 112.04Z" fill="#00EEFF"/>
</g>
<defs>
<filter id="filter0_g_372_342" x="99.599" y="1.33514e-05" width="51.84" height="619.34" filterUnits="userSpaceOnUse" color-interpolation-filters="sRGB">
<feFlood flood-opacity="0" result="BackgroundImageFix"/>
<feBlend mode="normal" in="SourceGraphic" in2="BackgroundImageFix" result="shape"/>
<feTurbulence type="fractalNoise" baseFrequency="2 2" numOctaves="3" seed="5448" />
<feDisplacementMap in="shape" scale="17.840000152587891" xChannelSelector="R" yChannelSelector="G" result="displacedImage" width="100%" height="100%" />
<feMerge result="effect1_texture_372_342">
<feMergeNode in="displacedImage"/>
</feMerge>
</filter>
<filter id="filter1_g_372_342" x="-1.71661e-05" y="42.64" width="108.545" height="84.56" filterUnits="userSpaceOnUse" color-interpolation-filters="sRGB">
<feFlood flood-opacity="0" result="BackgroundImageFix"/>
<feBlend mode="normal" in="SourceGraphic" in2="BackgroundImageFix" result="shape"/>
<feTurbulence type="fractalNoise" baseFrequency="2 2" numOctaves="3" seed="5448" />
<feDisplacementMap in="shape" scale="17.840000152587891" xChannelSelector="R" yChannelSelector="G" result="displacedImage" width="100%" height="100%" />
<feMerge result="effect1_texture_372_342">
<feMergeNode in="displacedImage"/>
</feMerge>
</filter>
<linearGradient id="paint0_linear_372_342" x1="125.519" y1="0.920019" x2="125.519" y2="528.92" gradientUnits="userSpaceOnUse">
<stop stop-color="#00EEFF"/>
<stop offset="1" stop-color="white"/>
</linearGradient>
</defs>
</svg>
