<svg width="32" height="32" viewBox="0 0 32 32" fill="none" xmlns="http://www.w3.org/2000/svg">
<path d="M11.0043 32C9.8908 32 9.01078 31.8056 8.36422 31.4169C7.75359 31.0038 7.44828 30.53 7.44828 29.9954C7.44828 29.4609 7.75359 28.9992 8.36422 28.6105C9.01078 28.1974 9.8908 27.9909 11.0043 27.9909H21.9957C23.1092 27.9909 23.9713 28.1974 24.5819 28.6105C25.2284 28.9992 25.5517 29.4609 25.5517 29.9954C25.5517 30.53 25.2284 31.0038 24.5819 31.4169C23.9713 31.8056 23.1092 32 21.9957 32H11.0043ZM7.01724 27.3349C6.15517 27.3349 5.43678 27.1405 4.86207 26.7517C4.28736 26.3386 4 25.8648 4 25.3303C4 24.7957 4.28736 24.3341 4.86207 23.9453C5.43678 23.5323 6.15517 23.3257 7.01724 23.3257H12.1897C13.0517 23.3257 13.7701 23.5323 14.3448 23.9453C14.9195 24.3341 15.2069 24.7957 15.2069 25.3303C15.2069 25.8648 14.9195 26.3386 14.3448 26.7517C13.7701 27.1405 13.0517 27.3349 12.1897 27.3349H7.01724ZM20.8103 27.3349C19.9483 27.3349 19.2299 27.1405 18.6552 26.7517C18.0805 26.3386 17.7931 25.8648 17.7931 25.3303C17.7931 24.7957 18.0805 24.3341 18.6552 23.9453C19.2299 23.5323 19.9483 23.3257 20.8103 23.3257H25.9828C26.8448 23.3257 27.5632 23.5323 28.1379 23.9453C28.7126 24.3341 29 24.7957 29 25.3303C29 25.8648 28.7126 26.3386 28.1379 26.7517C27.5632 27.1405 26.8448 27.3349 25.9828 27.3349H20.8103ZM17.3621 22.6697C16.5 22.6697 15.7816 22.4753 15.2069 22.0866C14.6322 21.6735 14.3448 21.1997 14.3448 20.6651C14.3448 20.1306 14.6322 19.6689 15.2069 19.2802C15.7816 18.8671 16.5 18.6606 17.3621 18.6606H25.9828C26.8448 18.6606 27.5632 18.8671 28.1379 19.2802C28.7126 19.6689 29 20.1306 29 20.6651C29 21.1997 28.7126 21.6735 28.1379 22.0866C27.5632 22.4753 26.8448 22.6697 25.9828 22.6697H17.3621ZM10.4655 18.0046C9.60345 18.0046 8.88506 17.8102 8.31034 17.4214C7.73563 17.0084 7.44828 16.5345 7.44828 16C7.44828 15.4655 7.73563 15.0038 8.31034 14.615C8.88506 14.202 9.60345 13.9954 10.4655 13.9954H19.0862C19.9483 13.9954 20.6667 14.202 21.2414 14.615C21.8161 15.0038 22.1034 15.4655 22.1034 16C22.1034 16.5345 21.8161 17.0084 21.2414 17.4214C20.6667 17.8102 19.9483 18.0046 19.0862 18.0046H10.4655ZM7.01724 13.3394C6.15517 13.3394 5.43678 13.145 4.86207 12.7563C4.28736 12.3432 4 11.8694 4 11.3349C4 10.8003 4.28736 10.3386 4.86207 9.94989C5.43678 9.53683 6.15517 9.3303 7.01724 9.3303H15.6379C16.5 9.3303 17.2184 9.53683 17.7931 9.94989C18.3678 10.3386 18.6552 10.8003 18.6552 11.3349C18.6552 11.8694 18.3678 12.3432 17.7931 12.7563C17.2184 13.145 16.5 13.3394 15.6379 13.3394H7.01724ZM7.01724 8.67426C6.15517 8.67426 5.43678 8.47988 4.86207 8.09112C4.28736 7.67806 4 7.20425 4 6.6697C4 6.13516 4.28736 5.6735 4.86207 5.28474C5.43678 4.87168 6.15517 4.66515 7.01724 4.66515H12.1897C13.0517 4.66515 13.7701 4.87168 14.3448 5.28474C14.9195 5.6735 15.2069 6.13516 15.2069 6.6697C15.2069 7.20425 14.9195 7.67806 14.3448 8.09112C13.7701 8.47988 13.0517 8.67426 12.1897 8.67426H7.01724ZM20.8103 8.67426C19.9483 8.67426 19.2299 8.47988 18.6552 8.09112C18.0805 7.67806 17.7931 7.20425 17.7931 6.6697C17.7931 6.13516 18.0805 5.6735 18.6552 5.28474C19.2299 4.87168 19.9483 4.66515 20.8103 4.66515H25.9828C26.8448 4.66515 27.5632 4.87168 28.1379 5.28474C28.7126 5.6735 29 6.13516 29 6.6697C29 7.20425 28.7126 7.67806 28.1379 8.09112C27.5632 8.47988 26.8448 8.67426 25.9828 8.67426H20.8103ZM11.0043 4.00911C9.8908 4.00911 9.01078 3.81473 8.36422 3.42597C7.75359 3.01291 7.44828 2.5391 7.44828 2.00456C7.44828 1.47001 7.75359 1.00835 8.36422 0.61959C9.01078 0.20653 9.8908 0 11.0043 0H21.9957C23.1092 0 23.9713 0.20653 24.5819 0.61959C25.2284 1.00835 25.5517 1.47001 25.5517 2.00456C25.5517 2.5391 25.2284 3.01291 24.5819 3.42597C23.9713 3.81473 23.1092 4.00911 21.9957 4.00911H11.0043Z" fill="url(#paint0_linear_796_70)"/>
<defs>
<linearGradient id="paint0_linear_796_70" x1="16.5" y1="0" x2="16.5" y2="32" gradientUnits="userSpaceOnUse">
<stop stop-color="#00EEFF"/>
<stop offset="1" stop-color="#FF5CF1"/>
</linearGradient>
</defs>
</svg>
