<svg width="418" height="40" viewBox="0 0 418 40" fill="none" xmlns="http://www.w3.org/2000/svg">
<path d="M191.318 18.7143C191.365 18.9238 191.389 19.1857 191.389 19.5C191.389 19.8012 191.365 20.0631 191.318 20.2857H188.486C188.534 20.4952 188.557 20.7571 188.557 21.0714C188.557 21.3726 188.534 21.6345 188.486 21.8571C188.534 22.0667 188.557 22.3286 188.557 22.6429C188.557 22.944 188.534 23.206 188.486 23.4286C188.534 23.6381 188.557 23.9 188.557 24.2143C188.557 24.5155 188.534 24.7774 188.486 25H187.071C187.024 24.7774 187 24.5155 187 24.2143C187 23.9 187.024 23.6381 187.071 23.4286C187.024 23.206 187 22.944 187 22.6429C187 22.3286 187.024 22.0667 187.071 21.8571C187.024 21.6345 187 21.3726 187 21.0714C187 20.7571 187.024 20.4952 187.071 20.2857C187.024 20.0631 187 19.8012 187 19.5C187 19.1857 187.024 18.9238 187.071 18.7143C187.024 18.4917 187 18.2298 187 17.9286C187 17.6143 187.024 17.3524 187.071 17.1429C187.024 16.9202 187 16.6583 187 16.3571C187 16.0429 187.024 15.781 187.071 15.5714C187.024 15.3488 187 15.0869 187 14.7857C187 14.4714 187.024 14.2095 187.071 14H191.318C191.365 14.2095 191.389 14.4714 191.389 14.7857C191.389 15.0869 191.365 15.3488 191.318 15.5714H188.486C188.534 15.781 188.557 16.0429 188.557 16.3571C188.557 16.6583 188.534 16.9202 188.486 17.1429C188.534 17.3524 188.557 17.6143 188.557 17.9286C188.557 18.2298 188.534 18.4917 188.486 18.7143H191.318Z" fill="#252527"/>
<path d="M198.096 18.7143C198.143 18.9238 198.166 19.1857 198.166 19.5C198.166 19.8012 198.143 20.0631 198.096 20.2857C198.143 20.4952 198.166 20.7571 198.166 21.0714C198.166 21.3726 198.143 21.6345 198.096 21.8571H197.565C197.612 22.0667 197.636 22.3286 197.636 22.6429C197.636 22.944 197.612 23.206 197.565 23.4286H196.68C196.727 23.6381 196.751 23.9 196.751 24.2143C196.751 24.5155 196.727 24.7774 196.68 25H193.849C193.802 24.7774 193.778 24.5155 193.778 24.2143C193.778 23.9 193.802 23.6381 193.849 23.4286H192.964C192.917 23.206 192.893 22.944 192.893 22.6429C192.893 22.3286 192.917 22.0667 192.964 21.8571H192.433C192.386 21.6345 192.362 21.3726 192.362 21.0714C192.362 20.7571 192.386 20.4952 192.433 20.2857C192.386 20.0631 192.362 19.8012 192.362 19.5C192.362 19.1857 192.386 18.9238 192.433 18.7143C192.386 18.4917 192.362 18.2298 192.362 17.9286C192.362 17.6143 192.386 17.3524 192.433 17.1429H192.964C192.917 16.9202 192.893 16.6583 192.893 16.3571C192.893 16.0429 192.917 15.781 192.964 15.5714H193.849C193.802 15.3488 193.778 15.0869 193.778 14.7857C193.778 14.4714 193.802 14.2095 193.849 14H196.68C196.727 14.2095 196.751 14.4714 196.751 14.7857C196.751 15.0869 196.727 15.3488 196.68 15.5714H197.565C197.612 15.781 197.636 16.0429 197.636 16.3571C197.636 16.6583 197.612 16.9202 197.565 17.1429H198.096C198.143 17.3524 198.166 17.6143 198.166 17.9286C198.166 18.2298 198.143 18.4917 198.096 18.7143ZM196.68 21.8571C196.633 21.6345 196.609 21.3726 196.609 21.0714C196.609 20.7571 196.633 20.4952 196.68 20.2857C196.633 20.0631 196.609 19.8012 196.609 19.5C196.609 19.1857 196.633 18.9238 196.68 18.7143C196.633 18.4917 196.609 18.2298 196.609 17.9286C196.609 17.6143 196.633 17.3524 196.68 17.1429H196.149C196.102 16.9202 196.078 16.6583 196.078 16.3571C196.078 16.0429 196.102 15.781 196.149 15.5714H194.38C194.427 15.781 194.45 16.0429 194.45 16.3571C194.45 16.6583 194.427 16.9202 194.38 17.1429H193.849C193.896 17.3524 193.919 17.6143 193.919 17.9286C193.919 18.2298 193.896 18.4917 193.849 18.7143C193.896 18.9238 193.919 19.1857 193.919 19.5C193.919 19.8012 193.896 20.0631 193.849 20.2857C193.896 20.4952 193.919 20.7571 193.919 21.0714C193.919 21.3726 193.896 21.6345 193.849 21.8571H194.38C194.427 22.0667 194.45 22.3286 194.45 22.6429C194.45 22.944 194.427 23.206 194.38 23.4286H196.149C196.102 23.206 196.078 22.944 196.078 22.6429C196.078 22.3286 196.102 22.0667 196.149 21.8571H196.68Z" fill="#252527"/>
<path d="M205.004 23.4286C205.051 23.6381 205.075 23.9 205.075 24.2143C205.075 24.5155 205.051 24.7774 205.004 25H203.588C203.541 24.7774 203.518 24.5155 203.518 24.2143C203.518 23.9 203.541 23.6381 203.588 23.4286H203.057C203.01 23.206 202.987 22.944 202.987 22.6429C202.987 22.3286 203.01 22.0667 203.057 21.8571H202.527C202.479 21.6345 202.456 21.3726 202.456 21.0714C202.456 20.7571 202.479 20.4952 202.527 20.2857H200.757C200.804 20.4952 200.828 20.7571 200.828 21.0714C200.828 21.3726 200.804 21.6345 200.757 21.8571C200.804 22.0667 200.828 22.3286 200.828 22.6429C200.828 22.944 200.804 23.206 200.757 23.4286C200.804 23.6381 200.828 23.9 200.828 24.2143C200.828 24.5155 200.804 24.7774 200.757 25H199.341C199.294 24.7774 199.271 24.5155 199.271 24.2143C199.271 23.9 199.294 23.6381 199.341 23.4286C199.294 23.206 199.271 22.944 199.271 22.6429C199.271 22.3286 199.294 22.0667 199.341 21.8571C199.294 21.6345 199.271 21.3726 199.271 21.0714C199.271 20.7571 199.294 20.4952 199.341 20.2857C199.294 20.0631 199.271 19.8012 199.271 19.5C199.271 19.1857 199.294 18.9238 199.341 18.7143C199.294 18.4917 199.271 18.2298 199.271 17.9286C199.271 17.6143 199.294 17.3524 199.341 17.1429C199.294 16.9202 199.271 16.6583 199.271 16.3571C199.271 16.0429 199.294 15.781 199.341 15.5714C199.294 15.3488 199.271 15.0869 199.271 14.7857C199.271 14.4714 199.294 14.2095 199.341 14H204.296C204.343 14.2095 204.367 14.4714 204.367 14.7857C204.367 15.0869 204.343 15.3488 204.296 15.5714H205.004C205.051 15.781 205.075 16.0429 205.075 16.3571C205.075 16.6583 205.051 16.9202 205.004 17.1429H204.65C204.697 17.3524 204.721 17.6143 204.721 17.9286C204.721 18.2298 204.697 18.4917 204.65 18.7143H203.588C203.635 18.9238 203.659 19.1857 203.659 19.5C203.659 19.8012 203.635 20.0631 203.588 20.2857H203.942C203.989 20.4952 204.013 20.7571 204.013 21.0714C204.013 21.3726 203.989 21.6345 203.942 21.8571H204.473C204.52 22.0667 204.544 22.3286 204.544 22.6429C204.544 22.944 204.52 23.206 204.473 23.4286H205.004ZM203.234 18.7143C203.187 18.4917 203.164 18.2298 203.164 17.9286C203.164 17.6143 203.187 17.3524 203.234 17.1429C203.187 16.9202 203.164 16.6583 203.164 16.3571C203.164 16.0429 203.187 15.781 203.234 15.5714H200.757C200.804 15.781 200.828 16.0429 200.828 16.3571C200.828 16.6583 200.804 16.9202 200.757 17.1429C200.804 17.3524 200.828 17.6143 200.828 17.9286C200.828 18.2298 200.804 18.4917 200.757 18.7143H203.234Z" fill="#252527"/>
<path d="M218.891 14.7857C218.891 15.0869 218.868 15.3488 218.821 15.5714H216.697C216.744 15.781 216.768 16.0429 216.768 16.3571C216.768 16.6583 216.744 16.9202 216.697 17.1429C216.744 17.3524 216.768 17.6143 216.768 17.9286C216.768 18.2298 216.744 18.4917 216.697 18.7143C216.744 18.9238 216.768 19.1857 216.768 19.5C216.768 19.8012 216.744 20.0631 216.697 20.2857C216.744 20.4952 216.768 20.7571 216.768 21.0714C216.768 21.3726 216.744 21.6345 216.697 21.8571C216.744 22.0667 216.768 22.3286 216.768 22.6429C216.768 22.944 216.744 23.206 216.697 23.4286C216.744 23.6381 216.768 23.9 216.768 24.2143C216.768 24.5155 216.744 24.7774 216.697 25H215.281C215.234 24.7774 215.211 24.5155 215.211 24.2143C215.211 23.9 215.234 23.6381 215.281 23.4286C215.234 23.206 215.211 22.944 215.211 22.6429C215.211 22.3286 215.234 22.0667 215.281 21.8571C215.234 21.6345 215.211 21.3726 215.211 21.0714C215.211 20.7571 215.234 20.4952 215.281 20.2857C215.234 20.0631 215.211 19.8012 215.211 19.5C215.211 19.1857 215.234 18.9238 215.281 18.7143C215.234 18.4917 215.211 18.2298 215.211 17.9286C215.211 17.6143 215.234 17.3524 215.281 17.1429C215.234 16.9202 215.211 16.6583 215.211 16.3571C215.211 16.0429 215.234 15.781 215.281 15.5714H213.158C213.111 15.3488 213.087 15.0869 213.087 14.7857C213.087 14.4714 213.111 14.2095 213.158 14H218.821C218.868 14.2095 218.891 14.4714 218.891 14.7857Z" fill="#252527"/>
<path d="M225.729 15.5714C225.776 15.781 225.8 16.0429 225.8 16.3571C225.8 16.6583 225.776 16.9202 225.729 17.1429C225.776 17.3524 225.8 17.6143 225.8 17.9286C225.8 18.2298 225.776 18.4917 225.729 18.7143C225.776 18.9238 225.8 19.1857 225.8 19.5C225.8 19.8012 225.776 20.0631 225.729 20.2857C225.776 20.4952 225.8 20.7571 225.8 21.0714C225.8 21.3726 225.776 21.6345 225.729 21.8571C225.776 22.0667 225.8 22.3286 225.8 22.6429C225.8 22.944 225.776 23.206 225.729 23.4286C225.776 23.6381 225.8 23.9 225.8 24.2143C225.8 24.5155 225.776 24.7774 225.729 25H224.313C224.266 24.7774 224.242 24.5155 224.242 24.2143C224.242 23.9 224.266 23.6381 224.313 23.4286C224.266 23.206 224.242 22.944 224.242 22.6429C224.242 22.3286 224.266 22.0667 224.313 21.8571C224.266 21.6345 224.242 21.3726 224.242 21.0714C224.242 20.7571 224.266 20.4952 224.313 20.2857H221.482C221.529 20.4952 221.553 20.7571 221.553 21.0714C221.553 21.3726 221.529 21.6345 221.482 21.8571C221.529 22.0667 221.553 22.3286 221.553 22.6429C221.553 22.944 221.529 23.206 221.482 23.4286C221.529 23.6381 221.553 23.9 221.553 24.2143C221.553 24.5155 221.529 24.7774 221.482 25H220.066C220.019 24.7774 219.995 24.5155 219.995 24.2143C219.995 23.9 220.019 23.6381 220.066 23.4286C220.019 23.206 219.995 22.944 219.995 22.6429C219.995 22.3286 220.019 22.0667 220.066 21.8571C220.019 21.6345 219.995 21.3726 219.995 21.0714C219.995 20.7571 220.019 20.4952 220.066 20.2857C220.019 20.0631 219.995 19.8012 219.995 19.5C219.995 19.1857 220.019 18.9238 220.066 18.7143C220.019 18.4917 219.995 18.2298 219.995 17.9286C219.995 17.6143 220.019 17.3524 220.066 17.1429C220.019 16.9202 219.995 16.6583 219.995 16.3571C219.995 16.0429 220.019 15.781 220.066 15.5714C220.019 15.3488 219.995 15.0869 219.995 14.7857C219.995 14.4714 220.019 14.2095 220.066 14H221.482C221.529 14.2095 221.553 14.4714 221.553 14.7857C221.553 15.0869 221.529 15.3488 221.482 15.5714C221.529 15.781 221.553 16.0429 221.553 16.3571C221.553 16.6583 221.529 16.9202 221.482 17.1429C221.529 17.3524 221.553 17.6143 221.553 17.9286C221.553 18.2298 221.529 18.4917 221.482 18.7143H224.313C224.266 18.4917 224.242 18.2298 224.242 17.9286C224.242 17.6143 224.266 17.3524 224.313 17.1429C224.266 16.9202 224.242 16.6583 224.242 16.3571C224.242 16.0429 224.266 15.781 224.313 15.5714C224.266 15.3488 224.242 15.0869 224.242 14.7857C224.242 14.4714 224.266 14.2095 224.313 14H225.729C225.776 14.2095 225.8 14.4714 225.8 14.7857C225.8 15.0869 225.776 15.3488 225.729 15.5714Z" fill="#252527"/>
<path d="M229.098 20.2857C229.145 20.4952 229.169 20.7571 229.169 21.0714C229.169 21.3726 229.145 21.6345 229.098 21.8571C229.145 22.0667 229.169 22.3286 229.169 22.6429C229.169 22.944 229.145 23.206 229.098 23.4286H231.929C231.976 23.6381 232 23.9 232 24.2143C232 24.5155 231.976 24.7774 231.929 25H227.682C227.635 24.7774 227.611 24.5155 227.611 24.2143C227.611 23.9 227.635 23.6381 227.682 23.4286C227.635 23.206 227.611 22.944 227.611 22.6429C227.611 22.3286 227.635 22.0667 227.682 21.8571C227.635 21.6345 227.611 21.3726 227.611 21.0714C227.611 20.7571 227.635 20.4952 227.682 20.2857C227.635 20.0631 227.611 19.8012 227.611 19.5C227.611 19.1857 227.635 18.9238 227.682 18.7143C227.635 18.4917 227.611 18.2298 227.611 17.9286C227.611 17.6143 227.635 17.3524 227.682 17.1429C227.635 16.9202 227.611 16.6583 227.611 16.3571C227.611 16.0429 227.635 15.781 227.682 15.5714C227.635 15.3488 227.611 15.0869 227.611 14.7857C227.611 14.4714 227.635 14.2095 227.682 14H231.929C231.976 14.2095 232 14.4714 232 14.7857C232 15.0869 231.976 15.3488 231.929 15.5714H229.098C229.145 15.781 229.169 16.0429 229.169 16.3571C229.169 16.6583 229.145 16.9202 229.098 17.1429C229.145 17.3524 229.169 17.6143 229.169 17.9286C229.169 18.2298 229.145 18.4917 229.098 18.7143H231.929C231.976 18.9238 232 19.1857 232 19.5C232 19.8012 231.976 20.0631 231.929 20.2857H229.098Z" fill="#252527"/>
<path d="M5.86442 40C4.93212 40 4.19531 39.757 3.65398 39.2711C3.14272 38.7547 2.8871 38.1625 2.8871 37.4943C2.8871 36.8261 3.14272 36.249 3.65398 35.7631C4.19531 35.2468 4.93212 34.9886 5.86442 34.9886H15.067C15.9993 34.9886 16.7211 35.2468 17.2324 35.7631C17.7737 36.249 18.0444 36.8261 18.0444 37.4943C18.0444 38.1625 17.7737 38.7547 17.2324 39.2711C16.7211 39.757 15.9993 40 15.067 40H5.86442ZM2.52621 34.1686C1.80444 34.1686 1.20296 33.9256 0.721774 33.4396C0.240591 32.9233 0 32.3311 0 31.6629C0 30.9947 0.240591 30.4176 0.721774 29.9317C1.20296 29.4153 1.80444 29.1572 2.52621 29.1572H6.85685C7.57863 29.1572 8.18011 29.4153 8.66129 29.9317C9.14247 30.4176 9.38306 30.9947 9.38306 31.6629C9.38306 32.3311 9.14247 32.9233 8.66129 33.4396C8.18011 33.9256 7.57863 34.1686 6.85685 34.1686H2.52621ZM14.0746 34.1686C13.3528 34.1686 12.7513 33.9256 12.2702 33.4396C11.789 32.9233 11.5484 32.3311 11.5484 31.6629C11.5484 30.9947 11.789 30.4176 12.2702 29.9317C12.7513 29.4153 13.3528 29.1572 14.0746 29.1572H18.4052C19.127 29.1572 19.7285 29.4153 20.2097 29.9317C20.6909 30.4176 20.9314 30.9947 20.9314 31.6629C20.9314 32.3311 20.6909 32.9233 20.2097 33.4396C19.7285 33.9256 19.127 34.1686 18.4052 34.1686H14.0746ZM11.1875 28.3371C10.4657 28.3371 9.86425 28.0942 9.38306 27.6082C8.90188 27.0919 8.66129 26.4996 8.66129 25.8314C8.66129 25.1632 8.90188 24.5862 9.38306 24.1002C9.86425 23.5839 10.4657 23.3257 11.1875 23.3257H18.4052C19.127 23.3257 19.7285 23.5839 20.2097 24.1002C20.6909 24.5862 20.9314 25.1632 20.9314 25.8314C20.9314 26.4996 20.6909 27.0919 20.2097 27.6082C19.7285 28.0942 19.127 28.3371 18.4052 28.3371H11.1875ZM5.41331 22.5057C4.69153 22.5057 4.09005 22.2627 3.60887 21.7768C3.12769 21.2604 2.8871 20.6682 2.8871 20C2.8871 19.3318 3.12769 18.7547 3.60887 18.2688C4.09005 17.7525 4.69153 17.4943 5.41331 17.4943H12.631C13.3528 17.4943 13.9543 17.7525 14.4355 18.2688C14.9167 18.7547 15.1573 19.3318 15.1573 20C15.1573 20.6682 14.9167 21.2604 14.4355 21.7768C13.9543 22.2627 13.3528 22.5057 12.631 22.5057H5.41331ZM2.52621 16.6743C1.80444 16.6743 1.20296 16.4313 0.721774 15.9453C0.240591 15.429 0 14.8368 0 14.1686C0 13.5004 0.240591 12.9233 0.721774 12.4374C1.20296 11.921 1.80444 11.6629 2.52621 11.6629H9.74395C10.4657 11.6629 11.0672 11.921 11.5484 12.4374C12.0296 12.9233 12.2702 13.5004 12.2702 14.1686C12.2702 14.8368 12.0296 15.429 11.5484 15.9453C11.0672 16.4313 10.4657 16.6743 9.74395 16.6743H2.52621ZM2.52621 10.8428C1.80444 10.8428 1.20296 10.5998 0.721774 10.1139C0.240591 9.59757 0 9.00532 0 8.33713C0 7.66895 0.240591 7.09188 0.721774 6.60592C1.20296 6.0896 1.80444 5.83144 2.52621 5.83144H6.85685C7.57863 5.83144 8.18011 6.0896 8.66129 6.60592C9.14247 7.09188 9.38306 7.66895 9.38306 8.33713C9.38306 9.00532 9.14247 9.59757 8.66129 10.1139C8.18011 10.5998 7.57863 10.8428 6.85685 10.8428H2.52621ZM14.0746 10.8428C13.3528 10.8428 12.7513 10.5998 12.2702 10.1139C11.789 9.59757 11.5484 9.00532 11.5484 8.33713C11.5484 7.66895 11.789 7.09188 12.2702 6.60592C12.7513 6.0896 13.3528 5.83144 14.0746 5.83144H18.4052C19.127 5.83144 19.7285 6.0896 20.2097 6.60592C20.6909 7.09188 20.9314 7.66895 20.9314 8.33713C20.9314 9.00532 20.6909 9.59757 20.2097 10.1139C19.7285 10.5998 19.127 10.8428 18.4052 10.8428H14.0746ZM5.86442 5.01139C4.93212 5.01139 4.19531 4.76841 3.65398 4.28246C3.14272 3.76614 2.8871 3.17388 2.8871 2.5057C2.8871 1.83751 3.14272 1.26044 3.65398 0.774489C4.19531 0.258164 4.93212 1.7379e-06 5.86442 1.7379e-06H15.067C15.9993 1.7379e-06 16.7211 0.258164 17.2324 0.774489C17.7737 1.26044 18.0444 1.83751 18.0444 2.5057C18.0444 3.17388 17.7737 3.76614 17.2324 4.28246C16.7211 4.76841 15.9993 5.01139 15.067 5.01139H5.86442Z" fill="#252527"/>
<path d="M26.5409 40C25.6086 40 24.8717 39.757 24.3304 39.2711C23.8192 38.7547 23.5635 38.1625 23.5635 37.4943C23.5635 36.8261 23.8192 36.2491 24.3304 35.7631C24.8717 35.2468 25.6086 34.9886 26.5409 34.9886H41.5177C42.45 34.9886 43.1717 35.2468 43.683 35.7631C44.2243 36.2491 44.495 36.8261 44.495 37.4943C44.495 38.1625 44.2243 38.7547 43.683 39.2711C43.1717 39.757 42.45 40 41.5177 40H26.5409ZM31.8639 34.1686C31.1422 34.1686 30.5407 33.9256 30.0595 33.4396C29.5783 32.9233 29.3377 32.3311 29.3377 31.6629C29.3377 30.9947 29.5783 30.4176 30.0595 29.9317C30.5407 29.4153 31.1422 29.1572 31.8639 29.1572H36.1946C36.9164 29.1572 37.5178 29.4153 37.999 29.9317C38.4802 30.4176 38.7208 30.9947 38.7208 31.6629C38.7208 32.3311 38.4802 32.9233 37.999 33.4396C37.5178 33.9256 36.9164 34.1686 36.1946 34.1686H31.8639ZM31.8639 28.3371C31.1422 28.3371 30.5407 28.0942 30.0595 27.6082C29.5783 27.0919 29.3377 26.4996 29.3377 25.8314C29.3377 25.1632 29.5783 24.5862 30.0595 24.1002C30.5407 23.5839 31.1422 23.3257 31.8639 23.3257H36.1946C36.9164 23.3257 37.5178 23.5839 37.999 24.1002C38.4802 24.5862 38.7208 25.1632 38.7208 25.8314C38.7208 26.4996 38.4802 27.0919 37.999 27.6082C37.5178 28.0942 36.9164 28.3371 36.1946 28.3371H31.8639ZM31.8639 22.5057C31.1422 22.5057 30.5407 22.2627 30.0595 21.7768C29.5783 21.2604 29.3377 20.6682 29.3377 20C29.3377 19.3318 29.5783 18.7547 30.0595 18.2688C30.5407 17.7525 31.1422 17.4943 31.8639 17.4943H36.1946C36.9164 17.4943 37.5178 17.7525 37.999 18.2688C38.4802 18.7547 38.7208 19.3318 38.7208 20C38.7208 20.6682 38.4802 21.2604 37.999 21.7768C37.5178 22.2627 36.9164 22.5057 36.1946 22.5057H31.8639ZM31.8639 16.6743C31.1422 16.6743 30.5407 16.4313 30.0595 15.9453C29.5783 15.429 29.3377 14.8368 29.3377 14.1686C29.3377 13.5004 29.5783 12.9233 30.0595 12.4374C30.5407 11.921 31.1422 11.6629 31.8639 11.6629H36.1946C36.9164 11.6629 37.5178 11.921 37.999 12.4374C38.4802 12.9233 38.7208 13.5004 38.7208 14.1686C38.7208 14.8368 38.4802 15.429 37.999 15.9453C37.5178 16.4313 36.9164 16.6743 36.1946 16.6743H31.8639ZM31.8639 10.8428C31.1422 10.8428 30.5407 10.5999 30.0595 10.1139C29.5783 9.59758 29.3377 9.00532 29.3377 8.33714C29.3377 7.66895 29.5783 7.09188 30.0595 6.60593C30.5407 6.0896 31.1422 5.83144 31.8639 5.83144H36.1946C36.9164 5.83144 37.5178 6.0896 37.999 6.60593C38.4802 7.09188 38.7208 7.66895 38.7208 8.33714C38.7208 9.00532 38.4802 9.59758 37.999 10.1139C37.5178 10.5999 36.9164 10.8428 36.1946 10.8428H31.8639ZM26.5409 5.01139C25.6086 5.01139 24.8717 4.76842 24.3304 4.28246C23.8192 3.76614 23.5635 3.17388 23.5635 2.5057C23.5635 1.83751 23.8192 1.26045 24.3304 0.774493C24.8717 0.258168 25.6086 5.44543e-06 26.5409 5.44543e-06H41.5177C42.45 5.44543e-06 43.1717 0.258168 43.683 0.774493C44.2243 1.26045 44.495 1.83751 44.495 2.5057C44.495 3.17388 44.2243 3.76614 43.683 4.28246C43.1717 4.76842 42.45 5.01139 41.5177 5.01139H26.5409Z" fill="#252527"/>
<path d="M50.4568 40C49.7351 40 49.1336 39.757 48.6524 39.2711C48.1712 38.7547 47.9306 38.1625 47.9306 37.4943C47.9306 36.8261 48.1712 36.2491 48.6524 35.7631C49.1336 35.2468 49.7351 34.9886 50.4568 34.9886H54.7875C55.5093 34.9886 56.1107 35.2468 56.5919 35.7631C57.0731 36.2491 57.3137 36.8261 57.3137 37.4943C57.3137 38.1625 57.0731 38.7547 56.5919 39.2711C56.1107 39.757 55.5093 40 54.7875 40H50.4568ZM64.8923 40C64.1706 40 63.5691 39.757 63.0879 39.2711C62.6067 38.7547 62.3661 38.1625 62.3661 37.4943C62.3661 36.8261 62.6067 36.2491 63.0879 35.7631C63.5691 35.2468 64.1706 34.9886 64.8923 34.9886H69.223C69.9447 34.9886 70.5462 35.2468 71.0274 35.7631C71.5086 36.2491 71.7492 36.8261 71.7492 37.4943C71.7492 38.1625 71.5086 38.7547 71.0274 39.2711C70.5462 39.757 69.9447 40 69.223 40H64.8923ZM50.4568 34.1686C49.7351 34.1686 49.1336 33.9256 48.6524 33.4396C48.1712 32.9233 47.9306 32.3311 47.9306 31.6629C47.9306 30.9947 48.1712 30.4176 48.6524 29.9317C49.1336 29.4153 49.7351 29.1572 50.4568 29.1572H54.7875C55.5093 29.1572 56.1107 29.4153 56.5919 29.9317C57.0731 30.4176 57.3137 30.9947 57.3137 31.6629C57.3137 32.3311 57.0731 32.9233 56.5919 33.4396C56.1107 33.9256 55.5093 34.1686 54.7875 34.1686H50.4568ZM64.8923 34.1686C64.1706 34.1686 63.5691 33.9256 63.0879 33.4396C62.6067 32.9233 62.3661 32.3311 62.3661 31.6629C62.3661 30.9947 62.6067 30.4176 63.0879 29.9317C63.5691 29.4153 64.1706 29.1572 64.8923 29.1572H69.223C69.9447 29.1572 70.5462 29.4153 71.0274 29.9317C71.5086 30.4176 71.7492 30.9947 71.7492 31.6629C71.7492 32.3311 71.5086 32.9233 71.0274 33.4396C70.5462 33.9256 69.9447 34.1686 69.223 34.1686H64.8923ZM50.4568 28.3371C49.7351 28.3371 49.1336 28.0942 48.6524 27.6082C48.1712 27.0919 47.9306 26.4996 47.9306 25.8314C47.9306 25.1632 48.1712 24.5862 48.6524 24.1002C49.1336 23.5839 49.7351 23.3257 50.4568 23.3257H54.7875C55.5093 23.3257 56.1107 23.5839 56.5919 24.1002C57.0731 24.5862 57.3137 25.1632 57.3137 25.8314C57.3137 26.4996 57.0731 27.0919 56.5919 27.6082C56.1107 28.0942 55.5093 28.3371 54.7875 28.3371H50.4568ZM62.0052 28.3371C61.2835 28.3371 60.682 28.0942 60.2008 27.6082C59.7196 27.0919 59.479 26.4996 59.479 25.8314C59.479 25.1632 59.7196 24.5862 60.2008 24.1002C60.682 23.5839 61.2835 23.3257 62.0052 23.3257H69.223C69.9447 23.3257 70.5462 23.5839 71.0274 24.1002C71.5086 24.5862 71.7492 25.1632 71.7492 25.8314C71.7492 26.4996 71.5086 27.0919 71.0274 27.6082C70.5462 28.0942 69.9447 28.3371 69.223 28.3371H62.0052ZM50.4568 22.5057C49.7351 22.5057 49.1336 22.2627 48.6524 21.7768C48.1712 21.2604 47.9306 20.6682 47.9306 20C47.9306 19.3318 48.1712 18.7547 48.6524 18.2688C49.1336 17.7525 49.7351 17.4943 50.4568 17.4943H54.7875C55.5093 17.4943 56.1107 17.7525 56.5919 18.2688C57.0731 18.7547 57.3137 19.3318 57.3137 20C57.3137 20.6682 57.0731 21.2604 56.5919 21.7768C56.1107 22.2627 55.5093 22.5057 54.7875 22.5057H50.4568ZM59.5692 22.5057C58.637 22.5057 57.9001 22.2627 57.3588 21.7768C56.8475 21.2604 56.5919 20.6682 56.5919 20C56.5919 19.3318 56.8475 18.7547 57.3588 18.2688C57.9001 17.7525 58.637 17.4943 59.5692 17.4943H68.7719C69.7042 17.4943 70.4259 17.7525 70.9372 18.2688C71.4785 18.7547 71.7492 19.3318 71.7492 20C71.7492 20.6682 71.4785 21.2604 70.9372 21.7768C70.4259 22.2627 69.7042 22.5057 68.7719 22.5057H59.5692ZM50.9079 16.6743C49.9757 16.6743 49.2539 16.4313 48.7426 15.9453C48.2013 15.429 47.9306 14.8368 47.9306 14.1686C47.9306 13.5004 48.2013 12.9233 48.7426 12.4374C49.2539 11.921 49.9757 11.6629 50.9079 11.6629H60.1106C61.0429 11.6629 61.7646 11.921 62.2759 12.4374C62.8172 12.9233 63.0879 13.5004 63.0879 14.1686C63.0879 14.8368 62.8172 15.429 62.2759 15.9453C61.7646 16.4313 61.0429 16.6743 60.1106 16.6743H50.9079ZM64.8923 16.6743C64.1706 16.6743 63.5691 16.4313 63.0879 15.9453C62.6067 15.429 62.3661 14.8368 62.3661 14.1686C62.3661 13.5004 62.6067 12.9233 63.0879 12.4374C63.5691 11.921 64.1706 11.6629 64.8923 11.6629H69.223C69.9447 11.6629 70.5462 11.921 71.0274 12.4374C71.5086 12.9233 71.7492 13.5004 71.7492 14.1686C71.7492 14.8368 71.5086 15.429 71.0274 15.9453C70.5462 16.4313 69.9447 16.6743 69.223 16.6743H64.8923ZM50.4568 10.8428C49.7351 10.8428 49.1336 10.5999 48.6524 10.1139C48.1712 9.59758 47.9306 9.00532 47.9306 8.33714C47.9306 7.66895 48.1712 7.09188 48.6524 6.60593C49.1336 6.0896 49.7351 5.83144 50.4568 5.83144H57.6746C58.3964 5.83144 58.9978 6.0896 59.479 6.60593C59.9602 7.09188 60.2008 7.66895 60.2008 8.33714C60.2008 9.00532 59.9602 9.59758 59.479 10.1139C58.9978 10.5999 58.3964 10.8428 57.6746 10.8428H50.4568ZM64.8923 10.8428C64.1706 10.8428 63.5691 10.5999 63.0879 10.1139C62.6067 9.59758 62.3661 9.00532 62.3661 8.33714C62.3661 7.66895 62.6067 7.09188 63.0879 6.60593C63.5691 6.0896 64.1706 5.83144 64.8923 5.83144H69.223C69.9447 5.83144 70.5462 6.0896 71.0274 6.60593C71.5086 7.09188 71.7492 7.66895 71.7492 8.33714C71.7492 9.00532 71.5086 9.59758 71.0274 10.1139C70.5462 10.5999 69.9447 10.8428 69.223 10.8428H64.8923ZM50.4568 5.01139C49.7351 5.01139 49.1336 4.76842 48.6524 4.28246C48.1712 3.76614 47.9306 3.17388 47.9306 2.5057C47.9306 1.83751 48.1712 1.26045 48.6524 0.774493C49.1336 0.258168 49.7351 5.44543e-06 50.4568 5.44543e-06H54.7875C55.5093 5.44543e-06 56.1107 0.258168 56.5919 0.774493C57.0731 1.26045 57.3137 1.83751 57.3137 2.5057C57.3137 3.17388 57.0731 3.76614 56.5919 4.28246C56.1107 4.76842 55.5093 5.01139 54.7875 5.01139H50.4568ZM64.8923 5.01139C64.1706 5.01139 63.5691 4.76842 63.0879 4.28246C62.6067 3.76614 62.3661 3.17388 62.3661 2.5057C62.3661 1.83751 62.6067 1.26045 63.0879 0.774493C63.5691 0.258168 64.1706 5.44543e-06 64.8923 5.44543e-06H69.223C69.9447 5.44543e-06 70.5462 0.258168 71.0274 0.774493C71.5086 1.26045 71.7492 1.83751 71.7492 2.5057C71.7492 3.17388 71.5086 3.76614 71.0274 4.28246C70.5462 4.76842 69.9447 5.01139 69.223 5.01139H64.8923Z" fill="#252527"/>
<path d="M84.6966 40C83.7643 40 83.0275 39.757 82.4862 39.2711C81.9749 38.7547 81.7193 38.1625 81.7193 37.4943C81.7193 36.8261 81.9749 36.249 82.4862 35.7631C83.0275 35.2468 83.7643 34.9886 84.6966 34.9886H96.7864C97.7186 34.9886 98.4404 35.2468 98.9517 35.7631C99.493 36.249 99.7637 36.8261 99.7637 37.4943C99.7637 38.1625 99.493 38.7547 98.9517 39.2711C98.4404 39.757 97.7186 40 96.7864 40H84.6966ZM81.3584 34.1686C80.6367 34.1686 80.0352 33.9256 79.554 33.4396C79.0728 32.9233 78.8322 32.3311 78.8322 31.6629C78.8322 30.9947 79.0728 30.4176 79.554 29.9317C80.0352 29.4153 80.6367 29.1572 81.3584 29.1572H85.6891C86.4108 29.1572 87.0123 29.4153 87.4935 29.9317C87.9747 30.4176 88.2153 30.9947 88.2153 31.6629C88.2153 32.3311 87.9747 32.9233 87.4935 33.4396C87.0123 33.9256 86.4108 34.1686 85.6891 34.1686H81.3584ZM92.9068 34.1686C92.185 34.1686 91.5836 33.9256 91.1024 33.4396C90.6212 32.9233 90.3806 32.3311 90.3806 31.6629C90.3806 30.9947 90.6212 30.4176 91.1024 29.9317C91.5836 29.4153 92.185 29.1572 92.9068 29.1572H97.2375C97.9592 29.1572 98.5607 29.4153 99.0419 29.9317C99.5231 30.4176 99.7637 30.9947 99.7637 31.6629C99.7637 32.3311 99.5231 32.9233 99.0419 33.4396C98.5607 33.9256 97.9592 34.1686 97.2375 34.1686H92.9068ZM78.4713 28.3371C77.7496 28.3371 77.1481 28.0942 76.6669 27.6082C76.1857 27.0919 75.9451 26.4996 75.9451 25.8314C75.9451 25.1632 76.1857 24.5862 76.6669 24.1002C77.1481 23.5839 77.7496 23.3257 78.4713 23.3257H82.802C83.5238 23.3257 84.1252 23.5839 84.6064 24.1002C85.0876 24.5862 85.3282 25.1632 85.3282 25.8314C85.3282 26.4996 85.0876 27.0919 84.6064 27.6082C84.1252 28.0942 83.5238 28.3371 82.802 28.3371H78.4713ZM92.9068 28.3371C92.185 28.3371 91.5836 28.0942 91.1024 27.6082C90.6212 27.0919 90.3806 26.4996 90.3806 25.8314C90.3806 25.1632 90.6212 24.5862 91.1024 24.1002C91.5836 23.5839 92.185 23.3257 92.9068 23.3257H97.2375C97.9592 23.3257 98.5607 23.5839 99.0419 24.1002C99.5231 24.5862 99.7637 25.1632 99.7637 25.8314C99.7637 26.4996 99.5231 27.0919 99.0419 27.6082C98.5607 28.0942 97.9592 28.3371 97.2375 28.3371H92.9068ZM78.4713 22.5057C77.7496 22.5057 77.1481 22.2627 76.6669 21.7768C76.1857 21.2604 75.9451 20.6682 75.9451 20C75.9451 19.3318 76.1857 18.7547 76.6669 18.2688C77.1481 17.7525 77.7496 17.4943 78.4713 17.4943H82.802C83.5238 17.4943 84.1252 17.7525 84.6064 18.2688C85.0876 18.7547 85.3282 19.3318 85.3282 20C85.3282 20.6682 85.0876 21.2604 84.6064 21.7768C84.1252 22.2627 83.5238 22.5057 82.802 22.5057H78.4713ZM90.0197 22.5057C89.2979 22.5057 88.6965 22.2627 88.2153 21.7768C87.7341 21.2604 87.4935 20.6682 87.4935 20C87.4935 19.3318 87.7341 18.7547 88.2153 18.2688C88.6965 17.7525 89.2979 17.4943 90.0197 17.4943H97.2375C97.9592 17.4943 98.5607 17.7525 99.0419 18.2688C99.5231 18.7547 99.7637 19.3318 99.7637 20C99.7637 20.6682 99.5231 21.2604 99.0419 21.7768C98.5607 22.2627 97.9592 22.5057 97.2375 22.5057H90.0197ZM78.4713 16.6743C77.7496 16.6743 77.1481 16.4313 76.6669 15.9453C76.1857 15.429 75.9451 14.8367 75.9451 14.1686C75.9451 13.5004 76.1857 12.9233 76.6669 12.4374C77.1481 11.921 77.7496 11.6629 78.4713 11.6629H82.802C83.5238 11.6629 84.1252 11.921 84.6064 12.4374C85.0876 12.9233 85.3282 13.5004 85.3282 14.1686C85.3282 14.8367 85.0876 15.429 84.6064 15.9453C84.1252 16.4313 83.5238 16.6743 82.802 16.6743H78.4713ZM81.3584 10.8428C80.6367 10.8428 80.0352 10.5998 79.554 10.1139C79.0728 9.59757 78.8322 9.00531 78.8322 8.33713C78.8322 7.66894 79.0728 7.09187 79.554 6.60592C80.0352 6.0896 80.6367 5.83143 81.3584 5.83143H85.6891C86.4108 5.83143 87.0123 6.0896 87.4935 6.60592C87.9747 7.09187 88.2153 7.66894 88.2153 8.33713C88.2153 9.00531 87.9747 9.59757 87.4935 10.1139C87.0123 10.5998 86.4108 10.8428 85.6891 10.8428H81.3584ZM92.9068 10.8428C92.185 10.8428 91.5836 10.5998 91.1024 10.1139C90.6212 9.59757 90.3806 9.00531 90.3806 8.33713C90.3806 7.66894 90.6212 7.09187 91.1024 6.60592C91.5836 6.0896 92.185 5.83143 92.9068 5.83143H97.2375C97.9592 5.83143 98.5607 6.0896 99.0419 6.60592C99.5231 7.09187 99.7637 7.66894 99.7637 8.33713C99.7637 9.00531 99.5231 9.59757 99.0419 10.1139C98.5607 10.5998 97.9592 10.8428 97.2375 10.8428H92.9068ZM84.6966 5.01139C83.7643 5.01139 83.0275 4.76841 82.4862 4.28246C81.9749 3.76613 81.7193 3.17388 81.7193 2.50569C81.7193 1.83751 81.9749 1.26044 82.4862 0.774487C83.0275 0.258162 83.7643 0 84.6966 0H93.8993C94.8315 0 95.5533 0.258162 96.0646 0.774487C96.6059 1.26044 96.8766 1.83751 96.8766 2.50569C96.8766 3.17388 96.6059 3.76613 96.0646 4.28246C95.5533 4.76841 94.8315 5.01139 93.8993 5.01139H84.6966Z" fill="#252527"/>
<path d="M106.538 40C105.605 40 104.868 39.757 104.327 39.2711C103.816 38.7547 103.56 38.1625 103.56 37.4943C103.56 36.8261 103.816 36.2491 104.327 35.7631C104.868 35.2468 105.605 34.9886 106.538 34.9886H121.514C122.447 34.9886 123.168 35.2468 123.68 35.7631C124.221 36.2491 124.492 36.8261 124.492 37.4943C124.492 38.1625 124.221 38.7547 123.68 39.2711C123.168 39.757 122.447 40 121.514 40H106.538ZM111.861 34.1686C111.139 34.1686 110.537 33.9256 110.056 33.4396C109.575 32.9233 109.334 32.3311 109.334 31.6629C109.334 30.9947 109.575 30.4176 110.056 29.9317C110.537 29.4153 111.139 29.1572 111.861 29.1572H116.191C116.913 29.1572 117.515 29.4153 117.996 29.9317C118.477 30.4176 118.717 30.9947 118.717 31.6629C118.717 32.3311 118.477 32.9233 117.996 33.4396C117.515 33.9256 116.913 34.1686 116.191 34.1686H111.861ZM111.861 28.3371C111.139 28.3371 110.537 28.0942 110.056 27.6082C109.575 27.0919 109.334 26.4996 109.334 25.8314C109.334 25.1632 109.575 24.5862 110.056 24.1002C110.537 23.5839 111.139 23.3257 111.861 23.3257H116.191C116.913 23.3257 117.515 23.5839 117.996 24.1002C118.477 24.5862 118.717 25.1632 118.717 25.8314C118.717 26.4996 118.477 27.0919 117.996 27.6082C117.515 28.0942 116.913 28.3371 116.191 28.3371H111.861ZM111.861 22.5057C111.139 22.5057 110.537 22.2627 110.056 21.7768C109.575 21.2604 109.334 20.6682 109.334 20C109.334 19.3318 109.575 18.7547 110.056 18.2688C110.537 17.7525 111.139 17.4943 111.861 17.4943H116.191C116.913 17.4943 117.515 17.7525 117.996 18.2688C118.477 18.7547 118.717 19.3318 118.717 20C118.717 20.6682 118.477 21.2604 117.996 21.7768C117.515 22.2627 116.913 22.5057 116.191 22.5057H111.861ZM111.861 16.6743C111.139 16.6743 110.537 16.4313 110.056 15.9453C109.575 15.429 109.334 14.8368 109.334 14.1686C109.334 13.5004 109.575 12.9233 110.056 12.4374C110.537 11.921 111.139 11.6629 111.861 11.6629H116.191C116.913 11.6629 117.515 11.921 117.996 12.4374C118.477 12.9233 118.717 13.5004 118.717 14.1686C118.717 14.8368 118.477 15.429 117.996 15.9453C117.515 16.4313 116.913 16.6743 116.191 16.6743H111.861ZM111.861 10.8428C111.139 10.8428 110.537 10.5999 110.056 10.1139C109.575 9.59757 109.334 9.00532 109.334 8.33713C109.334 7.66895 109.575 7.09188 110.056 6.60593C110.537 6.0896 111.139 5.83144 111.861 5.83144H116.191C116.913 5.83144 117.515 6.0896 117.996 6.60593C118.477 7.09188 118.717 7.66895 118.717 8.33713C118.717 9.00532 118.477 9.59757 117.996 10.1139C117.515 10.5999 116.913 10.8428 116.191 10.8428H111.861ZM106.538 5.01139C105.605 5.01139 104.868 4.76842 104.327 4.28246C103.816 3.76614 103.56 3.17388 103.56 2.5057C103.56 1.83751 103.816 1.26044 104.327 0.774491C104.868 0.258166 105.605 3.70753e-06 106.538 3.70753e-06H121.514C122.447 3.70753e-06 123.168 0.258166 123.68 0.774491C124.221 1.26044 124.492 1.83751 124.492 2.5057C124.492 3.17388 124.221 3.76614 123.68 4.28246C123.168 4.76842 122.447 5.01139 121.514 5.01139H106.538Z" fill="#252527"/>
<path d="M130.453 40C129.732 40 129.13 39.757 128.649 39.2711C128.168 38.7547 127.927 38.1625 127.927 37.4943C127.927 36.8261 128.168 36.2491 128.649 35.7631C129.13 35.2468 129.732 34.9886 130.453 34.9886H134.784C135.506 34.9886 136.107 35.2468 136.589 35.7631C137.07 36.2491 137.31 36.8261 137.31 37.4943C137.31 38.1625 137.07 38.7547 136.589 39.2711C136.107 39.757 135.506 40 134.784 40H130.453ZM144.889 40C144.167 40 143.566 39.757 143.085 39.2711C142.603 38.7547 142.363 38.1625 142.363 37.4943C142.363 36.8261 142.603 36.2491 143.085 35.7631C143.566 35.2468 144.167 34.9886 144.889 34.9886H149.22C149.941 34.9886 150.543 35.2468 151.024 35.7631C151.505 36.2491 151.746 36.8261 151.746 37.4943C151.746 38.1625 151.505 38.7547 151.024 39.2711C150.543 39.757 149.941 40 149.22 40H144.889ZM130.453 34.1686C129.732 34.1686 129.13 33.9256 128.649 33.4396C128.168 32.9233 127.927 32.3311 127.927 31.6629C127.927 30.9947 128.168 30.4176 128.649 29.9317C129.13 29.4153 129.732 29.1572 130.453 29.1572H134.784C135.506 29.1572 136.107 29.4153 136.589 29.9317C137.07 30.4176 137.31 30.9947 137.31 31.6629C137.31 32.3311 137.07 32.9233 136.589 33.4396C136.107 33.9256 135.506 34.1686 134.784 34.1686H130.453ZM144.889 34.1686C144.167 34.1686 143.566 33.9256 143.085 33.4396C142.603 32.9233 142.363 32.3311 142.363 31.6629C142.363 30.9947 142.603 30.4176 143.085 29.9317C143.566 29.4153 144.167 29.1572 144.889 29.1572H149.22C149.941 29.1572 150.543 29.4153 151.024 29.9317C151.505 30.4176 151.746 30.9947 151.746 31.6629C151.746 32.3311 151.505 32.9233 151.024 33.4396C150.543 33.9256 149.941 34.1686 149.22 34.1686H144.889ZM130.453 28.3371C129.732 28.3371 129.13 28.0942 128.649 27.6082C128.168 27.0919 127.927 26.4996 127.927 25.8314C127.927 25.1632 128.168 24.5862 128.649 24.1002C129.13 23.5839 129.732 23.3257 130.453 23.3257H134.784C135.506 23.3257 136.107 23.5839 136.589 24.1002C137.07 24.5862 137.31 25.1632 137.31 25.8314C137.31 26.4996 137.07 27.0919 136.589 27.6082C136.107 28.0942 135.506 28.3371 134.784 28.3371H130.453ZM142.002 28.3371C141.28 28.3371 140.679 28.0942 140.197 27.6082C139.716 27.0919 139.476 26.4996 139.476 25.8314C139.476 25.1632 139.716 24.5862 140.197 24.1002C140.679 23.5839 141.28 23.3257 142.002 23.3257H149.22C149.941 23.3257 150.543 23.5839 151.024 24.1002C151.505 24.5862 151.746 25.1632 151.746 25.8314C151.746 26.4996 151.505 27.0919 151.024 27.6082C150.543 28.0942 149.941 28.3371 149.22 28.3371H142.002ZM130.453 22.5057C129.732 22.5057 129.13 22.2627 128.649 21.7768C128.168 21.2604 127.927 20.6682 127.927 20C127.927 19.3318 128.168 18.7547 128.649 18.2688C129.13 17.7525 129.732 17.4943 130.453 17.4943H134.784C135.506 17.4943 136.107 17.7525 136.589 18.2688C137.07 18.7547 137.31 19.3318 137.31 20C137.31 20.6682 137.07 21.2604 136.589 21.7768C136.107 22.2627 135.506 22.5057 134.784 22.5057H130.453ZM139.566 22.5057C138.634 22.5057 137.897 22.2627 137.355 21.7768C136.844 21.2604 136.589 20.6682 136.589 20C136.589 19.3318 136.844 18.7547 137.355 18.2688C137.897 17.7525 138.634 17.4943 139.566 17.4943H148.769C149.701 17.4943 150.423 17.7525 150.934 18.2688C151.475 18.7547 151.746 19.3318 151.746 20C151.746 20.6682 151.475 21.2604 150.934 21.7768C150.423 22.2627 149.701 22.5057 148.769 22.5057H139.566ZM130.905 16.6743C129.972 16.6743 129.251 16.4313 128.739 15.9453C128.198 15.429 127.927 14.8368 127.927 14.1686C127.927 13.5004 128.198 12.9233 128.739 12.4374C129.251 11.921 129.972 11.6629 130.905 11.6629H140.107C141.04 11.6629 141.761 11.921 142.273 12.4374C142.814 12.9233 143.085 13.5004 143.085 14.1686C143.085 14.8368 142.814 15.429 142.273 15.9453C141.761 16.4313 141.04 16.6743 140.107 16.6743H130.905ZM144.889 16.6743C144.167 16.6743 143.566 16.4313 143.085 15.9453C142.603 15.429 142.363 14.8368 142.363 14.1686C142.363 13.5004 142.603 12.9233 143.085 12.4374C143.566 11.921 144.167 11.6629 144.889 11.6629H149.22C149.941 11.6629 150.543 11.921 151.024 12.4374C151.505 12.9233 151.746 13.5004 151.746 14.1686C151.746 14.8368 151.505 15.429 151.024 15.9453C150.543 16.4313 149.941 16.6743 149.22 16.6743H144.889ZM130.453 10.8428C129.732 10.8428 129.13 10.5999 128.649 10.1139C128.168 9.59757 127.927 9.00532 127.927 8.33713C127.927 7.66895 128.168 7.09188 128.649 6.60593C129.13 6.0896 129.732 5.83144 130.453 5.83144H137.671C138.393 5.83144 138.994 6.0896 139.476 6.60593C139.957 7.09188 140.197 7.66895 140.197 8.33713C140.197 9.00532 139.957 9.59757 139.476 10.1139C138.994 10.5999 138.393 10.8428 137.671 10.8428H130.453ZM144.889 10.8428C144.167 10.8428 143.566 10.5999 143.085 10.1139C142.603 9.59757 142.363 9.00532 142.363 8.33713C142.363 7.66895 142.603 7.09188 143.085 6.60593C143.566 6.0896 144.167 5.83144 144.889 5.83144H149.22C149.941 5.83144 150.543 6.0896 151.024 6.60593C151.505 7.09188 151.746 7.66895 151.746 8.33713C151.746 9.00532 151.505 9.59757 151.024 10.1139C150.543 10.5999 149.941 10.8428 149.22 10.8428H144.889ZM130.453 5.01139C129.732 5.01139 129.13 4.76842 128.649 4.28246C128.168 3.76614 127.927 3.17388 127.927 2.5057C127.927 1.83751 128.168 1.26044 128.649 0.774491C129.13 0.258166 129.732 3.70753e-06 130.453 3.70753e-06H134.784C135.506 3.70753e-06 136.107 0.258166 136.589 0.774491C137.07 1.26044 137.31 1.83751 137.31 2.5057C137.31 3.17388 137.07 3.76614 136.589 4.28246C136.107 4.76842 135.506 5.01139 134.784 5.01139H130.453ZM144.889 5.01139C144.167 5.01139 143.566 4.76842 143.085 4.28246C142.603 3.76614 142.363 3.17388 142.363 2.5057C142.363 1.83751 142.603 1.26044 143.085 0.774491C143.566 0.258166 144.167 3.70753e-06 144.889 3.70753e-06H149.22C149.941 3.70753e-06 150.543 0.258166 151.024 0.774491C151.505 1.26044 151.746 1.83751 151.746 2.5057C151.746 3.17388 151.505 3.76614 151.024 4.28246C150.543 4.76842 149.941 5.01139 149.22 5.01139H144.889Z" fill="#252527"/>
<path d="M163.933 40C163.001 40 162.264 39.757 161.723 39.2711C161.211 38.7547 160.956 38.1625 160.956 37.4943C160.956 36.8261 161.211 36.2491 161.723 35.7631C162.264 35.2468 163.001 34.9886 163.933 34.9886H176.023C176.955 34.9886 177.677 35.2468 178.188 35.7631C178.729 36.2491 179 36.8261 179 37.4943C179 38.1625 178.729 38.7547 178.188 39.2711C177.677 39.757 176.955 40 176.023 40H163.933ZM160.595 34.1686C159.873 34.1686 159.271 33.9256 158.79 33.4396C158.309 32.9233 158.069 32.3311 158.069 31.6629C158.069 30.9947 158.309 30.4176 158.79 29.9317C159.271 29.4153 159.873 29.1572 160.595 29.1572H164.925C165.647 29.1572 166.249 29.4153 166.73 29.9317C167.211 30.4176 167.452 30.9947 167.452 31.6629C167.452 32.3311 167.211 32.9233 166.73 33.4396C166.249 33.9256 165.647 34.1686 164.925 34.1686H160.595ZM172.143 34.1686C171.421 34.1686 170.82 33.9256 170.339 33.4396C169.858 32.9233 169.617 32.3311 169.617 31.6629C169.617 30.9947 169.858 30.4176 170.339 29.9317C170.82 29.4153 171.421 29.1572 172.143 29.1572H176.474C177.196 29.1572 177.797 29.4153 178.278 29.9317C178.759 30.4176 179 30.9947 179 31.6629C179 32.3311 178.759 32.9233 178.278 33.4396C177.797 33.9256 177.196 34.1686 176.474 34.1686H172.143ZM157.708 28.3371C156.986 28.3371 156.384 28.0942 155.903 27.6082C155.422 27.0919 155.181 26.4996 155.181 25.8314C155.181 25.1632 155.422 24.5862 155.903 24.1002C156.384 23.5839 156.986 23.3257 157.708 23.3257H162.038C162.76 23.3257 163.362 23.5839 163.843 24.1002C164.324 24.5862 164.565 25.1632 164.565 25.8314C164.565 26.4996 164.324 27.0919 163.843 27.6082C163.362 28.0942 162.76 28.3371 162.038 28.3371H157.708ZM172.143 28.3371C171.421 28.3371 170.82 28.0942 170.339 27.6082C169.858 27.0919 169.617 26.4996 169.617 25.8314C169.617 25.1632 169.858 24.5862 170.339 24.1002C170.82 23.5839 171.421 23.3257 172.143 23.3257H176.474C177.196 23.3257 177.797 23.5839 178.278 24.1002C178.759 24.5862 179 25.1632 179 25.8314C179 26.4996 178.759 27.0919 178.278 27.6082C177.797 28.0942 177.196 28.3371 176.474 28.3371H172.143ZM157.708 22.5057C156.986 22.5057 156.384 22.2627 155.903 21.7768C155.422 21.2604 155.181 20.6682 155.181 20C155.181 19.3318 155.422 18.7547 155.903 18.2688C156.384 17.7525 156.986 17.4943 157.708 17.4943H162.038C162.76 17.4943 163.362 17.7525 163.843 18.2688C164.324 18.7547 164.565 19.3318 164.565 20C164.565 20.6682 164.324 21.2604 163.843 21.7768C163.362 22.2627 162.76 22.5057 162.038 22.5057H157.708ZM169.256 22.5057C168.534 22.5057 167.933 22.2627 167.452 21.7768C166.97 21.2604 166.73 20.6682 166.73 20C166.73 19.3318 166.97 18.7547 167.452 18.2688C167.933 17.7525 168.534 17.4943 169.256 17.4943H176.474C177.196 17.4943 177.797 17.7525 178.278 18.2688C178.759 18.7547 179 19.3318 179 20C179 20.6682 178.759 21.2604 178.278 21.7768C177.797 22.2627 177.196 22.5057 176.474 22.5057H169.256ZM157.708 16.6743C156.986 16.6743 156.384 16.4313 155.903 15.9453C155.422 15.429 155.181 14.8368 155.181 14.1686C155.181 13.5004 155.422 12.9233 155.903 12.4374C156.384 11.921 156.986 11.6629 157.708 11.6629H162.038C162.76 11.6629 163.362 11.921 163.843 12.4374C164.324 12.9233 164.565 13.5004 164.565 14.1686C164.565 14.8368 164.324 15.429 163.843 15.9453C163.362 16.4313 162.76 16.6743 162.038 16.6743H157.708ZM160.595 10.8428C159.873 10.8428 159.271 10.5999 158.79 10.1139C158.309 9.59757 158.069 9.00532 158.069 8.33713C158.069 7.66895 158.309 7.09188 158.79 6.60593C159.271 6.0896 159.873 5.83144 160.595 5.83144H164.925C165.647 5.83144 166.249 6.0896 166.73 6.60593C167.211 7.09188 167.452 7.66895 167.452 8.33713C167.452 9.00532 167.211 9.59757 166.73 10.1139C166.249 10.5999 165.647 10.8428 164.925 10.8428H160.595ZM172.143 10.8428C171.421 10.8428 170.82 10.5999 170.339 10.1139C169.858 9.59757 169.617 9.00532 169.617 8.33713C169.617 7.66895 169.858 7.09188 170.339 6.60593C170.82 6.0896 171.421 5.83144 172.143 5.83144H176.474C177.196 5.83144 177.797 6.0896 178.278 6.60593C178.759 7.09188 179 7.66895 179 8.33713C179 9.00532 178.759 9.59757 178.278 10.1139C177.797 10.5999 177.196 10.8428 176.474 10.8428H172.143ZM163.933 5.01139C163.001 5.01139 162.264 4.76842 161.723 4.28246C161.211 3.76614 160.956 3.17388 160.956 2.5057C160.956 1.83751 161.211 1.26044 161.723 0.774491C162.264 0.258166 163.001 3.70753e-06 163.933 3.70753e-06H173.136C174.068 3.70753e-06 174.79 0.258166 175.301 0.774491C175.842 1.26044 176.113 1.83751 176.113 2.5057C176.113 3.17388 175.842 3.76614 175.301 4.28246C174.79 4.76842 174.068 5.01139 173.136 5.01139H163.933Z" fill="#252527"/>
<path d="M248.609 40C247.24 40 246.158 39.757 245.364 39.2711C244.613 38.7547 244.238 38.1625 244.238 37.4943C244.238 36.8261 244.613 36.2491 245.364 35.7631C246.158 35.2468 247.24 34.9886 248.609 34.9886H262.118C263.486 34.9886 264.546 35.2468 265.296 35.7631C266.091 36.2491 266.488 36.8261 266.488 37.4943C266.488 38.1625 266.091 38.7547 265.296 39.2711C264.546 39.757 263.486 40 262.118 40H248.609ZM243.708 34.1686C242.649 34.1686 241.766 33.9256 241.06 33.4396C240.353 32.9233 240 32.3311 240 31.6629C240 30.9947 240.353 30.4176 241.06 29.9317C241.766 29.4153 242.649 29.1572 243.708 29.1572H250.065C251.125 29.1572 252.008 29.4153 252.714 29.9317C253.421 30.4176 253.774 30.9947 253.774 31.6629C253.774 32.3311 253.421 32.9233 252.714 33.4396C252.008 33.9256 251.125 34.1686 250.065 34.1686H243.708ZM260.661 34.1686C259.601 34.1686 258.718 33.9256 258.012 33.4396C257.306 32.9233 256.952 32.3311 256.952 31.6629C256.952 30.9947 257.306 30.4176 258.012 29.9317C258.718 29.4153 259.601 29.1572 260.661 29.1572H267.018C268.077 29.1572 268.96 29.4153 269.667 29.9317C270.373 30.4176 270.726 30.9947 270.726 31.6629C270.726 32.3311 270.373 32.9233 269.667 33.4396C268.96 33.9256 268.077 34.1686 267.018 34.1686H260.661ZM256.423 28.3371C255.363 28.3371 254.48 28.0942 253.774 27.6082C253.067 27.0919 252.714 26.4996 252.714 25.8314C252.714 25.1632 253.067 24.5862 253.774 24.1002C254.48 23.5839 255.363 23.3257 256.423 23.3257H267.018C268.077 23.3257 268.96 23.5839 269.667 24.1002C270.373 24.5862 270.726 25.1632 270.726 25.8314C270.726 26.4996 270.373 27.0919 269.667 27.6082C268.96 28.0942 268.077 28.3371 267.018 28.3371H256.423ZM247.946 22.5057C246.887 22.5057 246.004 22.2627 245.298 21.7768C244.591 21.2604 244.238 20.6682 244.238 20C244.238 19.3318 244.591 18.7547 245.298 18.2688C246.004 17.7525 246.887 17.4943 247.946 17.4943H258.542C259.601 17.4943 260.484 17.7525 261.19 18.2688C261.897 18.7547 262.25 19.3318 262.25 20C262.25 20.6682 261.897 21.2604 261.19 21.7768C260.484 22.2627 259.601 22.5057 258.542 22.5057H247.946ZM243.708 16.6743C242.649 16.6743 241.766 16.4313 241.06 15.9453C240.353 15.429 240 14.8368 240 14.1686C240 13.5004 240.353 12.9233 241.06 12.4374C241.766 11.921 242.649 11.6629 243.708 11.6629H254.304C255.363 11.6629 256.246 11.921 256.952 12.4374C257.659 12.9233 258.012 13.5004 258.012 14.1686C258.012 14.8368 257.659 15.429 256.952 15.9453C256.246 16.4313 255.363 16.6743 254.304 16.6743H243.708ZM243.708 10.8428C242.649 10.8428 241.766 10.5998 241.06 10.1139C240.353 9.59757 240 9.00531 240 8.33713C240 7.66894 240.353 7.09188 241.06 6.60592C241.766 6.0896 242.649 5.83144 243.708 5.83144H250.065C251.125 5.83144 252.008 6.0896 252.714 6.60592C253.421 7.09188 253.774 7.66894 253.774 8.33713C253.774 9.00531 253.421 9.59757 252.714 10.1139C252.008 10.5998 251.125 10.8428 250.065 10.8428H243.708ZM260.661 10.8428C259.601 10.8428 258.718 10.5998 258.012 10.1139C257.306 9.59757 256.952 9.00531 256.952 8.33713C256.952 7.66894 257.306 7.09188 258.012 6.60592C258.718 6.0896 259.601 5.83144 260.661 5.83144H267.018C268.077 5.83144 268.96 6.0896 269.667 6.60592C270.373 7.09188 270.726 7.66894 270.726 8.33713C270.726 9.00531 270.373 9.59757 269.667 10.1139C268.96 10.5998 268.077 10.8428 267.018 10.8428H260.661ZM248.609 5.01139C247.24 5.01139 246.158 4.76841 245.364 4.28246C244.613 3.76613 244.238 3.17388 244.238 2.50569C244.238 1.83751 244.613 1.26044 245.364 0.774487C246.158 0.258162 247.24 0 248.609 0H262.118C263.486 0 264.546 0.258162 265.296 0.774487C266.091 1.26044 266.488 1.83751 266.488 2.50569C266.488 3.17388 266.091 3.76613 265.296 4.28246C264.546 4.76841 263.486 5.01139 262.118 5.01139H248.609Z" fill="#252527"/>
<path d="M283.651 40C282.282 40 281.2 39.757 280.406 39.2711C279.655 38.7547 279.28 38.1625 279.28 37.4943C279.28 36.8261 279.655 36.2491 280.406 35.7631C281.2 35.2468 282.282 34.9886 283.651 34.9886H297.16C298.528 34.9886 299.588 35.2468 300.338 35.7631C301.133 36.2491 301.53 36.8261 301.53 37.4943C301.53 38.1625 301.133 38.7547 300.338 39.2711C299.588 39.757 298.528 40 297.16 40H283.651ZM287.226 34.1686C286.167 34.1686 285.284 33.9256 284.578 33.4396C283.871 32.9233 283.518 32.3311 283.518 31.6629C283.518 30.9947 283.871 30.4176 284.578 29.9317C285.284 29.4153 286.167 29.1572 287.226 29.1572H293.584C294.643 29.1572 295.526 29.4153 296.232 29.9317C296.939 30.4176 297.292 30.9947 297.292 31.6629C297.292 32.3311 296.939 32.9233 296.232 33.4396C295.526 33.9256 294.643 34.1686 293.584 34.1686H287.226ZM287.226 28.3371C286.167 28.3371 285.284 28.0942 284.578 27.6082C283.871 27.0919 283.518 26.4996 283.518 25.8314C283.518 25.1632 283.871 24.5862 284.578 24.1002C285.284 23.5839 286.167 23.3257 287.226 23.3257H293.584C294.643 23.3257 295.526 23.5839 296.232 24.1002C296.939 24.5862 297.292 25.1632 297.292 25.8314C297.292 26.4996 296.939 27.0919 296.232 27.6082C295.526 28.0942 294.643 28.3371 293.584 28.3371H287.226ZM287.226 22.5057C286.167 22.5057 285.284 22.2627 284.578 21.7768C283.871 21.2604 283.518 20.6682 283.518 20C283.518 19.3318 283.871 18.7547 284.578 18.2688C285.284 17.7525 286.167 17.4943 287.226 17.4943H293.584C294.643 17.4943 295.526 17.7525 296.232 18.2688C296.939 18.7547 297.292 19.3318 297.292 20C297.292 20.6682 296.939 21.2604 296.232 21.7768C295.526 22.2627 294.643 22.5057 293.584 22.5057H287.226ZM287.226 16.6743C286.167 16.6743 285.284 16.4313 284.578 15.9453C283.871 15.429 283.518 14.8368 283.518 14.1686C283.518 13.5004 283.871 12.9233 284.578 12.4374C285.284 11.921 286.167 11.6629 287.226 11.6629H293.584C294.643 11.6629 295.526 11.921 296.232 12.4374C296.939 12.9233 297.292 13.5004 297.292 14.1686C297.292 14.8368 296.939 15.429 296.232 15.9453C295.526 16.4313 294.643 16.6743 293.584 16.6743H287.226ZM278.022 10.8428C277.183 10.8428 276.477 10.5998 275.903 10.1139C275.329 9.59757 275.042 9.00531 275.042 8.33713C275.042 7.66894 275.329 7.09188 275.903 6.60592C276.477 6.0896 277.183 5.83144 278.022 5.83144H281.598C282.437 5.83144 283.143 6.0896 283.717 6.60592C284.291 7.09188 284.578 7.66894 284.578 8.33713C284.578 9.00531 284.291 9.59757 283.717 10.1139C283.143 10.5998 282.437 10.8428 281.598 10.8428H278.022ZM287.226 10.8428C286.167 10.8428 285.284 10.5998 284.578 10.1139C283.871 9.59757 283.518 9.00531 283.518 8.33713C283.518 7.66894 283.871 7.09188 284.578 6.60592C285.284 6.0896 286.167 5.83144 287.226 5.83144H293.584C294.643 5.83144 295.526 6.0896 296.232 6.60592C296.939 7.09188 297.292 7.66894 297.292 8.33713C297.292 9.00531 296.939 9.59757 296.232 10.1139C295.526 10.5998 294.643 10.8428 293.584 10.8428H287.226ZM299.212 10.8428C298.374 10.8428 297.667 10.5998 297.093 10.1139C296.519 9.59757 296.232 9.00531 296.232 8.33713C296.232 7.66894 296.519 7.09188 297.093 6.60592C297.667 6.0896 298.374 5.83144 299.212 5.83144H302.788C303.627 5.83144 304.333 6.0896 304.907 6.60592C305.481 7.09188 305.768 7.66894 305.768 8.33713C305.768 9.00531 305.481 9.59757 304.907 10.1139C304.333 10.5998 303.627 10.8428 302.788 10.8428H299.212ZM279.412 5.01139C278.044 5.01139 276.962 4.76841 276.168 4.28246C275.417 3.76613 275.042 3.17388 275.042 2.50569C275.042 1.83751 275.417 1.26044 276.168 0.774487C276.962 0.258162 278.044 0 279.412 0H301.398C302.766 0 303.826 0.258162 304.576 0.774487C305.371 1.26044 305.768 1.83751 305.768 2.50569C305.768 3.17388 305.371 3.76613 304.576 4.28246C303.826 4.76841 302.766 5.01139 301.398 5.01139H279.412Z" fill="#252527"/>
<path d="M311.518 40C310.458 40 309.575 39.757 308.869 39.2711C308.163 38.7547 307.81 38.1625 307.81 37.4943C307.81 36.8261 308.163 36.2491 308.869 35.7631C309.575 35.2468 310.458 34.9886 311.518 34.9886H317.875C318.935 34.9886 319.817 35.2468 320.524 35.7631C321.23 36.2491 321.583 36.8261 321.583 37.4943C321.583 38.1625 321.23 38.7547 320.524 39.2711C319.817 39.757 318.935 40 317.875 40H311.518ZM336.946 40C335.887 40 335.004 39.757 334.298 39.2711C333.591 38.7547 333.238 38.1625 333.238 37.4943C333.238 36.8261 333.591 36.2491 334.298 35.7631C335.004 35.2468 335.887 34.9886 336.946 34.9886H343.304C344.363 34.9886 345.246 35.2468 345.952 35.7631C346.659 36.2491 347.012 36.8261 347.012 37.4943C347.012 38.1625 346.659 38.7547 345.952 39.2711C345.246 39.757 344.363 40 343.304 40H336.946ZM311.518 34.1686C310.458 34.1686 309.575 33.9256 308.869 33.4396C308.163 32.9233 307.81 32.3311 307.81 31.6629C307.81 30.9947 308.163 30.4176 308.869 29.9317C309.575 29.4153 310.458 29.1572 311.518 29.1572H317.875C318.935 29.1572 319.817 29.4153 320.524 29.9317C321.23 30.4176 321.583 30.9947 321.583 31.6629C321.583 32.3311 321.23 32.9233 320.524 33.4396C319.817 33.9256 318.935 34.1686 317.875 34.1686H311.518ZM336.946 34.1686C335.887 34.1686 335.004 33.9256 334.298 33.4396C333.591 32.9233 333.238 32.3311 333.238 31.6629C333.238 30.9947 333.591 30.4176 334.298 29.9317C335.004 29.4153 335.887 29.1572 336.946 29.1572H343.304C344.363 29.1572 345.246 29.4153 345.952 29.9317C346.659 30.4176 347.012 30.9947 347.012 31.6629C347.012 32.3311 346.659 32.9233 345.952 33.4396C345.246 33.9256 344.363 34.1686 343.304 34.1686H336.946ZM316.418 28.3371C315.05 28.3371 313.968 28.0942 313.173 27.6082C312.423 27.0919 312.048 26.4996 312.048 25.8314C312.048 25.1632 312.423 24.5862 313.173 24.1002C313.968 23.5839 315.05 23.3257 316.418 23.3257H338.403C339.772 23.3257 340.831 23.5839 341.582 24.1002C342.376 24.5862 342.774 25.1632 342.774 25.8314C342.774 26.4996 342.376 27.0919 341.582 27.6082C340.831 28.0942 339.772 28.3371 338.403 28.3371H316.418ZM315.756 22.5057C314.696 22.5057 313.813 22.2627 313.107 21.7768C312.401 21.2604 312.048 20.6682 312.048 20C312.048 19.3318 312.401 18.7547 313.107 18.2688C313.813 17.7525 314.696 17.4943 315.756 17.4943H322.113C323.173 17.4943 324.056 17.7525 324.762 18.2688C325.468 18.7547 325.821 19.3318 325.821 20C325.821 20.6682 325.468 21.2604 324.762 21.7768C324.056 22.2627 323.173 22.5057 322.113 22.5057H315.756ZM332.708 22.5057C331.649 22.5057 330.766 22.2627 330.06 21.7768C329.353 21.2604 329 20.6682 329 20C329 19.3318 329.353 18.7547 330.06 18.2688C330.766 17.7525 331.649 17.4943 332.708 17.4943H339.065C340.125 17.4943 341.008 17.7525 341.714 18.2688C342.421 18.7547 342.774 19.3318 342.774 20C342.774 20.6682 342.421 21.2604 341.714 21.7768C341.008 22.2627 340.125 22.5057 339.065 22.5057H332.708ZM320.656 16.6743C319.288 16.6743 318.206 16.4313 317.411 15.9453C316.661 15.429 316.286 14.8368 316.286 14.1686C316.286 13.5004 316.661 12.9233 317.411 12.4374C318.206 11.921 319.288 11.6629 320.656 11.6629H334.165C335.534 11.6629 336.593 11.921 337.344 12.4374C338.138 12.9233 338.536 13.5004 338.536 14.1686C338.536 14.8368 338.138 15.429 337.344 15.9453C336.593 16.4313 335.534 16.6743 334.165 16.6743H320.656ZM320.656 10.8428C319.288 10.8428 318.206 10.5998 317.411 10.1139C316.661 9.59757 316.286 9.00531 316.286 8.33713C316.286 7.66894 316.661 7.09188 317.411 6.60592C318.206 6.0896 319.288 5.83144 320.656 5.83144H334.165C335.534 5.83144 336.593 6.0896 337.344 6.60592C338.138 7.09188 338.536 7.66894 338.536 8.33713C338.536 9.00531 338.138 9.59757 337.344 10.1139C336.593 10.5998 335.534 10.8428 334.165 10.8428H320.656ZM324.232 5.01139C323.173 5.01139 322.29 4.76841 321.583 4.28246C320.877 3.76613 320.524 3.17388 320.524 2.50569C320.524 1.83751 320.877 1.26044 321.583 0.774487C322.29 0.258162 323.173 0 324.232 0H330.589C331.649 0 332.532 0.258162 333.238 0.774487C333.944 1.26044 334.298 1.83751 334.298 2.50569C334.298 3.17388 333.944 3.76613 333.238 4.28246C332.532 4.76841 331.649 5.01139 330.589 5.01139H324.232Z" fill="#252527"/>
<path d="M358.799 40C357.431 40 356.349 39.757 355.554 39.2711C354.804 38.7547 354.429 38.1625 354.429 37.4943C354.429 36.8261 354.804 36.2491 355.554 35.7631C356.349 35.2468 357.431 34.9886 358.799 34.9886H372.308C373.677 34.9886 374.736 35.2468 375.487 35.7631C376.281 36.2491 376.679 36.8261 376.679 37.4943C376.679 38.1625 376.281 38.7547 375.487 39.2711C374.736 39.757 373.677 40 372.308 40H358.799ZM362.375 34.1686C361.315 34.1686 360.433 33.9256 359.726 33.4396C359.02 32.9233 358.667 32.3311 358.667 31.6629C358.667 30.9947 359.02 30.4176 359.726 29.9317C360.433 29.4153 361.315 29.1572 362.375 29.1572H368.732C369.792 29.1572 370.675 29.4153 371.381 29.9317C372.087 30.4176 372.44 30.9947 372.44 31.6629C372.44 32.3311 372.087 32.9233 371.381 33.4396C370.675 33.9256 369.792 34.1686 368.732 34.1686H362.375ZM362.375 28.3371C361.315 28.3371 360.433 28.0942 359.726 27.6082C359.02 27.0919 358.667 26.4996 358.667 25.8314C358.667 25.1632 359.02 24.5862 359.726 24.1002C360.433 23.5839 361.315 23.3257 362.375 23.3257H368.732C369.792 23.3257 370.675 23.5839 371.381 24.1002C372.087 24.5862 372.44 25.1632 372.44 25.8314C372.44 26.4996 372.087 27.0919 371.381 27.6082C370.675 28.0942 369.792 28.3371 368.732 28.3371H362.375ZM362.375 22.5057C361.315 22.5057 360.433 22.2627 359.726 21.7768C359.02 21.2604 358.667 20.6682 358.667 20C358.667 19.3318 359.02 18.7547 359.726 18.2688C360.433 17.7525 361.315 17.4943 362.375 17.4943H368.732C369.792 17.4943 370.675 17.7525 371.381 18.2688C372.087 18.7547 372.44 19.3318 372.44 20C372.44 20.6682 372.087 21.2604 371.381 21.7768C370.675 22.2627 369.792 22.5057 368.732 22.5057H362.375ZM362.375 16.6743C361.315 16.6743 360.433 16.4313 359.726 15.9453C359.02 15.429 358.667 14.8368 358.667 14.1686C358.667 13.5004 359.02 12.9233 359.726 12.4374C360.433 11.921 361.315 11.6629 362.375 11.6629H368.732C369.792 11.6629 370.675 11.921 371.381 12.4374C372.087 12.9233 372.44 13.5004 372.44 14.1686C372.44 14.8368 372.087 15.429 371.381 15.9453C370.675 16.4313 369.792 16.6743 368.732 16.6743H362.375ZM353.17 10.8428C352.332 10.8428 351.625 10.5998 351.051 10.1139C350.477 9.59757 350.19 9.00531 350.19 8.33713C350.19 7.66894 350.477 7.09188 351.051 6.60592C351.625 6.0896 352.332 5.83144 353.17 5.83144H356.746C357.585 5.83144 358.291 6.0896 358.865 6.60592C359.439 7.09188 359.726 7.66894 359.726 8.33713C359.726 9.00531 359.439 9.59757 358.865 10.1139C358.291 10.5998 357.585 10.8428 356.746 10.8428H353.17ZM362.375 10.8428C361.315 10.8428 360.433 10.5998 359.726 10.1139C359.02 9.59757 358.667 9.00531 358.667 8.33713C358.667 7.66894 359.02 7.09188 359.726 6.60592C360.433 6.0896 361.315 5.83144 362.375 5.83144H368.732C369.792 5.83144 370.675 6.0896 371.381 6.60592C372.087 7.09188 372.44 7.66894 372.44 8.33713C372.44 9.00531 372.087 9.59757 371.381 10.1139C370.675 10.5998 369.792 10.8428 368.732 10.8428H362.375ZM374.361 10.8428C373.522 10.8428 372.816 10.5998 372.242 10.1139C371.668 9.59757 371.381 9.00531 371.381 8.33713C371.381 7.66894 371.668 7.09188 372.242 6.60592C372.816 6.0896 373.522 5.83144 374.361 5.83144H377.937C378.776 5.83144 379.482 6.0896 380.056 6.60592C380.63 7.09188 380.917 7.66894 380.917 8.33713C380.917 9.00531 380.63 9.59757 380.056 10.1139C379.482 10.5998 378.776 10.8428 377.937 10.8428H374.361ZM354.561 5.01139C353.192 5.01139 352.111 4.76841 351.316 4.28246C350.566 3.76613 350.19 3.17388 350.19 2.50569C350.19 1.83751 350.566 1.26044 351.316 0.774487C352.111 0.258162 353.192 0 354.561 0H376.546C377.915 0 378.974 0.258162 379.725 0.774487C380.519 1.26044 380.917 1.83751 380.917 2.50569C380.917 3.17388 380.519 3.76613 379.725 4.28246C378.974 4.76841 377.915 5.01139 376.546 5.01139H354.561Z" fill="#252527"/>
<path d="M395.882 40C394.514 40 393.432 39.757 392.638 39.2711C391.887 38.7547 391.512 38.1625 391.512 37.4943C391.512 36.8261 391.887 36.2491 392.638 35.7631C393.432 35.2468 394.514 34.9886 395.882 34.9886H409.391C410.76 34.9886 411.819 35.2468 412.57 35.7631C413.365 36.2491 413.762 36.8261 413.762 37.4943C413.762 38.1625 413.365 38.7547 412.57 39.2711C411.819 39.757 410.76 40 409.391 40H395.882ZM390.982 34.1686C389.923 34.1686 389.04 33.9256 388.333 33.4396C387.627 32.9233 387.274 32.3311 387.274 31.6629C387.274 30.9947 387.627 30.4176 388.333 29.9317C389.04 29.4153 389.923 29.1572 390.982 29.1572H397.339C398.399 29.1572 399.282 29.4153 399.988 29.9317C400.694 30.4176 401.048 30.9947 401.048 31.6629C401.048 32.3311 400.694 32.9233 399.988 33.4396C399.282 33.9256 398.399 34.1686 397.339 34.1686H390.982ZM407.935 34.1686C406.875 34.1686 405.992 33.9256 405.286 33.4396C404.579 32.9233 404.226 32.3311 404.226 31.6629C404.226 30.9947 404.579 30.4176 405.286 29.9317C405.992 29.4153 406.875 29.1572 407.935 29.1572H414.292C415.351 29.1572 416.234 29.4153 416.94 29.9317C417.647 30.4176 418 30.9947 418 31.6629C418 32.3311 417.647 32.9233 416.94 33.4396C416.234 33.9256 415.351 34.1686 414.292 34.1686H407.935ZM403.696 28.3371C402.637 28.3371 401.754 28.0942 401.048 27.6082C400.341 27.0919 399.988 26.4996 399.988 25.8314C399.988 25.1632 400.341 24.5862 401.048 24.1002C401.754 23.5839 402.637 23.3257 403.696 23.3257H414.292C415.351 23.3257 416.234 23.5839 416.94 24.1002C417.647 24.5862 418 25.1632 418 25.8314C418 26.4996 417.647 27.0919 416.94 27.6082C416.234 28.0942 415.351 28.3371 414.292 28.3371H403.696ZM395.22 22.5057C394.161 22.5057 393.278 22.2627 392.571 21.7768C391.865 21.2604 391.512 20.6682 391.512 20C391.512 19.3318 391.865 18.7547 392.571 18.2688C393.278 17.7525 394.161 17.4943 395.22 17.4943H405.815C406.875 17.4943 407.758 17.7525 408.464 18.2688C409.171 18.7547 409.524 19.3318 409.524 20C409.524 20.6682 409.171 21.2604 408.464 21.7768C407.758 22.2627 406.875 22.5057 405.815 22.5057H395.22ZM390.982 16.6743C389.923 16.6743 389.04 16.4313 388.333 15.9453C387.627 15.429 387.274 14.8368 387.274 14.1686C387.274 13.5004 387.627 12.9233 388.333 12.4374C389.04 11.921 389.923 11.6629 390.982 11.6629H401.577C402.637 11.6629 403.52 11.921 404.226 12.4374C404.933 12.9233 405.286 13.5004 405.286 14.1686C405.286 14.8368 404.933 15.429 404.226 15.9453C403.52 16.4313 402.637 16.6743 401.577 16.6743H390.982ZM390.982 10.8428C389.923 10.8428 389.04 10.5998 388.333 10.1139C387.627 9.59757 387.274 9.00531 387.274 8.33713C387.274 7.66894 387.627 7.09188 388.333 6.60592C389.04 6.0896 389.923 5.83144 390.982 5.83144H397.339C398.399 5.83144 399.282 6.0896 399.988 6.60592C400.694 7.09188 401.048 7.66894 401.048 8.33713C401.048 9.00531 400.694 9.59757 399.988 10.1139C399.282 10.5998 398.399 10.8428 397.339 10.8428H390.982ZM407.935 10.8428C406.875 10.8428 405.992 10.5998 405.286 10.1139C404.579 9.59757 404.226 9.00531 404.226 8.33713C404.226 7.66894 404.579 7.09188 405.286 6.60592C405.992 6.0896 406.875 5.83144 407.935 5.83144H414.292C415.351 5.83144 416.234 6.0896 416.94 6.60592C417.647 7.09188 418 7.66894 418 8.33713C418 9.00531 417.647 9.59757 416.94 10.1139C416.234 10.5998 415.351 10.8428 414.292 10.8428H407.935ZM395.882 5.01139C394.514 5.01139 393.432 4.76841 392.638 4.28246C391.887 3.76613 391.512 3.17388 391.512 2.50569C391.512 1.83751 391.887 1.26044 392.638 0.774487C393.432 0.258162 394.514 0 395.882 0H409.391C410.76 0 411.819 0.258162 412.57 0.774487C413.365 1.26044 413.762 1.83751 413.762 2.50569C413.762 3.17388 413.365 3.76613 412.57 4.28246C411.819 4.76841 410.76 5.01139 409.391 5.01139H395.882Z" fill="#252527"/>
</svg>
