<svg width="410" height="40" viewBox="0 0 410 40" fill="none" xmlns="http://www.w3.org/2000/svg">
<path d="M191.318 18.7143C191.365 18.9238 191.389 19.1857 191.389 19.5C191.389 19.8012 191.365 20.0631 191.318 20.2857H188.486C188.534 20.4952 188.557 20.7571 188.557 21.0714C188.557 21.3726 188.534 21.6345 188.486 21.8571C188.534 22.0667 188.557 22.3286 188.557 22.6429C188.557 22.944 188.534 23.206 188.486 23.4286C188.534 23.6381 188.557 23.9 188.557 24.2143C188.557 24.5155 188.534 24.7774 188.486 25H187.071C187.024 24.7774 187 24.5155 187 24.2143C187 23.9 187.024 23.6381 187.071 23.4286C187.024 23.206 187 22.944 187 22.6429C187 22.3286 187.024 22.0667 187.071 21.8571C187.024 21.6345 187 21.3726 187 21.0714C187 20.7571 187.024 20.4952 187.071 20.2857C187.024 20.0631 187 19.8012 187 19.5C187 19.1857 187.024 18.9238 187.071 18.7143C187.024 18.4917 187 18.2298 187 17.9286C187 17.6143 187.024 17.3524 187.071 17.1429C187.024 16.9202 187 16.6583 187 16.3571C187 16.0429 187.024 15.781 187.071 15.5714C187.024 15.3488 187 15.0869 187 14.7857C187 14.4714 187.024 14.2095 187.071 14H191.318C191.365 14.2095 191.389 14.4714 191.389 14.7857C191.389 15.0869 191.365 15.3488 191.318 15.5714H188.486C188.534 15.781 188.557 16.0429 188.557 16.3571C188.557 16.6583 188.534 16.9202 188.486 17.1429C188.534 17.3524 188.557 17.6143 188.557 17.9286C188.557 18.2298 188.534 18.4917 188.486 18.7143H191.318Z" fill="white"/>
<path d="M198.096 18.7143C198.143 18.9238 198.166 19.1857 198.166 19.5C198.166 19.8012 198.143 20.0631 198.096 20.2857C198.143 20.4952 198.166 20.7571 198.166 21.0714C198.166 21.3726 198.143 21.6345 198.096 21.8571H197.565C197.612 22.0667 197.636 22.3286 197.636 22.6429C197.636 22.944 197.612 23.206 197.565 23.4286H196.68C196.727 23.6381 196.751 23.9 196.751 24.2143C196.751 24.5155 196.727 24.7774 196.68 25H193.849C193.802 24.7774 193.778 24.5155 193.778 24.2143C193.778 23.9 193.802 23.6381 193.849 23.4286H192.964C192.917 23.206 192.893 22.944 192.893 22.6429C192.893 22.3286 192.917 22.0667 192.964 21.8571H192.433C192.386 21.6345 192.362 21.3726 192.362 21.0714C192.362 20.7571 192.386 20.4952 192.433 20.2857C192.386 20.0631 192.362 19.8012 192.362 19.5C192.362 19.1857 192.386 18.9238 192.433 18.7143C192.386 18.4917 192.362 18.2298 192.362 17.9286C192.362 17.6143 192.386 17.3524 192.433 17.1429H192.964C192.917 16.9202 192.893 16.6583 192.893 16.3571C192.893 16.0429 192.917 15.781 192.964 15.5714H193.849C193.802 15.3488 193.778 15.0869 193.778 14.7857C193.778 14.4714 193.802 14.2095 193.849 14H196.68C196.727 14.2095 196.751 14.4714 196.751 14.7857C196.751 15.0869 196.727 15.3488 196.68 15.5714H197.565C197.612 15.781 197.636 16.0429 197.636 16.3571C197.636 16.6583 197.612 16.9202 197.565 17.1429H198.096C198.143 17.3524 198.166 17.6143 198.166 17.9286C198.166 18.2298 198.143 18.4917 198.096 18.7143ZM196.68 21.8571C196.633 21.6345 196.609 21.3726 196.609 21.0714C196.609 20.7571 196.633 20.4952 196.68 20.2857C196.633 20.0631 196.609 19.8012 196.609 19.5C196.609 19.1857 196.633 18.9238 196.68 18.7143C196.633 18.4917 196.609 18.2298 196.609 17.9286C196.609 17.6143 196.633 17.3524 196.68 17.1429H196.149C196.102 16.9202 196.078 16.6583 196.078 16.3571C196.078 16.0429 196.102 15.781 196.149 15.5714H194.38C194.427 15.781 194.45 16.0429 194.45 16.3571C194.45 16.6583 194.427 16.9202 194.38 17.1429H193.849C193.896 17.3524 193.919 17.6143 193.919 17.9286C193.919 18.2298 193.896 18.4917 193.849 18.7143C193.896 18.9238 193.919 19.1857 193.919 19.5C193.919 19.8012 193.896 20.0631 193.849 20.2857C193.896 20.4952 193.919 20.7571 193.919 21.0714C193.919 21.3726 193.896 21.6345 193.849 21.8571H194.38C194.427 22.0667 194.45 22.3286 194.45 22.6429C194.45 22.944 194.427 23.206 194.38 23.4286H196.149C196.102 23.206 196.078 22.944 196.078 22.6429C196.078 22.3286 196.102 22.0667 196.149 21.8571H196.68Z" fill="white"/>
<path d="M205.004 23.4286C205.051 23.6381 205.075 23.9 205.075 24.2143C205.075 24.5155 205.051 24.7774 205.004 25H203.588C203.541 24.7774 203.518 24.5155 203.518 24.2143C203.518 23.9 203.541 23.6381 203.588 23.4286H203.057C203.01 23.206 202.987 22.944 202.987 22.6429C202.987 22.3286 203.01 22.0667 203.057 21.8571H202.527C202.479 21.6345 202.456 21.3726 202.456 21.0714C202.456 20.7571 202.479 20.4952 202.527 20.2857H200.757C200.804 20.4952 200.828 20.7571 200.828 21.0714C200.828 21.3726 200.804 21.6345 200.757 21.8571C200.804 22.0667 200.828 22.3286 200.828 22.6429C200.828 22.944 200.804 23.206 200.757 23.4286C200.804 23.6381 200.828 23.9 200.828 24.2143C200.828 24.5155 200.804 24.7774 200.757 25H199.341C199.294 24.7774 199.271 24.5155 199.271 24.2143C199.271 23.9 199.294 23.6381 199.341 23.4286C199.294 23.206 199.271 22.944 199.271 22.6429C199.271 22.3286 199.294 22.0667 199.341 21.8571C199.294 21.6345 199.271 21.3726 199.271 21.0714C199.271 20.7571 199.294 20.4952 199.341 20.2857C199.294 20.0631 199.271 19.8012 199.271 19.5C199.271 19.1857 199.294 18.9238 199.341 18.7143C199.294 18.4917 199.271 18.2298 199.271 17.9286C199.271 17.6143 199.294 17.3524 199.341 17.1429C199.294 16.9202 199.271 16.6583 199.271 16.3571C199.271 16.0429 199.294 15.781 199.341 15.5714C199.294 15.3488 199.271 15.0869 199.271 14.7857C199.271 14.4714 199.294 14.2095 199.341 14H204.296C204.343 14.2095 204.367 14.4714 204.367 14.7857C204.367 15.0869 204.343 15.3488 204.296 15.5714H205.004C205.051 15.781 205.075 16.0429 205.075 16.3571C205.075 16.6583 205.051 16.9202 205.004 17.1429H204.65C204.697 17.3524 204.721 17.6143 204.721 17.9286C204.721 18.2298 204.697 18.4917 204.65 18.7143H203.588C203.635 18.9238 203.659 19.1857 203.659 19.5C203.659 19.8012 203.635 20.0631 203.588 20.2857H203.942C203.989 20.4952 204.013 20.7571 204.013 21.0714C204.013 21.3726 203.989 21.6345 203.942 21.8571H204.473C204.52 22.0667 204.544 22.3286 204.544 22.6429C204.544 22.944 204.52 23.206 204.473 23.4286H205.004ZM203.234 18.7143C203.187 18.4917 203.164 18.2298 203.164 17.9286C203.164 17.6143 203.187 17.3524 203.234 17.1429C203.187 16.9202 203.164 16.6583 203.164 16.3571C203.164 16.0429 203.187 15.781 203.234 15.5714H200.757C200.804 15.781 200.828 16.0429 200.828 16.3571C200.828 16.6583 200.804 16.9202 200.757 17.1429C200.804 17.3524 200.828 17.6143 200.828 17.9286C200.828 18.2298 200.804 18.4917 200.757 18.7143H203.234Z" fill="white"/>
<path d="M215.891 14.7857C215.891 15.0869 215.868 15.3488 215.821 15.5714H213.697C213.744 15.781 213.768 16.0429 213.768 16.3571C213.768 16.6583 213.744 16.9202 213.697 17.1429C213.744 17.3524 213.768 17.6143 213.768 17.9286C213.768 18.2298 213.744 18.4917 213.697 18.7143C213.744 18.9238 213.768 19.1857 213.768 19.5C213.768 19.8012 213.744 20.0631 213.697 20.2857C213.744 20.4952 213.768 20.7571 213.768 21.0714C213.768 21.3726 213.744 21.6345 213.697 21.8571C213.744 22.0667 213.768 22.3286 213.768 22.6429C213.768 22.944 213.744 23.206 213.697 23.4286C213.744 23.6381 213.768 23.9 213.768 24.2143C213.768 24.5155 213.744 24.7774 213.697 25H212.281C212.234 24.7774 212.211 24.5155 212.211 24.2143C212.211 23.9 212.234 23.6381 212.281 23.4286C212.234 23.206 212.211 22.944 212.211 22.6429C212.211 22.3286 212.234 22.0667 212.281 21.8571C212.234 21.6345 212.211 21.3726 212.211 21.0714C212.211 20.7571 212.234 20.4952 212.281 20.2857C212.234 20.0631 212.211 19.8012 212.211 19.5C212.211 19.1857 212.234 18.9238 212.281 18.7143C212.234 18.4917 212.211 18.2298 212.211 17.9286C212.211 17.6143 212.234 17.3524 212.281 17.1429C212.234 16.9202 212.211 16.6583 212.211 16.3571C212.211 16.0429 212.234 15.781 212.281 15.5714H210.158C210.111 15.3488 210.087 15.0869 210.087 14.7857C210.087 14.4714 210.111 14.2095 210.158 14H215.821C215.868 14.2095 215.891 14.4714 215.891 14.7857Z" fill="white"/>
<path d="M222.729 15.5714C222.776 15.781 222.8 16.0429 222.8 16.3571C222.8 16.6583 222.776 16.9202 222.729 17.1429C222.776 17.3524 222.8 17.6143 222.8 17.9286C222.8 18.2298 222.776 18.4917 222.729 18.7143C222.776 18.9238 222.8 19.1857 222.8 19.5C222.8 19.8012 222.776 20.0631 222.729 20.2857C222.776 20.4952 222.8 20.7571 222.8 21.0714C222.8 21.3726 222.776 21.6345 222.729 21.8571C222.776 22.0667 222.8 22.3286 222.8 22.6429C222.8 22.944 222.776 23.206 222.729 23.4286C222.776 23.6381 222.8 23.9 222.8 24.2143C222.8 24.5155 222.776 24.7774 222.729 25H221.313C221.266 24.7774 221.242 24.5155 221.242 24.2143C221.242 23.9 221.266 23.6381 221.313 23.4286C221.266 23.206 221.242 22.944 221.242 22.6429C221.242 22.3286 221.266 22.0667 221.313 21.8571C221.266 21.6345 221.242 21.3726 221.242 21.0714C221.242 20.7571 221.266 20.4952 221.313 20.2857H218.482C218.529 20.4952 218.553 20.7571 218.553 21.0714C218.553 21.3726 218.529 21.6345 218.482 21.8571C218.529 22.0667 218.553 22.3286 218.553 22.6429C218.553 22.944 218.529 23.206 218.482 23.4286C218.529 23.6381 218.553 23.9 218.553 24.2143C218.553 24.5155 218.529 24.7774 218.482 25H217.066C217.019 24.7774 216.995 24.5155 216.995 24.2143C216.995 23.9 217.019 23.6381 217.066 23.4286C217.019 23.206 216.995 22.944 216.995 22.6429C216.995 22.3286 217.019 22.0667 217.066 21.8571C217.019 21.6345 216.995 21.3726 216.995 21.0714C216.995 20.7571 217.019 20.4952 217.066 20.2857C217.019 20.0631 216.995 19.8012 216.995 19.5C216.995 19.1857 217.019 18.9238 217.066 18.7143C217.019 18.4917 216.995 18.2298 216.995 17.9286C216.995 17.6143 217.019 17.3524 217.066 17.1429C217.019 16.9202 216.995 16.6583 216.995 16.3571C216.995 16.0429 217.019 15.781 217.066 15.5714C217.019 15.3488 216.995 15.0869 216.995 14.7857C216.995 14.4714 217.019 14.2095 217.066 14H218.482C218.529 14.2095 218.553 14.4714 218.553 14.7857C218.553 15.0869 218.529 15.3488 218.482 15.5714C218.529 15.781 218.553 16.0429 218.553 16.3571C218.553 16.6583 218.529 16.9202 218.482 17.1429C218.529 17.3524 218.553 17.6143 218.553 17.9286C218.553 18.2298 218.529 18.4917 218.482 18.7143H221.313C221.266 18.4917 221.242 18.2298 221.242 17.9286C221.242 17.6143 221.266 17.3524 221.313 17.1429C221.266 16.9202 221.242 16.6583 221.242 16.3571C221.242 16.0429 221.266 15.781 221.313 15.5714C221.266 15.3488 221.242 15.0869 221.242 14.7857C221.242 14.4714 221.266 14.2095 221.313 14H222.729C222.776 14.2095 222.8 14.4714 222.8 14.7857C222.8 15.0869 222.776 15.3488 222.729 15.5714Z" fill="white"/>
<path d="M226.098 20.2857C226.145 20.4952 226.169 20.7571 226.169 21.0714C226.169 21.3726 226.145 21.6345 226.098 21.8571C226.145 22.0667 226.169 22.3286 226.169 22.6429C226.169 22.944 226.145 23.206 226.098 23.4286H228.929C228.976 23.6381 229 23.9 229 24.2143C229 24.5155 228.976 24.7774 228.929 25H224.682C224.635 24.7774 224.611 24.5155 224.611 24.2143C224.611 23.9 224.635 23.6381 224.682 23.4286C224.635 23.206 224.611 22.944 224.611 22.6429C224.611 22.3286 224.635 22.0667 224.682 21.8571C224.635 21.6345 224.611 21.3726 224.611 21.0714C224.611 20.7571 224.635 20.4952 224.682 20.2857C224.635 20.0631 224.611 19.8012 224.611 19.5C224.611 19.1857 224.635 18.9238 224.682 18.7143C224.635 18.4917 224.611 18.2298 224.611 17.9286C224.611 17.6143 224.635 17.3524 224.682 17.1429C224.635 16.9202 224.611 16.6583 224.611 16.3571C224.611 16.0429 224.635 15.781 224.682 15.5714C224.635 15.3488 224.611 15.0869 224.611 14.7857C224.611 14.4714 224.635 14.2095 224.682 14H228.929C228.976 14.2095 229 14.4714 229 14.7857C229 15.0869 228.976 15.3488 228.929 15.5714H226.098C226.145 15.781 226.169 16.0429 226.169 16.3571C226.169 16.6583 226.145 16.9202 226.098 17.1429C226.145 17.3524 226.169 17.6143 226.169 17.9286C226.169 18.2298 226.145 18.4917 226.098 18.7143H228.929C228.976 18.9238 229 19.1857 229 19.5C229 19.8012 228.976 20.0631 228.929 20.2857H226.098Z" fill="white"/>
<path d="M5.86441 40C4.93212 40 4.19531 39.757 3.65398 39.2711C3.14273 38.7547 2.8871 38.1625 2.8871 37.4943C2.8871 36.8261 3.14273 36.249 3.65398 35.7631C4.19531 35.2468 4.93212 34.9886 5.86441 34.9886H15.067C15.9993 34.9886 16.7211 35.2468 17.2324 35.7631C17.7737 36.249 18.0444 36.8261 18.0444 37.4943C18.0444 38.1625 17.7737 38.7547 17.2324 39.2711C16.7211 39.757 15.9993 40 15.067 40H5.86441ZM2.52621 34.1686C1.80444 34.1686 1.20296 33.9256 0.721774 33.4396C0.240591 32.9233 0 32.3311 0 31.6629C0 30.9947 0.240591 30.4176 0.721774 29.9317C1.20296 29.4153 1.80444 29.1572 2.52621 29.1572H6.85685C7.57863 29.1572 8.18011 29.4153 8.66129 29.9317C9.14247 30.4176 9.38306 30.9947 9.38306 31.6629C9.38306 32.3311 9.14247 32.9233 8.66129 33.4396C8.18011 33.9256 7.57863 34.1686 6.85685 34.1686H2.52621ZM14.0746 34.1686C13.3528 34.1686 12.7513 33.9256 12.2702 33.4396C11.789 32.9233 11.5484 32.3311 11.5484 31.6629C11.5484 30.9947 11.789 30.4176 12.2702 29.9317C12.7513 29.4153 13.3528 29.1572 14.0746 29.1572H18.4052C19.127 29.1572 19.7285 29.4153 20.2097 29.9317C20.6909 30.4176 20.9315 30.9947 20.9315 31.6629C20.9315 32.3311 20.6909 32.9233 20.2097 33.4396C19.7285 33.9256 19.127 34.1686 18.4052 34.1686H14.0746ZM11.1875 28.3371C10.4657 28.3371 9.86425 28.0942 9.38306 27.6082C8.90188 27.0919 8.66129 26.4996 8.66129 25.8314C8.66129 25.1632 8.90188 24.5862 9.38306 24.1002C9.86425 23.5839 10.4657 23.3257 11.1875 23.3257H18.4052C19.127 23.3257 19.7285 23.5839 20.2097 24.1002C20.6909 24.5862 20.9315 25.1632 20.9315 25.8314C20.9315 26.4996 20.6909 27.0919 20.2097 27.6082C19.7285 28.0942 19.127 28.3371 18.4052 28.3371H11.1875ZM5.41331 22.5057C4.69153 22.5057 4.09005 22.2627 3.60887 21.7768C3.12769 21.2604 2.8871 20.6682 2.8871 20C2.8871 19.3318 3.12769 18.7547 3.60887 18.2688C4.09005 17.7525 4.69153 17.4943 5.41331 17.4943H12.631C13.3528 17.4943 13.9543 17.7525 14.4355 18.2688C14.9167 18.7547 15.1573 19.3318 15.1573 20C15.1573 20.6682 14.9167 21.2604 14.4355 21.7768C13.9543 22.2627 13.3528 22.5057 12.631 22.5057H5.41331ZM2.52621 16.6743C1.80444 16.6743 1.20296 16.4313 0.721774 15.9453C0.240591 15.429 0 14.8368 0 14.1686C0 13.5004 0.240591 12.9233 0.721774 12.4374C1.20296 11.921 1.80444 11.6629 2.52621 11.6629H9.74395C10.4657 11.6629 11.0672 11.921 11.5484 12.4374C12.0296 12.9233 12.2702 13.5004 12.2702 14.1686C12.2702 14.8368 12.0296 15.429 11.5484 15.9453C11.0672 16.4313 10.4657 16.6743 9.74395 16.6743H2.52621ZM2.52621 10.8428C1.80444 10.8428 1.20296 10.5998 0.721774 10.1139C0.240591 9.59757 0 9.00532 0 8.33713C0 7.66895 0.240591 7.09188 0.721774 6.60592C1.20296 6.0896 1.80444 5.83144 2.52621 5.83144H6.85685C7.57863 5.83144 8.18011 6.0896 8.66129 6.60592C9.14247 7.09188 9.38306 7.66895 9.38306 8.33713C9.38306 9.00532 9.14247 9.59757 8.66129 10.1139C8.18011 10.5998 7.57863 10.8428 6.85685 10.8428H2.52621ZM14.0746 10.8428C13.3528 10.8428 12.7513 10.5998 12.2702 10.1139C11.789 9.59757 11.5484 9.00532 11.5484 8.33713C11.5484 7.66895 11.789 7.09188 12.2702 6.60592C12.7513 6.0896 13.3528 5.83144 14.0746 5.83144H18.4052C19.127 5.83144 19.7285 6.0896 20.2097 6.60592C20.6909 7.09188 20.9315 7.66895 20.9315 8.33713C20.9315 9.00532 20.6909 9.59757 20.2097 10.1139C19.7285 10.5998 19.127 10.8428 18.4052 10.8428H14.0746ZM5.86441 5.01139C4.93212 5.01139 4.19531 4.76841 3.65398 4.28246C3.14273 3.76614 2.8871 3.17388 2.8871 2.5057C2.8871 1.83751 3.14273 1.26044 3.65398 0.774489C4.19531 0.258164 4.93212 1.7379e-06 5.86441 1.7379e-06H15.067C15.9993 1.7379e-06 16.7211 0.258164 17.2324 0.774489C17.7737 1.26044 18.0444 1.83751 18.0444 2.5057C18.0444 3.17388 17.7737 3.76614 17.2324 4.28246C16.7211 4.76841 15.9993 5.01139 15.067 5.01139H5.86441Z" fill="white"/>
<path d="M26.5409 40C25.6086 40 24.8717 39.757 24.3304 39.2711C23.8192 38.7547 23.5635 38.1625 23.5635 37.4943C23.5635 36.8261 23.8192 36.2491 24.3304 35.7631C24.8717 35.2468 25.6086 34.9886 26.5409 34.9886H41.5177C42.45 34.9886 43.1717 35.2468 43.683 35.7631C44.2243 36.2491 44.495 36.8261 44.495 37.4943C44.495 38.1625 44.2243 38.7547 43.683 39.2711C43.1717 39.757 42.45 40 41.5177 40H26.5409ZM31.8639 34.1686C31.1422 34.1686 30.5407 33.9256 30.0595 33.4396C29.5783 32.9233 29.3377 32.3311 29.3377 31.6629C29.3377 30.9947 29.5783 30.4176 30.0595 29.9317C30.5407 29.4153 31.1422 29.1572 31.8639 29.1572H36.1946C36.9164 29.1572 37.5178 29.4153 37.999 29.9317C38.4802 30.4176 38.7208 30.9947 38.7208 31.6629C38.7208 32.3311 38.4802 32.9233 37.999 33.4396C37.5178 33.9256 36.9164 34.1686 36.1946 34.1686H31.8639ZM31.8639 28.3371C31.1422 28.3371 30.5407 28.0942 30.0595 27.6082C29.5783 27.0919 29.3377 26.4996 29.3377 25.8314C29.3377 25.1632 29.5783 24.5862 30.0595 24.1002C30.5407 23.5839 31.1422 23.3257 31.8639 23.3257H36.1946C36.9164 23.3257 37.5178 23.5839 37.999 24.1002C38.4802 24.5862 38.7208 25.1632 38.7208 25.8314C38.7208 26.4996 38.4802 27.0919 37.999 27.6082C37.5178 28.0942 36.9164 28.3371 36.1946 28.3371H31.8639ZM31.8639 22.5057C31.1422 22.5057 30.5407 22.2627 30.0595 21.7768C29.5783 21.2604 29.3377 20.6682 29.3377 20C29.3377 19.3318 29.5783 18.7547 30.0595 18.2688C30.5407 17.7525 31.1422 17.4943 31.8639 17.4943H36.1946C36.9164 17.4943 37.5178 17.7525 37.999 18.2688C38.4802 18.7547 38.7208 19.3318 38.7208 20C38.7208 20.6682 38.4802 21.2604 37.999 21.7768C37.5178 22.2627 36.9164 22.5057 36.1946 22.5057H31.8639ZM31.8639 16.6743C31.1422 16.6743 30.5407 16.4313 30.0595 15.9453C29.5783 15.429 29.3377 14.8368 29.3377 14.1686C29.3377 13.5004 29.5783 12.9233 30.0595 12.4374C30.5407 11.921 31.1422 11.6629 31.8639 11.6629H36.1946C36.9164 11.6629 37.5178 11.921 37.999 12.4374C38.4802 12.9233 38.7208 13.5004 38.7208 14.1686C38.7208 14.8368 38.4802 15.429 37.999 15.9453C37.5178 16.4313 36.9164 16.6743 36.1946 16.6743H31.8639ZM31.8639 10.8428C31.1422 10.8428 30.5407 10.5999 30.0595 10.1139C29.5783 9.59758 29.3377 9.00532 29.3377 8.33713C29.3377 7.66895 29.5783 7.09188 30.0595 6.60593C30.5407 6.0896 31.1422 5.83144 31.8639 5.83144H36.1946C36.9164 5.83144 37.5178 6.0896 37.999 6.60593C38.4802 7.09188 38.7208 7.66895 38.7208 8.33713C38.7208 9.00532 38.4802 9.59758 37.999 10.1139C37.5178 10.5999 36.9164 10.8428 36.1946 10.8428H31.8639ZM26.5409 5.01139C25.6086 5.01139 24.8717 4.76842 24.3304 4.28246C23.8192 3.76614 23.5635 3.17388 23.5635 2.5057C23.5635 1.83751 23.8192 1.26045 24.3304 0.774493C24.8717 0.258168 25.6086 5.44543e-06 26.5409 5.44543e-06H41.5177C42.45 5.44543e-06 43.1717 0.258168 43.683 0.774493C44.2243 1.26045 44.495 1.83751 44.495 2.5057C44.495 3.17388 44.2243 3.76614 43.683 4.28246C43.1717 4.76842 42.45 5.01139 41.5177 5.01139H26.5409Z" fill="white"/>
<path d="M50.4568 40C49.7351 40 49.1336 39.757 48.6524 39.2711C48.1712 38.7547 47.9306 38.1625 47.9306 37.4943C47.9306 36.8261 48.1712 36.2491 48.6524 35.7631C49.1336 35.2468 49.7351 34.9886 50.4568 34.9886H54.7875C55.5093 34.9886 56.1107 35.2468 56.5919 35.7631C57.0731 36.2491 57.3137 36.8261 57.3137 37.4943C57.3137 38.1625 57.0731 38.7547 56.5919 39.2711C56.1107 39.757 55.5093 40 54.7875 40H50.4568ZM64.8923 40C64.1706 40 63.5691 39.757 63.0879 39.2711C62.6067 38.7547 62.3661 38.1625 62.3661 37.4943C62.3661 36.8261 62.6067 36.2491 63.0879 35.7631C63.5691 35.2468 64.1706 34.9886 64.8923 34.9886H69.223C69.9448 34.9886 70.5462 35.2468 71.0274 35.7631C71.5086 36.2491 71.7492 36.8261 71.7492 37.4943C71.7492 38.1625 71.5086 38.7547 71.0274 39.2711C70.5462 39.757 69.9448 40 69.223 40H64.8923ZM50.4568 34.1686C49.7351 34.1686 49.1336 33.9256 48.6524 33.4396C48.1712 32.9233 47.9306 32.3311 47.9306 31.6629C47.9306 30.9947 48.1712 30.4176 48.6524 29.9317C49.1336 29.4153 49.7351 29.1572 50.4568 29.1572H54.7875C55.5093 29.1572 56.1107 29.4153 56.5919 29.9317C57.0731 30.4176 57.3137 30.9947 57.3137 31.6629C57.3137 32.3311 57.0731 32.9233 56.5919 33.4396C56.1107 33.9256 55.5093 34.1686 54.7875 34.1686H50.4568ZM64.8923 34.1686C64.1706 34.1686 63.5691 33.9256 63.0879 33.4396C62.6067 32.9233 62.3661 32.3311 62.3661 31.6629C62.3661 30.9947 62.6067 30.4176 63.0879 29.9317C63.5691 29.4153 64.1706 29.1572 64.8923 29.1572H69.223C69.9448 29.1572 70.5462 29.4153 71.0274 29.9317C71.5086 30.4176 71.7492 30.9947 71.7492 31.6629C71.7492 32.3311 71.5086 32.9233 71.0274 33.4396C70.5462 33.9256 69.9448 34.1686 69.223 34.1686H64.8923ZM50.4568 28.3371C49.7351 28.3371 49.1336 28.0942 48.6524 27.6082C48.1712 27.0919 47.9306 26.4996 47.9306 25.8314C47.9306 25.1632 48.1712 24.5862 48.6524 24.1002C49.1336 23.5839 49.7351 23.3257 50.4568 23.3257H54.7875C55.5093 23.3257 56.1107 23.5839 56.5919 24.1002C57.0731 24.5862 57.3137 25.1632 57.3137 25.8314C57.3137 26.4996 57.0731 27.0919 56.5919 27.6082C56.1107 28.0942 55.5093 28.3371 54.7875 28.3371H50.4568ZM62.0052 28.3371C61.2835 28.3371 60.682 28.0942 60.2008 27.6082C59.7196 27.0919 59.479 26.4996 59.479 25.8314C59.479 25.1632 59.7196 24.5862 60.2008 24.1002C60.682 23.5839 61.2835 23.3257 62.0052 23.3257H69.223C69.9448 23.3257 70.5462 23.5839 71.0274 24.1002C71.5086 24.5862 71.7492 25.1632 71.7492 25.8314C71.7492 26.4996 71.5086 27.0919 71.0274 27.6082C70.5462 28.0942 69.9448 28.3371 69.223 28.3371H62.0052ZM50.4568 22.5057C49.7351 22.5057 49.1336 22.2627 48.6524 21.7768C48.1712 21.2604 47.9306 20.6682 47.9306 20C47.9306 19.3318 48.1712 18.7547 48.6524 18.2688C49.1336 17.7525 49.7351 17.4943 50.4568 17.4943H54.7875C55.5093 17.4943 56.1107 17.7525 56.5919 18.2688C57.0731 18.7547 57.3137 19.3318 57.3137 20C57.3137 20.6682 57.0731 21.2604 56.5919 21.7768C56.1107 22.2627 55.5093 22.5057 54.7875 22.5057H50.4568ZM59.5692 22.5057C58.637 22.5057 57.9001 22.2627 57.3588 21.7768C56.8475 21.2604 56.5919 20.6682 56.5919 20C56.5919 19.3318 56.8475 18.7547 57.3588 18.2688C57.9001 17.7525 58.637 17.4943 59.5692 17.4943H68.7719C69.7042 17.4943 70.4259 17.7525 70.9372 18.2688C71.4785 18.7547 71.7492 19.3318 71.7492 20C71.7492 20.6682 71.4785 21.2604 70.9372 21.7768C70.4259 22.2627 69.7042 22.5057 68.7719 22.5057H59.5692ZM50.9079 16.6743C49.9757 16.6743 49.2539 16.4313 48.7426 15.9453C48.2013 15.429 47.9306 14.8368 47.9306 14.1686C47.9306 13.5004 48.2013 12.9233 48.7426 12.4374C49.2539 11.921 49.9757 11.6629 50.9079 11.6629H60.1106C61.0429 11.6629 61.7646 11.921 62.2759 12.4374C62.8172 12.9233 63.0879 13.5004 63.0879 14.1686C63.0879 14.8368 62.8172 15.429 62.2759 15.9453C61.7646 16.4313 61.0429 16.6743 60.1106 16.6743H50.9079ZM64.8923 16.6743C64.1706 16.6743 63.5691 16.4313 63.0879 15.9453C62.6067 15.429 62.3661 14.8368 62.3661 14.1686C62.3661 13.5004 62.6067 12.9233 63.0879 12.4374C63.5691 11.921 64.1706 11.6629 64.8923 11.6629H69.223C69.9448 11.6629 70.5462 11.921 71.0274 12.4374C71.5086 12.9233 71.7492 13.5004 71.7492 14.1686C71.7492 14.8368 71.5086 15.429 71.0274 15.9453C70.5462 16.4313 69.9448 16.6743 69.223 16.6743H64.8923ZM50.4568 10.8428C49.7351 10.8428 49.1336 10.5999 48.6524 10.1139C48.1712 9.59758 47.9306 9.00532 47.9306 8.33713C47.9306 7.66895 48.1712 7.09188 48.6524 6.60593C49.1336 6.0896 49.7351 5.83144 50.4568 5.83144H57.6746C58.3964 5.83144 58.9978 6.0896 59.479 6.60593C59.9602 7.09188 60.2008 7.66895 60.2008 8.33713C60.2008 9.00532 59.9602 9.59758 59.479 10.1139C58.9978 10.5999 58.3964 10.8428 57.6746 10.8428H50.4568ZM64.8923 10.8428C64.1706 10.8428 63.5691 10.5999 63.0879 10.1139C62.6067 9.59758 62.3661 9.00532 62.3661 8.33713C62.3661 7.66895 62.6067 7.09188 63.0879 6.60593C63.5691 6.0896 64.1706 5.83144 64.8923 5.83144H69.223C69.9448 5.83144 70.5462 6.0896 71.0274 6.60593C71.5086 7.09188 71.7492 7.66895 71.7492 8.33713C71.7492 9.00532 71.5086 9.59758 71.0274 10.1139C70.5462 10.5999 69.9448 10.8428 69.223 10.8428H64.8923ZM50.4568 5.01139C49.7351 5.01139 49.1336 4.76842 48.6524 4.28246C48.1712 3.76614 47.9306 3.17388 47.9306 2.5057C47.9306 1.83751 48.1712 1.26045 48.6524 0.774493C49.1336 0.258168 49.7351 5.44543e-06 50.4568 5.44543e-06H54.7875C55.5093 5.44543e-06 56.1107 0.258168 56.5919 0.774493C57.0731 1.26045 57.3137 1.83751 57.3137 2.5057C57.3137 3.17388 57.0731 3.76614 56.5919 4.28246C56.1107 4.76842 55.5093 5.01139 54.7875 5.01139H50.4568ZM64.8923 5.01139C64.1706 5.01139 63.5691 4.76842 63.0879 4.28246C62.6067 3.76614 62.3661 3.17388 62.3661 2.5057C62.3661 1.83751 62.6067 1.26045 63.0879 0.774493C63.5691 0.258168 64.1706 5.44543e-06 64.8923 5.44543e-06H69.223C69.9448 5.44543e-06 70.5462 0.258168 71.0274 0.774493C71.5086 1.26045 71.7492 1.83751 71.7492 2.5057C71.7492 3.17388 71.5086 3.76614 71.0274 4.28246C70.5462 4.76842 69.9448 5.01139 69.223 5.01139H64.8923Z" fill="white"/>
<path d="M84.6966 40C83.7643 40 83.0275 39.757 82.4862 39.2711C81.9749 38.7547 81.7193 38.1625 81.7193 37.4943C81.7193 36.8261 81.9749 36.249 82.4862 35.7631C83.0275 35.2468 83.7643 34.9886 84.6966 34.9886H96.7864C97.7186 34.9886 98.4404 35.2468 98.9517 35.7631C99.493 36.249 99.7637 36.8261 99.7637 37.4943C99.7637 38.1625 99.493 38.7547 98.9517 39.2711C98.4404 39.757 97.7186 40 96.7864 40H84.6966ZM81.3584 34.1686C80.6367 34.1686 80.0352 33.9256 79.554 33.4396C79.0728 32.9233 78.8322 32.3311 78.8322 31.6629C78.8322 30.9947 79.0728 30.4176 79.554 29.9317C80.0352 29.4153 80.6367 29.1572 81.3584 29.1572H85.6891C86.4108 29.1572 87.0123 29.4153 87.4935 29.9317C87.9747 30.4176 88.2153 30.9947 88.2153 31.6629C88.2153 32.3311 87.9747 32.9233 87.4935 33.4396C87.0123 33.9256 86.4108 34.1686 85.6891 34.1686H81.3584ZM92.9068 34.1686C92.185 34.1686 91.5836 33.9256 91.1024 33.4396C90.6212 32.9233 90.3806 32.3311 90.3806 31.6629C90.3806 30.9947 90.6212 30.4176 91.1024 29.9317C91.5836 29.4153 92.185 29.1572 92.9068 29.1572H97.2375C97.9592 29.1572 98.5607 29.4153 99.0419 29.9317C99.5231 30.4176 99.7637 30.9947 99.7637 31.6629C99.7637 32.3311 99.5231 32.9233 99.0419 33.4396C98.5607 33.9256 97.9592 34.1686 97.2375 34.1686H92.9068ZM78.4713 28.3371C77.7496 28.3371 77.1481 28.0942 76.6669 27.6082C76.1857 27.0919 75.9451 26.4996 75.9451 25.8314C75.9451 25.1632 76.1857 24.5862 76.6669 24.1002C77.1481 23.5839 77.7496 23.3257 78.4713 23.3257H82.802C83.5238 23.3257 84.1252 23.5839 84.6064 24.1002C85.0876 24.5862 85.3282 25.1632 85.3282 25.8314C85.3282 26.4996 85.0876 27.0919 84.6064 27.6082C84.1252 28.0942 83.5238 28.3371 82.802 28.3371H78.4713ZM92.9068 28.3371C92.185 28.3371 91.5836 28.0942 91.1024 27.6082C90.6212 27.0919 90.3806 26.4996 90.3806 25.8314C90.3806 25.1632 90.6212 24.5862 91.1024 24.1002C91.5836 23.5839 92.185 23.3257 92.9068 23.3257H97.2375C97.9592 23.3257 98.5607 23.5839 99.0419 24.1002C99.5231 24.5862 99.7637 25.1632 99.7637 25.8314C99.7637 26.4996 99.5231 27.0919 99.0419 27.6082C98.5607 28.0942 97.9592 28.3371 97.2375 28.3371H92.9068ZM78.4713 22.5057C77.7496 22.5057 77.1481 22.2627 76.6669 21.7768C76.1857 21.2604 75.9451 20.6682 75.9451 20C75.9451 19.3318 76.1857 18.7547 76.6669 18.2688C77.1481 17.7525 77.7496 17.4943 78.4713 17.4943H82.802C83.5238 17.4943 84.1252 17.7525 84.6064 18.2688C85.0876 18.7547 85.3282 19.3318 85.3282 20C85.3282 20.6682 85.0876 21.2604 84.6064 21.7768C84.1252 22.2627 83.5238 22.5057 82.802 22.5057H78.4713ZM90.0197 22.5057C89.2979 22.5057 88.6965 22.2627 88.2153 21.7768C87.7341 21.2604 87.4935 20.6682 87.4935 20C87.4935 19.3318 87.7341 18.7547 88.2153 18.2688C88.6965 17.7525 89.2979 17.4943 90.0197 17.4943H97.2375C97.9592 17.4943 98.5607 17.7525 99.0419 18.2688C99.5231 18.7547 99.7637 19.3318 99.7637 20C99.7637 20.6682 99.5231 21.2604 99.0419 21.7768C98.5607 22.2627 97.9592 22.5057 97.2375 22.5057H90.0197ZM78.4713 16.6743C77.7496 16.6743 77.1481 16.4313 76.6669 15.9453C76.1857 15.429 75.9451 14.8367 75.9451 14.1686C75.9451 13.5004 76.1857 12.9233 76.6669 12.4374C77.1481 11.921 77.7496 11.6629 78.4713 11.6629H82.802C83.5238 11.6629 84.1252 11.921 84.6064 12.4374C85.0876 12.9233 85.3282 13.5004 85.3282 14.1686C85.3282 14.8367 85.0876 15.429 84.6064 15.9453C84.1252 16.4313 83.5238 16.6743 82.802 16.6743H78.4713ZM81.3584 10.8428C80.6367 10.8428 80.0352 10.5998 79.554 10.1139C79.0728 9.59757 78.8322 9.00531 78.8322 8.33713C78.8322 7.66894 79.0728 7.09187 79.554 6.60592C80.0352 6.0896 80.6367 5.83143 81.3584 5.83143H85.6891C86.4108 5.83143 87.0123 6.0896 87.4935 6.60592C87.9747 7.09187 88.2153 7.66894 88.2153 8.33713C88.2153 9.00531 87.9747 9.59757 87.4935 10.1139C87.0123 10.5998 86.4108 10.8428 85.6891 10.8428H81.3584ZM92.9068 10.8428C92.185 10.8428 91.5836 10.5998 91.1024 10.1139C90.6212 9.59757 90.3806 9.00531 90.3806 8.33713C90.3806 7.66894 90.6212 7.09187 91.1024 6.60592C91.5836 6.0896 92.185 5.83143 92.9068 5.83143H97.2375C97.9592 5.83143 98.5607 6.0896 99.0419 6.60592C99.5231 7.09187 99.7637 7.66894 99.7637 8.33713C99.7637 9.00531 99.5231 9.59757 99.0419 10.1139C98.5607 10.5998 97.9592 10.8428 97.2375 10.8428H92.9068ZM84.6966 5.01139C83.7643 5.01139 83.0275 4.76841 82.4862 4.28246C81.9749 3.76613 81.7193 3.17388 81.7193 2.50569C81.7193 1.83751 81.9749 1.26044 82.4862 0.774487C83.0275 0.258162 83.7643 0 84.6966 0H93.8993C94.8315 0 95.5533 0.258162 96.0646 0.774487C96.6059 1.26044 96.8766 1.83751 96.8766 2.50569C96.8766 3.17388 96.6059 3.76613 96.0646 4.28246C95.5533 4.76841 94.8315 5.01139 93.8993 5.01139H84.6966Z" fill="white"/>
<path d="M106.538 40C105.605 40 104.868 39.757 104.327 39.2711C103.816 38.7547 103.56 38.1625 103.56 37.4943C103.56 36.8261 103.816 36.2491 104.327 35.7631C104.868 35.2468 105.605 34.9886 106.538 34.9886H121.514C122.447 34.9886 123.168 35.2468 123.68 35.7631C124.221 36.2491 124.492 36.8261 124.492 37.4943C124.492 38.1625 124.221 38.7547 123.68 39.2711C123.168 39.757 122.447 40 121.514 40H106.538ZM111.861 34.1686C111.139 34.1686 110.537 33.9256 110.056 33.4396C109.575 32.9233 109.334 32.3311 109.334 31.6629C109.334 30.9947 109.575 30.4176 110.056 29.9317C110.537 29.4153 111.139 29.1572 111.861 29.1572H116.191C116.913 29.1572 117.515 29.4153 117.996 29.9317C118.477 30.4176 118.717 30.9947 118.717 31.6629C118.717 32.3311 118.477 32.9233 117.996 33.4396C117.515 33.9256 116.913 34.1686 116.191 34.1686H111.861ZM111.861 28.3371C111.139 28.3371 110.537 28.0942 110.056 27.6082C109.575 27.0919 109.334 26.4996 109.334 25.8314C109.334 25.1632 109.575 24.5862 110.056 24.1002C110.537 23.5839 111.139 23.3257 111.861 23.3257H116.191C116.913 23.3257 117.515 23.5839 117.996 24.1002C118.477 24.5862 118.717 25.1632 118.717 25.8314C118.717 26.4996 118.477 27.0919 117.996 27.6082C117.515 28.0942 116.913 28.3371 116.191 28.3371H111.861ZM111.861 22.5057C111.139 22.5057 110.537 22.2627 110.056 21.7768C109.575 21.2604 109.334 20.6682 109.334 20C109.334 19.3318 109.575 18.7547 110.056 18.2688C110.537 17.7525 111.139 17.4943 111.861 17.4943H116.191C116.913 17.4943 117.515 17.7525 117.996 18.2688C118.477 18.7547 118.717 19.3318 118.717 20C118.717 20.6682 118.477 21.2604 117.996 21.7768C117.515 22.2627 116.913 22.5057 116.191 22.5057H111.861ZM111.861 16.6743C111.139 16.6743 110.537 16.4313 110.056 15.9453C109.575 15.429 109.334 14.8368 109.334 14.1686C109.334 13.5004 109.575 12.9233 110.056 12.4374C110.537 11.921 111.139 11.6629 111.861 11.6629H116.191C116.913 11.6629 117.515 11.921 117.996 12.4374C118.477 12.9233 118.717 13.5004 118.717 14.1686C118.717 14.8368 118.477 15.429 117.996 15.9453C117.515 16.4313 116.913 16.6743 116.191 16.6743H111.861ZM111.861 10.8428C111.139 10.8428 110.537 10.5999 110.056 10.1139C109.575 9.59757 109.334 9.00532 109.334 8.33713C109.334 7.66895 109.575 7.09188 110.056 6.60592C110.537 6.0896 111.139 5.83144 111.861 5.83144H116.191C116.913 5.83144 117.515 6.0896 117.996 6.60592C118.477 7.09188 118.717 7.66895 118.717 8.33713C118.717 9.00532 118.477 9.59757 117.996 10.1139C117.515 10.5999 116.913 10.8428 116.191 10.8428H111.861ZM106.538 5.01139C105.605 5.01139 104.868 4.76842 104.327 4.28246C103.816 3.76614 103.56 3.17388 103.56 2.5057C103.56 1.83751 103.816 1.26044 104.327 0.774491C104.868 0.258166 105.605 3.70753e-06 106.538 3.70753e-06H121.514C122.447 3.70753e-06 123.168 0.258166 123.68 0.774491C124.221 1.26044 124.492 1.83751 124.492 2.5057C124.492 3.17388 124.221 3.76614 123.68 4.28246C123.168 4.76842 122.447 5.01139 121.514 5.01139H106.538Z" fill="white"/>
<path d="M130.453 40C129.732 40 129.13 39.757 128.649 39.2711C128.168 38.7547 127.927 38.1625 127.927 37.4943C127.927 36.8261 128.168 36.2491 128.649 35.7631C129.13 35.2468 129.732 34.9886 130.453 34.9886H134.784C135.506 34.9886 136.107 35.2468 136.589 35.7631C137.07 36.2491 137.31 36.8261 137.31 37.4943C137.31 38.1625 137.07 38.7547 136.589 39.2711C136.107 39.757 135.506 40 134.784 40H130.453ZM144.889 40C144.167 40 143.566 39.757 143.085 39.2711C142.603 38.7547 142.363 38.1625 142.363 37.4943C142.363 36.8261 142.603 36.2491 143.085 35.7631C143.566 35.2468 144.167 34.9886 144.889 34.9886H149.22C149.941 34.9886 150.543 35.2468 151.024 35.7631C151.505 36.2491 151.746 36.8261 151.746 37.4943C151.746 38.1625 151.505 38.7547 151.024 39.2711C150.543 39.757 149.941 40 149.22 40H144.889ZM130.453 34.1686C129.732 34.1686 129.13 33.9256 128.649 33.4396C128.168 32.9233 127.927 32.3311 127.927 31.6629C127.927 30.9947 128.168 30.4176 128.649 29.9317C129.13 29.4153 129.732 29.1572 130.453 29.1572H134.784C135.506 29.1572 136.107 29.4153 136.589 29.9317C137.07 30.4176 137.31 30.9947 137.31 31.6629C137.31 32.3311 137.07 32.9233 136.589 33.4396C136.107 33.9256 135.506 34.1686 134.784 34.1686H130.453ZM144.889 34.1686C144.167 34.1686 143.566 33.9256 143.085 33.4396C142.603 32.9233 142.363 32.3311 142.363 31.6629C142.363 30.9947 142.603 30.4176 143.085 29.9317C143.566 29.4153 144.167 29.1572 144.889 29.1572H149.22C149.941 29.1572 150.543 29.4153 151.024 29.9317C151.505 30.4176 151.746 30.9947 151.746 31.6629C151.746 32.3311 151.505 32.9233 151.024 33.4396C150.543 33.9256 149.941 34.1686 149.22 34.1686H144.889ZM130.453 28.3371C129.732 28.3371 129.13 28.0942 128.649 27.6082C128.168 27.0919 127.927 26.4996 127.927 25.8314C127.927 25.1632 128.168 24.5862 128.649 24.1002C129.13 23.5839 129.732 23.3257 130.453 23.3257H134.784C135.506 23.3257 136.107 23.5839 136.589 24.1002C137.07 24.5862 137.31 25.1632 137.31 25.8314C137.31 26.4996 137.07 27.0919 136.589 27.6082C136.107 28.0942 135.506 28.3371 134.784 28.3371H130.453ZM142.002 28.3371C141.28 28.3371 140.679 28.0942 140.197 27.6082C139.716 27.0919 139.476 26.4996 139.476 25.8314C139.476 25.1632 139.716 24.5862 140.197 24.1002C140.679 23.5839 141.28 23.3257 142.002 23.3257H149.22C149.941 23.3257 150.543 23.5839 151.024 24.1002C151.505 24.5862 151.746 25.1632 151.746 25.8314C151.746 26.4996 151.505 27.0919 151.024 27.6082C150.543 28.0942 149.941 28.3371 149.22 28.3371H142.002ZM130.453 22.5057C129.732 22.5057 129.13 22.2627 128.649 21.7768C128.168 21.2604 127.927 20.6682 127.927 20C127.927 19.3318 128.168 18.7547 128.649 18.2688C129.13 17.7525 129.732 17.4943 130.453 17.4943H134.784C135.506 17.4943 136.107 17.7525 136.589 18.2688C137.07 18.7547 137.31 19.3318 137.31 20C137.31 20.6682 137.07 21.2604 136.589 21.7768C136.107 22.2627 135.506 22.5057 134.784 22.5057H130.453ZM139.566 22.5057C138.634 22.5057 137.897 22.2627 137.355 21.7768C136.844 21.2604 136.589 20.6682 136.589 20C136.589 19.3318 136.844 18.7547 137.355 18.2688C137.897 17.7525 138.634 17.4943 139.566 17.4943H148.769C149.701 17.4943 150.423 17.7525 150.934 18.2688C151.475 18.7547 151.746 19.3318 151.746 20C151.746 20.6682 151.475 21.2604 150.934 21.7768C150.423 22.2627 149.701 22.5057 148.769 22.5057H139.566ZM130.905 16.6743C129.972 16.6743 129.251 16.4313 128.739 15.9453C128.198 15.429 127.927 14.8368 127.927 14.1686C127.927 13.5004 128.198 12.9233 128.739 12.4374C129.251 11.921 129.972 11.6629 130.905 11.6629H140.107C141.04 11.6629 141.761 11.921 142.273 12.4374C142.814 12.9233 143.085 13.5004 143.085 14.1686C143.085 14.8368 142.814 15.429 142.273 15.9453C141.761 16.4313 141.04 16.6743 140.107 16.6743H130.905ZM144.889 16.6743C144.167 16.6743 143.566 16.4313 143.085 15.9453C142.603 15.429 142.363 14.8368 142.363 14.1686C142.363 13.5004 142.603 12.9233 143.085 12.4374C143.566 11.921 144.167 11.6629 144.889 11.6629H149.22C149.941 11.6629 150.543 11.921 151.024 12.4374C151.505 12.9233 151.746 13.5004 151.746 14.1686C151.746 14.8368 151.505 15.429 151.024 15.9453C150.543 16.4313 149.941 16.6743 149.22 16.6743H144.889ZM130.453 10.8428C129.732 10.8428 129.13 10.5999 128.649 10.1139C128.168 9.59757 127.927 9.00532 127.927 8.33713C127.927 7.66895 128.168 7.09188 128.649 6.60592C129.13 6.0896 129.732 5.83144 130.453 5.83144H137.671C138.393 5.83144 138.994 6.0896 139.476 6.60592C139.957 7.09188 140.197 7.66895 140.197 8.33713C140.197 9.00532 139.957 9.59757 139.476 10.1139C138.994 10.5999 138.393 10.8428 137.671 10.8428H130.453ZM144.889 10.8428C144.167 10.8428 143.566 10.5999 143.085 10.1139C142.603 9.59757 142.363 9.00532 142.363 8.33713C142.363 7.66895 142.603 7.09188 143.085 6.60592C143.566 6.0896 144.167 5.83144 144.889 5.83144H149.22C149.941 5.83144 150.543 6.0896 151.024 6.60592C151.505 7.09188 151.746 7.66895 151.746 8.33713C151.746 9.00532 151.505 9.59757 151.024 10.1139C150.543 10.5999 149.941 10.8428 149.22 10.8428H144.889ZM130.453 5.01139C129.732 5.01139 129.13 4.76842 128.649 4.28246C128.168 3.76614 127.927 3.17388 127.927 2.5057C127.927 1.83751 128.168 1.26044 128.649 0.774491C129.13 0.258166 129.732 3.70753e-06 130.453 3.70753e-06H134.784C135.506 3.70753e-06 136.107 0.258166 136.589 0.774491C137.07 1.26044 137.31 1.83751 137.31 2.5057C137.31 3.17388 137.07 3.76614 136.589 4.28246C136.107 4.76842 135.506 5.01139 134.784 5.01139H130.453ZM144.889 5.01139C144.167 5.01139 143.566 4.76842 143.085 4.28246C142.603 3.76614 142.363 3.17388 142.363 2.5057C142.363 1.83751 142.603 1.26044 143.085 0.774491C143.566 0.258166 144.167 3.70753e-06 144.889 3.70753e-06H149.22C149.941 3.70753e-06 150.543 0.258166 151.024 0.774491C151.505 1.26044 151.746 1.83751 151.746 2.5057C151.746 3.17388 151.505 3.76614 151.024 4.28246C150.543 4.76842 149.941 5.01139 149.22 5.01139H144.889Z" fill="white"/>
<path d="M163.933 40C163.001 40 162.264 39.757 161.723 39.2711C161.211 38.7547 160.956 38.1625 160.956 37.4943C160.956 36.8261 161.211 36.2491 161.723 35.7631C162.264 35.2468 163.001 34.9886 163.933 34.9886H176.023C176.955 34.9886 177.677 35.2468 178.188 35.7631C178.729 36.2491 179 36.8261 179 37.4943C179 38.1625 178.729 38.7547 178.188 39.2711C177.677 39.757 176.955 40 176.023 40H163.933ZM160.595 34.1686C159.873 34.1686 159.272 33.9256 158.79 33.4396C158.309 32.9233 158.069 32.3311 158.069 31.6629C158.069 30.9947 158.309 30.4176 158.79 29.9317C159.272 29.4153 159.873 29.1572 160.595 29.1572H164.925C165.647 29.1572 166.249 29.4153 166.73 29.9317C167.211 30.4176 167.452 30.9947 167.452 31.6629C167.452 32.3311 167.211 32.9233 166.73 33.4396C166.249 33.9256 165.647 34.1686 164.925 34.1686H160.595ZM172.143 34.1686C171.421 34.1686 170.82 33.9256 170.339 33.4396C169.858 32.9233 169.617 32.3311 169.617 31.6629C169.617 30.9947 169.858 30.4176 170.339 29.9317C170.82 29.4153 171.421 29.1572 172.143 29.1572H176.474C177.196 29.1572 177.797 29.4153 178.278 29.9317C178.759 30.4176 179 30.9947 179 31.6629C179 32.3311 178.759 32.9233 178.278 33.4396C177.797 33.9256 177.196 34.1686 176.474 34.1686H172.143ZM157.708 28.3371C156.986 28.3371 156.384 28.0942 155.903 27.6082C155.422 27.0919 155.181 26.4996 155.181 25.8314C155.181 25.1632 155.422 24.5862 155.903 24.1002C156.384 23.5839 156.986 23.3257 157.708 23.3257H162.038C162.76 23.3257 163.362 23.5839 163.843 24.1002C164.324 24.5862 164.565 25.1632 164.565 25.8314C164.565 26.4996 164.324 27.0919 163.843 27.6082C163.362 28.0942 162.76 28.3371 162.038 28.3371H157.708ZM172.143 28.3371C171.421 28.3371 170.82 28.0942 170.339 27.6082C169.858 27.0919 169.617 26.4996 169.617 25.8314C169.617 25.1632 169.858 24.5862 170.339 24.1002C170.82 23.5839 171.421 23.3257 172.143 23.3257H176.474C177.196 23.3257 177.797 23.5839 178.278 24.1002C178.759 24.5862 179 25.1632 179 25.8314C179 26.4996 178.759 27.0919 178.278 27.6082C177.797 28.0942 177.196 28.3371 176.474 28.3371H172.143ZM157.708 22.5057C156.986 22.5057 156.384 22.2627 155.903 21.7768C155.422 21.2604 155.181 20.6682 155.181 20C155.181 19.3318 155.422 18.7547 155.903 18.2688C156.384 17.7525 156.986 17.4943 157.708 17.4943H162.038C162.76 17.4943 163.362 17.7525 163.843 18.2688C164.324 18.7547 164.565 19.3318 164.565 20C164.565 20.6682 164.324 21.2604 163.843 21.7768C163.362 22.2627 162.76 22.5057 162.038 22.5057H157.708ZM169.256 22.5057C168.534 22.5057 167.933 22.2627 167.452 21.7768C166.97 21.2604 166.73 20.6682 166.73 20C166.73 19.3318 166.97 18.7547 167.452 18.2688C167.933 17.7525 168.534 17.4943 169.256 17.4943H176.474C177.196 17.4943 177.797 17.7525 178.278 18.2688C178.759 18.7547 179 19.3318 179 20C179 20.6682 178.759 21.2604 178.278 21.7768C177.797 22.2627 177.196 22.5057 176.474 22.5057H169.256ZM157.708 16.6743C156.986 16.6743 156.384 16.4313 155.903 15.9453C155.422 15.429 155.181 14.8368 155.181 14.1686C155.181 13.5004 155.422 12.9233 155.903 12.4374C156.384 11.921 156.986 11.6629 157.708 11.6629H162.038C162.76 11.6629 163.362 11.921 163.843 12.4374C164.324 12.9233 164.565 13.5004 164.565 14.1686C164.565 14.8368 164.324 15.429 163.843 15.9453C163.362 16.4313 162.76 16.6743 162.038 16.6743H157.708ZM160.595 10.8428C159.873 10.8428 159.272 10.5999 158.79 10.1139C158.309 9.59757 158.069 9.00532 158.069 8.33713C158.069 7.66895 158.309 7.09188 158.79 6.60592C159.272 6.0896 159.873 5.83144 160.595 5.83144H164.925C165.647 5.83144 166.249 6.0896 166.73 6.60592C167.211 7.09188 167.452 7.66895 167.452 8.33713C167.452 9.00532 167.211 9.59757 166.73 10.1139C166.249 10.5999 165.647 10.8428 164.925 10.8428H160.595ZM172.143 10.8428C171.421 10.8428 170.82 10.5999 170.339 10.1139C169.858 9.59757 169.617 9.00532 169.617 8.33713C169.617 7.66895 169.858 7.09188 170.339 6.60592C170.82 6.0896 171.421 5.83144 172.143 5.83144H176.474C177.196 5.83144 177.797 6.0896 178.278 6.60592C178.759 7.09188 179 7.66895 179 8.33713C179 9.00532 178.759 9.59757 178.278 10.1139C177.797 10.5999 177.196 10.8428 176.474 10.8428H172.143ZM163.933 5.01139C163.001 5.01139 162.264 4.76842 161.723 4.28246C161.211 3.76614 160.956 3.17388 160.956 2.5057C160.956 1.83751 161.211 1.26044 161.723 0.774491C162.264 0.258166 163.001 3.70753e-06 163.933 3.70753e-06H173.136C174.068 3.70753e-06 174.79 0.258166 175.301 0.774491C175.842 1.26044 176.113 1.83751 176.113 2.5057C176.113 3.17388 175.842 3.76614 175.301 4.28246C174.79 4.76842 174.068 5.01139 173.136 5.01139H163.933Z" fill="white"/>
<path d="M246.609 40C245.24 40 244.158 39.757 243.364 39.2711C242.613 38.7547 242.238 38.1625 242.238 37.4943C242.238 36.8261 242.613 36.249 243.364 35.7631C244.158 35.2468 245.24 34.9886 246.609 34.9886H260.118C261.486 34.9886 262.546 35.2468 263.296 35.7631C264.091 36.249 264.488 36.8261 264.488 37.4943C264.488 38.1625 264.091 38.7547 263.296 39.2711C262.546 39.757 261.486 40 260.118 40H246.609ZM241.708 34.1686C240.649 34.1686 239.766 33.9256 239.06 33.4396C238.353 32.9233 238 32.3311 238 31.6629C238 30.9947 238.353 30.4176 239.06 29.9317C239.766 29.4153 240.649 29.1572 241.708 29.1572H248.065C249.125 29.1572 250.008 29.4153 250.714 29.9317C251.421 30.4176 251.774 30.9947 251.774 31.6629C251.774 32.3311 251.421 32.9233 250.714 33.4396C250.008 33.9256 249.125 34.1686 248.065 34.1686H241.708ZM258.661 34.1686C257.601 34.1686 256.718 33.9256 256.012 33.4396C255.306 32.9233 254.952 32.3311 254.952 31.6629C254.952 30.9947 255.306 30.4176 256.012 29.9317C256.718 29.4153 257.601 29.1572 258.661 29.1572H265.018C266.077 29.1572 266.96 29.4153 267.667 29.9317C268.373 30.4176 268.726 30.9947 268.726 31.6629C268.726 32.3311 268.373 32.9233 267.667 33.4396C266.96 33.9256 266.077 34.1686 265.018 34.1686H258.661ZM254.423 28.3371C253.363 28.3371 252.48 28.0942 251.774 27.6082C251.067 27.0919 250.714 26.4996 250.714 25.8314C250.714 25.1632 251.067 24.5862 251.774 24.1002C252.48 23.5839 253.363 23.3257 254.423 23.3257H265.018C266.077 23.3257 266.96 23.5839 267.667 24.1002C268.373 24.5862 268.726 25.1632 268.726 25.8314C268.726 26.4996 268.373 27.0919 267.667 27.6082C266.96 28.0942 266.077 28.3371 265.018 28.3371H254.423ZM245.946 22.5057C244.887 22.5057 244.004 22.2627 243.298 21.7768C242.591 21.2604 242.238 20.6682 242.238 20C242.238 19.3318 242.591 18.7547 243.298 18.2688C244.004 17.7525 244.887 17.4943 245.946 17.4943H256.542C257.601 17.4943 258.484 17.7525 259.19 18.2688C259.897 18.7547 260.25 19.3318 260.25 20C260.25 20.6682 259.897 21.2604 259.19 21.7768C258.484 22.2627 257.601 22.5057 256.542 22.5057H245.946ZM241.708 16.6743C240.649 16.6743 239.766 16.4313 239.06 15.9453C238.353 15.429 238 14.8368 238 14.1686C238 13.5004 238.353 12.9233 239.06 12.4374C239.766 11.921 240.649 11.6629 241.708 11.6629H252.304C253.363 11.6629 254.246 11.921 254.952 12.4374C255.659 12.9233 256.012 13.5004 256.012 14.1686C256.012 14.8368 255.659 15.429 254.952 15.9453C254.246 16.4313 253.363 16.6743 252.304 16.6743H241.708ZM241.708 10.8428C240.649 10.8428 239.766 10.5998 239.06 10.1139C238.353 9.59757 238 9.00531 238 8.33713C238 7.66894 238.353 7.09188 239.06 6.60592C239.766 6.0896 240.649 5.83144 241.708 5.83144H248.065C249.125 5.83144 250.008 6.0896 250.714 6.60592C251.421 7.09188 251.774 7.66894 251.774 8.33713C251.774 9.00531 251.421 9.59757 250.714 10.1139C250.008 10.5998 249.125 10.8428 248.065 10.8428H241.708ZM258.661 10.8428C257.601 10.8428 256.718 10.5998 256.012 10.1139C255.306 9.59757 254.952 9.00531 254.952 8.33713C254.952 7.66894 255.306 7.09188 256.012 6.60592C256.718 6.0896 257.601 5.83144 258.661 5.83144H265.018C266.077 5.83144 266.96 6.0896 267.667 6.60592C268.373 7.09188 268.726 7.66894 268.726 8.33713C268.726 9.00531 268.373 9.59757 267.667 10.1139C266.96 10.5998 266.077 10.8428 265.018 10.8428H258.661ZM246.609 5.01139C245.24 5.01139 244.158 4.76841 243.364 4.28246C242.613 3.76614 242.238 3.17388 242.238 2.50569C242.238 1.83751 242.613 1.26044 243.364 0.774487C244.158 0.258162 245.24 0 246.609 0H260.118C261.486 0 262.546 0.258162 263.296 0.774487C264.091 1.26044 264.488 1.83751 264.488 2.50569C264.488 3.17388 264.091 3.76614 263.296 4.28246C262.546 4.76841 261.486 5.01139 260.118 5.01139H246.609Z" fill="white"/>
<path d="M280.651 40C279.282 40 278.2 39.757 277.406 39.2711C276.655 38.7547 276.28 38.1625 276.28 37.4943C276.28 36.8261 276.655 36.249 277.406 35.7631C278.2 35.2468 279.282 34.9886 280.651 34.9886H294.16C295.528 34.9886 296.588 35.2468 297.338 35.7631C298.133 36.249 298.53 36.8261 298.53 37.4943C298.53 38.1625 298.133 38.7547 297.338 39.2711C296.588 39.757 295.528 40 294.16 40H280.651ZM284.226 34.1686C283.167 34.1686 282.284 33.9256 281.578 33.4396C280.871 32.9233 280.518 32.3311 280.518 31.6629C280.518 30.9947 280.871 30.4176 281.578 29.9317C282.284 29.4153 283.167 29.1572 284.226 29.1572H290.584C291.643 29.1572 292.526 29.4153 293.232 29.9317C293.939 30.4176 294.292 30.9947 294.292 31.6629C294.292 32.3311 293.939 32.9233 293.232 33.4396C292.526 33.9256 291.643 34.1686 290.584 34.1686H284.226ZM284.226 28.3371C283.167 28.3371 282.284 28.0942 281.578 27.6082C280.871 27.0919 280.518 26.4996 280.518 25.8314C280.518 25.1632 280.871 24.5862 281.578 24.1002C282.284 23.5839 283.167 23.3257 284.226 23.3257H290.584C291.643 23.3257 292.526 23.5839 293.232 24.1002C293.939 24.5862 294.292 25.1632 294.292 25.8314C294.292 26.4996 293.939 27.0919 293.232 27.6082C292.526 28.0942 291.643 28.3371 290.584 28.3371H284.226ZM284.226 22.5057C283.167 22.5057 282.284 22.2627 281.578 21.7768C280.871 21.2604 280.518 20.6682 280.518 20C280.518 19.3318 280.871 18.7547 281.578 18.2688C282.284 17.7525 283.167 17.4943 284.226 17.4943H290.584C291.643 17.4943 292.526 17.7525 293.232 18.2688C293.939 18.7547 294.292 19.3318 294.292 20C294.292 20.6682 293.939 21.2604 293.232 21.7768C292.526 22.2627 291.643 22.5057 290.584 22.5057H284.226ZM284.226 16.6743C283.167 16.6743 282.284 16.4313 281.578 15.9453C280.871 15.429 280.518 14.8368 280.518 14.1686C280.518 13.5004 280.871 12.9233 281.578 12.4374C282.284 11.921 283.167 11.6629 284.226 11.6629H290.584C291.643 11.6629 292.526 11.921 293.232 12.4374C293.939 12.9233 294.292 13.5004 294.292 14.1686C294.292 14.8368 293.939 15.429 293.232 15.9453C292.526 16.4313 291.643 16.6743 290.584 16.6743H284.226ZM275.022 10.8428C274.183 10.8428 273.477 10.5998 272.903 10.1139C272.329 9.59757 272.042 9.00531 272.042 8.33713C272.042 7.66894 272.329 7.09188 272.903 6.60592C273.477 6.0896 274.183 5.83144 275.022 5.83144H278.598C279.437 5.83144 280.143 6.0896 280.717 6.60592C281.291 7.09188 281.578 7.66894 281.578 8.33713C281.578 9.00531 281.291 9.59757 280.717 10.1139C280.143 10.5998 279.437 10.8428 278.598 10.8428H275.022ZM284.226 10.8428C283.167 10.8428 282.284 10.5998 281.578 10.1139C280.871 9.59757 280.518 9.00531 280.518 8.33713C280.518 7.66894 280.871 7.09188 281.578 6.60592C282.284 6.0896 283.167 5.83144 284.226 5.83144H290.584C291.643 5.83144 292.526 6.0896 293.232 6.60592C293.939 7.09188 294.292 7.66894 294.292 8.33713C294.292 9.00531 293.939 9.59757 293.232 10.1139C292.526 10.5998 291.643 10.8428 290.584 10.8428H284.226ZM296.212 10.8428C295.374 10.8428 294.667 10.5998 294.093 10.1139C293.519 9.59757 293.232 9.00531 293.232 8.33713C293.232 7.66894 293.519 7.09188 294.093 6.60592C294.667 6.0896 295.374 5.83144 296.212 5.83144H299.788C300.627 5.83144 301.333 6.0896 301.907 6.60592C302.481 7.09188 302.768 7.66894 302.768 8.33713C302.768 9.00531 302.481 9.59757 301.907 10.1139C301.333 10.5998 300.627 10.8428 299.788 10.8428H296.212ZM276.412 5.01139C275.044 5.01139 273.962 4.76841 273.168 4.28246C272.417 3.76614 272.042 3.17388 272.042 2.50569C272.042 1.83751 272.417 1.26044 273.168 0.774487C273.962 0.258162 275.044 0 276.412 0H298.398C299.766 0 300.826 0.258162 301.576 0.774487C302.371 1.26044 302.768 1.83751 302.768 2.50569C302.768 3.17388 302.371 3.76614 301.576 4.28246C300.826 4.76841 299.766 5.01139 298.398 5.01139H276.412Z" fill="white"/>
<path d="M307.518 40C306.458 40 305.575 39.757 304.869 39.2711C304.163 38.7547 303.81 38.1625 303.81 37.4943C303.81 36.8261 304.163 36.249 304.869 35.7631C305.575 35.2468 306.458 34.9886 307.518 34.9886H313.875C314.935 34.9886 315.817 35.2468 316.524 35.7631C317.23 36.249 317.583 36.8261 317.583 37.4943C317.583 38.1625 317.23 38.7547 316.524 39.2711C315.817 39.757 314.935 40 313.875 40H307.518ZM332.946 40C331.887 40 331.004 39.757 330.298 39.2711C329.591 38.7547 329.238 38.1625 329.238 37.4943C329.238 36.8261 329.591 36.249 330.298 35.7631C331.004 35.2468 331.887 34.9886 332.946 34.9886H339.304C340.363 34.9886 341.246 35.2468 341.952 35.7631C342.659 36.249 343.012 36.8261 343.012 37.4943C343.012 38.1625 342.659 38.7547 341.952 39.2711C341.246 39.757 340.363 40 339.304 40H332.946ZM307.518 34.1686C306.458 34.1686 305.575 33.9256 304.869 33.4396C304.163 32.9233 303.81 32.3311 303.81 31.6629C303.81 30.9947 304.163 30.4176 304.869 29.9317C305.575 29.4153 306.458 29.1572 307.518 29.1572H313.875C314.935 29.1572 315.817 29.4153 316.524 29.9317C317.23 30.4176 317.583 30.9947 317.583 31.6629C317.583 32.3311 317.23 32.9233 316.524 33.4396C315.817 33.9256 314.935 34.1686 313.875 34.1686H307.518ZM332.946 34.1686C331.887 34.1686 331.004 33.9256 330.298 33.4396C329.591 32.9233 329.238 32.3311 329.238 31.6629C329.238 30.9947 329.591 30.4176 330.298 29.9317C331.004 29.4153 331.887 29.1572 332.946 29.1572H339.304C340.363 29.1572 341.246 29.4153 341.952 29.9317C342.659 30.4176 343.012 30.9947 343.012 31.6629C343.012 32.3311 342.659 32.9233 341.952 33.4396C341.246 33.9256 340.363 34.1686 339.304 34.1686H332.946ZM312.418 28.3371C311.05 28.3371 309.968 28.0942 309.173 27.6082C308.423 27.0919 308.048 26.4996 308.048 25.8314C308.048 25.1632 308.423 24.5862 309.173 24.1002C309.968 23.5839 311.05 23.3257 312.418 23.3257H334.403C335.772 23.3257 336.831 23.5839 337.582 24.1002C338.376 24.5862 338.774 25.1632 338.774 25.8314C338.774 26.4996 338.376 27.0919 337.582 27.6082C336.831 28.0942 335.772 28.3371 334.403 28.3371H312.418ZM311.756 22.5057C310.696 22.5057 309.813 22.2627 309.107 21.7768C308.401 21.2604 308.048 20.6682 308.048 20C308.048 19.3318 308.401 18.7547 309.107 18.2688C309.813 17.7525 310.696 17.4943 311.756 17.4943H318.113C319.173 17.4943 320.056 17.7525 320.762 18.2688C321.468 18.7547 321.821 19.3318 321.821 20C321.821 20.6682 321.468 21.2604 320.762 21.7768C320.056 22.2627 319.173 22.5057 318.113 22.5057H311.756ZM328.708 22.5057C327.649 22.5057 326.766 22.2627 326.06 21.7768C325.353 21.2604 325 20.6682 325 20C325 19.3318 325.353 18.7547 326.06 18.2688C326.766 17.7525 327.649 17.4943 328.708 17.4943H335.065C336.125 17.4943 337.008 17.7525 337.714 18.2688C338.421 18.7547 338.774 19.3318 338.774 20C338.774 20.6682 338.421 21.2604 337.714 21.7768C337.008 22.2627 336.125 22.5057 335.065 22.5057H328.708ZM316.656 16.6743C315.288 16.6743 314.206 16.4313 313.411 15.9453C312.661 15.429 312.286 14.8368 312.286 14.1686C312.286 13.5004 312.661 12.9233 313.411 12.4374C314.206 11.921 315.288 11.6629 316.656 11.6629H330.165C331.534 11.6629 332.593 11.921 333.344 12.4374C334.138 12.9233 334.536 13.5004 334.536 14.1686C334.536 14.8368 334.138 15.429 333.344 15.9453C332.593 16.4313 331.534 16.6743 330.165 16.6743H316.656ZM316.656 10.8428C315.288 10.8428 314.206 10.5998 313.411 10.1139C312.661 9.59757 312.286 9.00531 312.286 8.33713C312.286 7.66894 312.661 7.09188 313.411 6.60592C314.206 6.0896 315.288 5.83144 316.656 5.83144H330.165C331.534 5.83144 332.593 6.0896 333.344 6.60592C334.138 7.09188 334.536 7.66894 334.536 8.33713C334.536 9.00531 334.138 9.59757 333.344 10.1139C332.593 10.5998 331.534 10.8428 330.165 10.8428H316.656ZM320.232 5.01139C319.173 5.01139 318.29 4.76841 317.583 4.28246C316.877 3.76614 316.524 3.17388 316.524 2.50569C316.524 1.83751 316.877 1.26044 317.583 0.774487C318.29 0.258162 319.173 0 320.232 0H326.589C327.649 0 328.532 0.258162 329.238 0.774487C329.944 1.26044 330.298 1.83751 330.298 2.50569C330.298 3.17388 329.944 3.76614 329.238 4.28246C328.532 4.76841 327.649 5.01139 326.589 5.01139H320.232Z" fill="white"/>
<path d="M352.799 40C351.431 40 350.349 39.757 349.554 39.2711C348.804 38.7547 348.429 38.1625 348.429 37.4943C348.429 36.8261 348.804 36.249 349.554 35.7631C350.349 35.2468 351.431 34.9886 352.799 34.9886H366.308C367.677 34.9886 368.736 35.2468 369.487 35.7631C370.281 36.249 370.679 36.8261 370.679 37.4943C370.679 38.1625 370.281 38.7547 369.487 39.2711C368.736 39.757 367.677 40 366.308 40H352.799ZM356.375 34.1686C355.315 34.1686 354.433 33.9256 353.726 33.4396C353.02 32.9233 352.667 32.3311 352.667 31.6629C352.667 30.9947 353.02 30.4176 353.726 29.9317C354.433 29.4153 355.315 29.1572 356.375 29.1572H362.732C363.792 29.1572 364.675 29.4153 365.381 29.9317C366.087 30.4176 366.44 30.9947 366.44 31.6629C366.44 32.3311 366.087 32.9233 365.381 33.4396C364.675 33.9256 363.792 34.1686 362.732 34.1686H356.375ZM356.375 28.3371C355.315 28.3371 354.433 28.0942 353.726 27.6082C353.02 27.0919 352.667 26.4996 352.667 25.8314C352.667 25.1632 353.02 24.5862 353.726 24.1002C354.433 23.5839 355.315 23.3257 356.375 23.3257H362.732C363.792 23.3257 364.675 23.5839 365.381 24.1002C366.087 24.5862 366.44 25.1632 366.44 25.8314C366.44 26.4996 366.087 27.0919 365.381 27.6082C364.675 28.0942 363.792 28.3371 362.732 28.3371H356.375ZM356.375 22.5057C355.315 22.5057 354.433 22.2627 353.726 21.7768C353.02 21.2604 352.667 20.6682 352.667 20C352.667 19.3318 353.02 18.7547 353.726 18.2688C354.433 17.7525 355.315 17.4943 356.375 17.4943H362.732C363.792 17.4943 364.675 17.7525 365.381 18.2688C366.087 18.7547 366.44 19.3318 366.44 20C366.44 20.6682 366.087 21.2604 365.381 21.7768C364.675 22.2627 363.792 22.5057 362.732 22.5057H356.375ZM356.375 16.6743C355.315 16.6743 354.433 16.4313 353.726 15.9453C353.02 15.429 352.667 14.8368 352.667 14.1686C352.667 13.5004 353.02 12.9233 353.726 12.4374C354.433 11.921 355.315 11.6629 356.375 11.6629H362.732C363.792 11.6629 364.675 11.921 365.381 12.4374C366.087 12.9233 366.44 13.5004 366.44 14.1686C366.44 14.8368 366.087 15.429 365.381 15.9453C364.675 16.4313 363.792 16.6743 362.732 16.6743H356.375ZM347.17 10.8428C346.332 10.8428 345.625 10.5998 345.051 10.1139C344.477 9.59757 344.19 9.00531 344.19 8.33713C344.19 7.66894 344.477 7.09188 345.051 6.60592C345.625 6.0896 346.332 5.83144 347.17 5.83144H350.746C351.585 5.83144 352.291 6.0896 352.865 6.60592C353.439 7.09188 353.726 7.66894 353.726 8.33713C353.726 9.00531 353.439 9.59757 352.865 10.1139C352.291 10.5998 351.585 10.8428 350.746 10.8428H347.17ZM356.375 10.8428C355.315 10.8428 354.433 10.5998 353.726 10.1139C353.02 9.59757 352.667 9.00531 352.667 8.33713C352.667 7.66894 353.02 7.09188 353.726 6.60592C354.433 6.0896 355.315 5.83144 356.375 5.83144H362.732C363.792 5.83144 364.675 6.0896 365.381 6.60592C366.087 7.09188 366.44 7.66894 366.44 8.33713C366.44 9.00531 366.087 9.59757 365.381 10.1139C364.675 10.5998 363.792 10.8428 362.732 10.8428H356.375ZM368.361 10.8428C367.522 10.8428 366.816 10.5998 366.242 10.1139C365.668 9.59757 365.381 9.00531 365.381 8.33713C365.381 7.66894 365.668 7.09188 366.242 6.60592C366.816 6.0896 367.522 5.83144 368.361 5.83144H371.937C372.776 5.83144 373.482 6.0896 374.056 6.60592C374.63 7.09188 374.917 7.66894 374.917 8.33713C374.917 9.00531 374.63 9.59757 374.056 10.1139C373.482 10.5998 372.776 10.8428 371.937 10.8428H368.361ZM348.561 5.01139C347.192 5.01139 346.111 4.76841 345.316 4.28246C344.566 3.76614 344.19 3.17388 344.19 2.50569C344.19 1.83751 344.566 1.26044 345.316 0.774487C346.111 0.258162 347.192 0 348.561 0H370.546C371.915 0 372.974 0.258162 373.725 0.774487C374.519 1.26044 374.917 1.83751 374.917 2.50569C374.917 3.17388 374.519 3.76614 373.725 4.28246C372.974 4.76841 371.915 5.01139 370.546 5.01139H348.561Z" fill="white"/>
<path d="M387.882 40C386.514 40 385.432 39.757 384.638 39.2711C383.887 38.7547 383.512 38.1625 383.512 37.4943C383.512 36.8261 383.887 36.249 384.638 35.7631C385.432 35.2468 386.514 34.9886 387.882 34.9886H401.391C402.76 34.9886 403.819 35.2468 404.57 35.7631C405.365 36.249 405.762 36.8261 405.762 37.4943C405.762 38.1625 405.365 38.7547 404.57 39.2711C403.819 39.757 402.76 40 401.391 40H387.882ZM382.982 34.1686C381.923 34.1686 381.04 33.9256 380.333 33.4396C379.627 32.9233 379.274 32.3311 379.274 31.6629C379.274 30.9947 379.627 30.4176 380.333 29.9317C381.04 29.4153 381.923 29.1572 382.982 29.1572H389.339C390.399 29.1572 391.282 29.4153 391.988 29.9317C392.694 30.4176 393.048 30.9947 393.048 31.6629C393.048 32.3311 392.694 32.9233 391.988 33.4396C391.282 33.9256 390.399 34.1686 389.339 34.1686H382.982ZM399.935 34.1686C398.875 34.1686 397.992 33.9256 397.286 33.4396C396.579 32.9233 396.226 32.3311 396.226 31.6629C396.226 30.9947 396.579 30.4176 397.286 29.9317C397.992 29.4153 398.875 29.1572 399.935 29.1572H406.292C407.351 29.1572 408.234 29.4153 408.94 29.9317C409.647 30.4176 410 30.9947 410 31.6629C410 32.3311 409.647 32.9233 408.94 33.4396C408.234 33.9256 407.351 34.1686 406.292 34.1686H399.935ZM395.696 28.3371C394.637 28.3371 393.754 28.0942 393.048 27.6082C392.341 27.0919 391.988 26.4996 391.988 25.8314C391.988 25.1632 392.341 24.5862 393.048 24.1002C393.754 23.5839 394.637 23.3257 395.696 23.3257H406.292C407.351 23.3257 408.234 23.5839 408.94 24.1002C409.647 24.5862 410 25.1632 410 25.8314C410 26.4996 409.647 27.0919 408.94 27.6082C408.234 28.0942 407.351 28.3371 406.292 28.3371H395.696ZM387.22 22.5057C386.161 22.5057 385.278 22.2627 384.571 21.7768C383.865 21.2604 383.512 20.6682 383.512 20C383.512 19.3318 383.865 18.7547 384.571 18.2688C385.278 17.7525 386.161 17.4943 387.22 17.4943H397.815C398.875 17.4943 399.758 17.7525 400.464 18.2688C401.171 18.7547 401.524 19.3318 401.524 20C401.524 20.6682 401.171 21.2604 400.464 21.7768C399.758 22.2627 398.875 22.5057 397.815 22.5057H387.22ZM382.982 16.6743C381.923 16.6743 381.04 16.4313 380.333 15.9453C379.627 15.429 379.274 14.8368 379.274 14.1686C379.274 13.5004 379.627 12.9233 380.333 12.4374C381.04 11.921 381.923 11.6629 382.982 11.6629H393.577C394.637 11.6629 395.52 11.921 396.226 12.4374C396.933 12.9233 397.286 13.5004 397.286 14.1686C397.286 14.8368 396.933 15.429 396.226 15.9453C395.52 16.4313 394.637 16.6743 393.577 16.6743H382.982ZM382.982 10.8428C381.923 10.8428 381.04 10.5998 380.333 10.1139C379.627 9.59757 379.274 9.00531 379.274 8.33713C379.274 7.66894 379.627 7.09188 380.333 6.60592C381.04 6.0896 381.923 5.83144 382.982 5.83144H389.339C390.399 5.83144 391.282 6.0896 391.988 6.60592C392.694 7.09188 393.048 7.66894 393.048 8.33713C393.048 9.00531 392.694 9.59757 391.988 10.1139C391.282 10.5998 390.399 10.8428 389.339 10.8428H382.982ZM399.935 10.8428C398.875 10.8428 397.992 10.5998 397.286 10.1139C396.579 9.59757 396.226 9.00531 396.226 8.33713C396.226 7.66894 396.579 7.09188 397.286 6.60592C397.992 6.0896 398.875 5.83144 399.935 5.83144H406.292C407.351 5.83144 408.234 6.0896 408.94 6.60592C409.647 7.09188 410 7.66894 410 8.33713C410 9.00531 409.647 9.59757 408.94 10.1139C408.234 10.5998 407.351 10.8428 406.292 10.8428H399.935ZM387.882 5.01139C386.514 5.01139 385.432 4.76841 384.638 4.28246C383.887 3.76614 383.512 3.17388 383.512 2.50569C383.512 1.83751 383.887 1.26044 384.638 0.774487C385.432 0.258162 386.514 0 387.882 0H401.391C402.76 0 403.819 0.258162 404.57 0.774487C405.365 1.26044 405.762 1.83751 405.762 2.50569C405.762 3.17388 405.365 3.76614 404.57 4.28246C403.819 4.76841 402.76 5.01139 401.391 5.01139H387.882Z" fill="white"/>
</svg>
