<svg width="56" height="26" viewBox="0 0 56 26" fill="none" xmlns="http://www.w3.org/2000/svg">
<path d="M9.31048 8.85081C9.10215 8.85081 8.9375 8.79705 8.81653 8.68952C8.70228 8.57527 8.64516 8.44422 8.64516 8.29637C8.64516 8.14853 8.70228 8.02084 8.81653 7.91331C8.9375 7.79906 9.10215 7.74194 9.31048 7.74194H11.3669C11.5753 7.74194 11.7366 7.79906 11.8508 7.91331C11.9718 8.02084 12.0323 8.14853 12.0323 8.29637C12.0323 8.44422 11.9718 8.57527 11.8508 8.68952C11.7366 8.79705 11.5753 8.85081 11.3669 8.85081H9.31048ZM8.56452 7.56049C8.40323 7.56049 8.26882 7.50672 8.16129 7.3992C8.05376 7.28495 8 7.1539 8 7.00605C8 6.8582 8.05376 6.73051 8.16129 6.62299C8.26882 6.50874 8.40323 6.45162 8.56452 6.45162H9.53226C9.69355 6.45162 9.82796 6.50874 9.93548 6.62299C10.043 6.73051 10.0968 6.8582 10.0968 7.00605C10.0968 7.1539 10.043 7.28495 9.93548 7.3992C9.82796 7.50672 9.69355 7.56049 9.53226 7.56049H8.56452ZM11.1452 7.56049C10.9839 7.56049 10.8495 7.50672 10.7419 7.3992C10.6344 7.28495 10.5806 7.1539 10.5806 7.00605C10.5806 6.8582 10.6344 6.73051 10.7419 6.62299C10.8495 6.50874 10.9839 6.45162 11.1452 6.45162H12.1129C12.2742 6.45162 12.4086 6.50874 12.5161 6.62299C12.6237 6.73051 12.6774 6.8582 12.6774 7.00605C12.6774 7.1539 12.6237 7.28495 12.5161 7.3992C12.4086 7.50672 12.2742 7.56049 12.1129 7.56049H11.1452ZM10.5 6.27016C10.3387 6.27016 10.2043 6.2164 10.0968 6.10887C9.98925 5.99463 9.93548 5.86358 9.93548 5.71573C9.93548 5.56788 9.98925 5.44019 10.0968 5.33266C10.2043 5.21842 10.3387 5.16129 10.5 5.16129H12.1129C12.2742 5.16129 12.4086 5.21842 12.5161 5.33266C12.6237 5.44019 12.6774 5.56788 12.6774 5.71573C12.6774 5.86358 12.6237 5.99463 12.5161 6.10887C12.4086 6.2164 12.2742 6.27016 12.1129 6.27016H10.5ZM9.20968 4.97984C9.04839 4.97984 8.91398 4.92608 8.80645 4.81855C8.69892 4.7043 8.64516 4.57325 8.64516 4.42541C8.64516 4.27756 8.69892 4.14987 8.80645 4.04234C8.91398 3.92809 9.04839 3.87097 9.20968 3.87097H10.8226C10.9839 3.87097 11.1183 3.92809 11.2258 4.04234C11.3333 4.14987 11.3871 4.27756 11.3871 4.42541C11.3871 4.57325 11.3333 4.7043 11.2258 4.81855C11.1183 4.92608 10.9839 4.97984 10.8226 4.97984H9.20968ZM8.56452 3.68952C8.40323 3.68952 8.26882 3.63575 8.16129 3.52823C8.05376 3.41398 8 3.28293 8 3.13508C8 2.98723 8.05376 2.85954 8.16129 2.75202C8.26882 2.63777 8.40323 2.58065 8.56452 2.58065H10.1774C10.3387 2.58065 10.4731 2.63777 10.5806 2.75202C10.6882 2.85954 10.7419 2.98723 10.7419 3.13508C10.7419 3.28293 10.6882 3.41398 10.5806 3.52823C10.4731 3.63575 10.3387 3.68952 10.1774 3.68952H8.56452ZM8.56452 2.3992C8.40323 2.3992 8.26882 2.34543 8.16129 2.2379C8.05376 2.12366 8 1.99261 8 1.84476C8 1.69691 8.05376 1.56922 8.16129 1.46169C8.26882 1.34745 8.40323 1.29032 8.56452 1.29032H9.53226C9.69355 1.29032 9.82796 1.34745 9.93548 1.46169C10.043 1.56922 10.0968 1.69691 10.0968 1.84476C10.0968 1.99261 10.043 2.12366 9.93548 2.2379C9.82796 2.34543 9.69355 2.3992 9.53226 2.3992H8.56452ZM11.1452 2.3992C10.9839 2.3992 10.8495 2.34543 10.7419 2.2379C10.6344 2.12366 10.5806 1.99261 10.5806 1.84476C10.5806 1.69691 10.6344 1.56922 10.7419 1.46169C10.8495 1.34745 10.9839 1.29032 11.1452 1.29032H12.1129C12.2742 1.29032 12.4086 1.34745 12.5161 1.46169C12.6237 1.56922 12.6774 1.69691 12.6774 1.84476C12.6774 1.99261 12.6237 2.12366 12.5161 2.2379C12.4086 2.34543 12.2742 2.3992 12.1129 2.3992H11.1452ZM9.31048 1.10887C9.10215 1.10887 8.9375 1.05511 8.81653 0.947581C8.70228 0.833334 8.64516 0.702286 8.64516 0.554436C8.64516 0.406586 8.70228 0.278898 8.81653 0.171371C8.9375 0.0571241 9.10215 3.84546e-07 9.31048 3.84546e-07H11.3669C11.5753 3.84546e-07 11.7366 0.0571241 11.8508 0.171371C11.9718 0.278898 12.0323 0.406586 12.0323 0.554436C12.0323 0.702286 11.9718 0.833334 11.8508 0.947581C11.7366 1.05511 11.5753 1.10887 11.3669 1.10887H9.31048Z" fill="white"/>
<path d="M13.9309 8.85081C13.7226 8.85081 13.5579 8.79705 13.437 8.68952C13.3227 8.57527 13.2656 8.44423 13.2656 8.29638C13.2656 8.14853 13.3227 8.02084 13.437 7.91331C13.5579 7.79906 13.7226 7.74194 13.9309 7.74194H17.2777C17.486 7.74194 17.6473 7.79906 17.7616 7.91331C17.8825 8.02084 17.943 8.14853 17.943 8.29638C17.943 8.44423 17.8825 8.57527 17.7616 8.68952C17.6473 8.79705 17.486 8.85081 17.2777 8.85081H13.9309ZM15.1204 7.56049C14.9591 7.56049 14.8247 7.50672 14.7172 7.3992C14.6097 7.28495 14.5559 7.1539 14.5559 7.00605C14.5559 6.8582 14.6097 6.73051 14.7172 6.62299C14.8247 6.50874 14.9591 6.45162 15.1204 6.45162H16.0882C16.2495 6.45162 16.3839 6.50874 16.4914 6.62299C16.5989 6.73051 16.6527 6.8582 16.6527 7.00605C16.6527 7.1539 16.5989 7.28495 16.4914 7.3992C16.3839 7.50672 16.2495 7.56049 16.0882 7.56049H15.1204ZM15.1204 6.27016C14.9591 6.27016 14.8247 6.2164 14.7172 6.10887C14.6097 5.99463 14.5559 5.86358 14.5559 5.71573C14.5559 5.56788 14.6097 5.44019 14.7172 5.33266C14.8247 5.21842 14.9591 5.16129 15.1204 5.16129H16.0882C16.2495 5.16129 16.3839 5.21842 16.4914 5.33266C16.5989 5.44019 16.6527 5.56788 16.6527 5.71573C16.6527 5.86358 16.5989 5.99463 16.4914 6.10887C16.3839 6.2164 16.2495 6.27016 16.0882 6.27016H15.1204ZM15.1204 4.97984C14.9591 4.97984 14.8247 4.92608 14.7172 4.81855C14.6097 4.7043 14.5559 4.57326 14.5559 4.42541C14.5559 4.27756 14.6097 4.14987 14.7172 4.04234C14.8247 3.92809 14.9591 3.87097 15.1204 3.87097H16.0882C16.2495 3.87097 16.3839 3.92809 16.4914 4.04234C16.5989 4.14987 16.6527 4.27756 16.6527 4.42541C16.6527 4.57326 16.5989 4.7043 16.4914 4.81855C16.3839 4.92608 16.2495 4.97984 16.0882 4.97984H15.1204ZM15.1204 3.68952C14.9591 3.68952 14.8247 3.63576 14.7172 3.52823C14.6097 3.41398 14.5559 3.28293 14.5559 3.13508C14.5559 2.98723 14.6097 2.85955 14.7172 2.75202C14.8247 2.63777 14.9591 2.58065 15.1204 2.58065H16.0882C16.2495 2.58065 16.3839 2.63777 16.4914 2.75202C16.5989 2.85955 16.6527 2.98723 16.6527 3.13508C16.6527 3.28293 16.5989 3.41398 16.4914 3.52823C16.3839 3.63576 16.2495 3.68952 16.0882 3.68952H15.1204ZM15.1204 2.3992C14.9591 2.3992 14.8247 2.34543 14.7172 2.23791C14.6097 2.12366 14.5559 1.99261 14.5559 1.84476C14.5559 1.69691 14.6097 1.56922 14.7172 1.4617C14.8247 1.34745 14.9591 1.29032 15.1204 1.29032H16.0882C16.2495 1.29032 16.3839 1.34745 16.4914 1.4617C16.5989 1.56922 16.6527 1.69691 16.6527 1.84476C16.6527 1.99261 16.5989 2.12366 16.4914 2.23791C16.3839 2.34543 16.2495 2.3992 16.0882 2.3992H15.1204ZM13.9309 1.10887C13.7226 1.10887 13.5579 1.05511 13.437 0.947582C13.3227 0.833335 13.2656 0.702286 13.2656 0.554437C13.2656 0.406587 13.3227 0.278899 13.437 0.171372C13.5579 0.0571249 13.7226 1.20491e-06 13.9309 1.20491e-06H17.2777C17.486 1.20491e-06 17.6473 0.0571249 17.7616 0.171372C17.8825 0.278899 17.943 0.406587 17.943 0.554437C17.943 0.702286 17.8825 0.833335 17.7616 0.947582C17.6473 1.05511 17.486 1.10887 17.2777 1.10887H13.9309Z" fill="white"/>
<path d="M19.2753 8.85081C19.114 8.85081 18.9796 8.79705 18.872 8.68952C18.7645 8.57527 18.7108 8.44423 18.7108 8.29638C18.7108 8.14853 18.7645 8.02084 18.872 7.91331C18.9796 7.79906 19.114 7.74194 19.2753 7.74194H20.243C20.4043 7.74194 20.5387 7.79906 20.6462 7.91331C20.7538 8.02084 20.8075 8.14853 20.8075 8.29638C20.8075 8.44423 20.7538 8.57527 20.6462 8.68952C20.5387 8.79705 20.4043 8.85081 20.243 8.85081H19.2753ZM22.5011 8.85081C22.3398 8.85081 22.2054 8.79705 22.0979 8.68952C21.9903 8.57527 21.9366 8.44423 21.9366 8.29638C21.9366 8.14853 21.9903 8.02084 22.0979 7.91331C22.2054 7.79906 22.3398 7.74194 22.5011 7.74194H23.4688C23.6301 7.74194 23.7645 7.79906 23.872 7.91331C23.9796 8.02084 24.0333 8.14853 24.0333 8.29638C24.0333 8.44423 23.9796 8.57527 23.872 8.68952C23.7645 8.79705 23.6301 8.85081 23.4688 8.85081H22.5011ZM19.2753 7.56049C19.114 7.56049 18.9796 7.50672 18.872 7.3992C18.7645 7.28495 18.7108 7.1539 18.7108 7.00605C18.7108 6.8582 18.7645 6.73051 18.872 6.62299C18.9796 6.50874 19.114 6.45162 19.2753 6.45162H20.243C20.4043 6.45162 20.5387 6.50874 20.6462 6.62299C20.7538 6.73051 20.8075 6.8582 20.8075 7.00605C20.8075 7.1539 20.7538 7.28495 20.6462 7.3992C20.5387 7.50672 20.4043 7.56049 20.243 7.56049H19.2753ZM22.5011 7.56049C22.3398 7.56049 22.2054 7.50672 22.0979 7.3992C21.9903 7.28495 21.9366 7.1539 21.9366 7.00605C21.9366 6.8582 21.9903 6.73051 22.0979 6.62299C22.2054 6.50874 22.3398 6.45162 22.5011 6.45162H23.4688C23.6301 6.45162 23.7645 6.50874 23.872 6.62299C23.9796 6.73051 24.0333 6.8582 24.0333 7.00605C24.0333 7.1539 23.9796 7.28495 23.872 7.3992C23.7645 7.50672 23.6301 7.56049 23.4688 7.56049H22.5011ZM19.2753 6.27016C19.114 6.27016 18.9796 6.2164 18.872 6.10887C18.7645 5.99463 18.7108 5.86358 18.7108 5.71573C18.7108 5.56788 18.7645 5.44019 18.872 5.33266C18.9796 5.21842 19.114 5.16129 19.2753 5.16129H20.243C20.4043 5.16129 20.5387 5.21842 20.6462 5.33266C20.7538 5.44019 20.8075 5.56788 20.8075 5.71573C20.8075 5.86358 20.7538 5.99463 20.6462 6.10887C20.5387 6.2164 20.4043 6.27016 20.243 6.27016H19.2753ZM21.8559 6.27016C21.6946 6.27016 21.5602 6.2164 21.4527 6.10887C21.3452 5.99463 21.2914 5.86358 21.2914 5.71573C21.2914 5.56788 21.3452 5.44019 21.4527 5.33266C21.5602 5.21842 21.6946 5.16129 21.8559 5.16129H23.4688C23.6301 5.16129 23.7645 5.21842 23.872 5.33266C23.9796 5.44019 24.0333 5.56788 24.0333 5.71573C24.0333 5.86358 23.9796 5.99463 23.872 6.10887C23.7645 6.2164 23.6301 6.27016 23.4688 6.27016H21.8559ZM19.2753 4.97984C19.114 4.97984 18.9796 4.92608 18.872 4.81855C18.7645 4.7043 18.7108 4.57326 18.7108 4.42541C18.7108 4.27756 18.7645 4.14987 18.872 4.04234C18.9796 3.92809 19.114 3.87097 19.2753 3.87097H20.243C20.4043 3.87097 20.5387 3.92809 20.6462 4.04234C20.7538 4.14987 20.8075 4.27756 20.8075 4.42541C20.8075 4.57326 20.7538 4.7043 20.6462 4.81855C20.5387 4.92608 20.4043 4.97984 20.243 4.97984H19.2753ZM21.3116 4.97984C21.1032 4.97984 20.9386 4.92608 20.8176 4.81855C20.7034 4.7043 20.6462 4.57326 20.6462 4.42541C20.6462 4.27756 20.7034 4.14987 20.8176 4.04234C20.9386 3.92809 21.1032 3.87097 21.3116 3.87097H23.368C23.5763 3.87097 23.7376 3.92809 23.8519 4.04234C23.9729 4.14987 24.0333 4.27756 24.0333 4.42541C24.0333 4.57326 23.9729 4.7043 23.8519 4.81855C23.7376 4.92608 23.5763 4.97984 23.368 4.97984H21.3116ZM19.3761 3.68952C19.1677 3.68952 19.0065 3.63576 18.8922 3.52823C18.7712 3.41398 18.7108 3.28293 18.7108 3.13508C18.7108 2.98723 18.7712 2.85955 18.8922 2.75202C19.0065 2.63777 19.1677 2.58065 19.3761 2.58065H21.4325C21.6409 2.58065 21.8022 2.63777 21.9164 2.75202C22.0374 2.85955 22.0979 2.98723 22.0979 3.13508C22.0979 3.28293 22.0374 3.41398 21.9164 3.52823C21.8022 3.63576 21.6409 3.68952 21.4325 3.68952H19.3761ZM22.5011 3.68952C22.3398 3.68952 22.2054 3.63576 22.0979 3.52823C21.9903 3.41398 21.9366 3.28293 21.9366 3.13508C21.9366 2.98723 21.9903 2.85955 22.0979 2.75202C22.2054 2.63777 22.3398 2.58065 22.5011 2.58065H23.4688C23.6301 2.58065 23.7645 2.63777 23.872 2.75202C23.9796 2.85955 24.0333 2.98723 24.0333 3.13508C24.0333 3.28293 23.9796 3.41398 23.872 3.52823C23.7645 3.63576 23.6301 3.68952 23.4688 3.68952H22.5011ZM19.2753 2.3992C19.114 2.3992 18.9796 2.34543 18.872 2.23791C18.7645 2.12366 18.7108 1.99261 18.7108 1.84476C18.7108 1.69691 18.7645 1.56922 18.872 1.4617C18.9796 1.34745 19.114 1.29032 19.2753 1.29032H20.8882C21.0495 1.29032 21.1839 1.34745 21.2914 1.4617C21.3989 1.56922 21.4527 1.69691 21.4527 1.84476C21.4527 1.99261 21.3989 2.12366 21.2914 2.23791C21.1839 2.34543 21.0495 2.3992 20.8882 2.3992H19.2753ZM22.5011 2.3992C22.3398 2.3992 22.2054 2.34543 22.0979 2.23791C21.9903 2.12366 21.9366 1.99261 21.9366 1.84476C21.9366 1.69691 21.9903 1.56922 22.0979 1.4617C22.2054 1.34745 22.3398 1.29032 22.5011 1.29032H23.4688C23.6301 1.29032 23.7645 1.34745 23.872 1.4617C23.9796 1.56922 24.0333 1.69691 24.0333 1.84476C24.0333 1.99261 23.9796 2.12366 23.872 2.23791C23.7645 2.34543 23.6301 2.3992 23.4688 2.3992H22.5011ZM19.2753 1.10887C19.114 1.10887 18.9796 1.05511 18.872 0.947582C18.7645 0.833335 18.7108 0.702286 18.7108 0.554437C18.7108 0.406587 18.7645 0.278899 18.872 0.171372C18.9796 0.0571249 19.114 1.20491e-06 19.2753 1.20491e-06H20.243C20.4043 1.20491e-06 20.5387 0.0571249 20.6462 0.171372C20.7538 0.278899 20.8075 0.406587 20.8075 0.554437C20.8075 0.702286 20.7538 0.833335 20.6462 0.947582C20.5387 1.05511 20.4043 1.10887 20.243 1.10887H19.2753ZM22.5011 1.10887C22.3398 1.10887 22.2054 1.05511 22.0979 0.947582C21.9903 0.833335 21.9366 0.702286 21.9366 0.554437C21.9366 0.406587 21.9903 0.278899 22.0979 0.171372C22.2054 0.0571249 22.3398 1.20491e-06 22.5011 1.20491e-06H23.4688C23.6301 1.20491e-06 23.7645 0.0571249 23.872 0.171372C23.9796 0.278899 24.0333 0.406587 24.0333 0.554437C24.0333 0.702286 23.9796 0.833335 23.872 0.947582C23.7645 1.05511 23.6301 1.10887 23.4688 1.10887H22.5011Z" fill="white"/>
<path d="M26.9266 8.85081C26.7183 8.85081 26.5536 8.79705 26.4327 8.68952C26.3184 8.57527 26.2613 8.44422 26.2613 8.29637C26.2613 8.14853 26.3184 8.02084 26.4327 7.91331C26.5536 7.79906 26.7183 7.74194 26.9266 7.74194H29.6282C29.8366 7.74194 29.9979 7.79906 30.1121 7.91331C30.2331 8.02084 30.2936 8.14853 30.2936 8.29637C30.2936 8.44422 30.2331 8.57527 30.1121 8.68952C29.9979 8.79705 29.8366 8.85081 29.6282 8.85081H26.9266ZM26.1807 7.56049C26.0194 7.56049 25.885 7.50672 25.7774 7.3992C25.6699 7.28495 25.6161 7.1539 25.6161 7.00605C25.6161 6.8582 25.6699 6.73051 25.7774 6.62299C25.885 6.50874 26.0194 6.45162 26.1807 6.45162H27.1484C27.3097 6.45162 27.4441 6.50874 27.5516 6.62299C27.6592 6.73051 27.7129 6.8582 27.7129 7.00605C27.7129 7.1539 27.6592 7.28495 27.5516 7.3992C27.4441 7.50672 27.3097 7.56049 27.1484 7.56049H26.1807ZM28.7613 7.56049C28.6 7.56049 28.4656 7.50672 28.3581 7.3992C28.2505 7.28495 28.1968 7.1539 28.1968 7.00605C28.1968 6.8582 28.2505 6.73051 28.3581 6.62299C28.4656 6.50874 28.6 6.45162 28.7613 6.45162H29.729C29.8903 6.45162 30.0247 6.50874 30.1323 6.62299C30.2398 6.73051 30.2936 6.8582 30.2936 7.00605C30.2936 7.1539 30.2398 7.28495 30.1323 7.3992C30.0247 7.50672 29.8903 7.56049 29.729 7.56049H28.7613ZM25.5355 6.27016C25.3742 6.27016 25.2398 6.2164 25.1323 6.10887C25.0247 5.99463 24.971 5.86358 24.971 5.71573C24.971 5.56788 25.0247 5.44019 25.1323 5.33266C25.2398 5.21842 25.3742 5.16129 25.5355 5.16129H26.5032C26.6645 5.16129 26.7989 5.21842 26.9065 5.33266C27.014 5.44019 27.0678 5.56788 27.0678 5.71573C27.0678 5.86358 27.014 5.99463 26.9065 6.10887C26.7989 6.2164 26.6645 6.27016 26.5032 6.27016H25.5355ZM28.7613 6.27016C28.6 6.27016 28.4656 6.2164 28.3581 6.10887C28.2505 5.99463 28.1968 5.86358 28.1968 5.71573C28.1968 5.56788 28.2505 5.44019 28.3581 5.33266C28.4656 5.21842 28.6 5.16129 28.7613 5.16129H29.729C29.8903 5.16129 30.0247 5.21842 30.1323 5.33266C30.2398 5.44019 30.2936 5.56788 30.2936 5.71573C30.2936 5.86358 30.2398 5.99463 30.1323 6.10887C30.0247 6.2164 29.8903 6.27016 29.729 6.27016H28.7613ZM25.5355 4.97984C25.3742 4.97984 25.2398 4.92608 25.1323 4.81855C25.0247 4.7043 24.971 4.57325 24.971 4.42541C24.971 4.27756 25.0247 4.14987 25.1323 4.04234C25.2398 3.92809 25.3742 3.87097 25.5355 3.87097H26.5032C26.6645 3.87097 26.7989 3.92809 26.9065 4.04234C27.014 4.14987 27.0678 4.27756 27.0678 4.42541C27.0678 4.57325 27.014 4.7043 26.9065 4.81855C26.7989 4.92608 26.6645 4.97984 26.5032 4.97984H25.5355ZM28.1161 4.97984C27.9548 4.97984 27.8204 4.92608 27.7129 4.81855C27.6054 4.7043 27.5516 4.57325 27.5516 4.42541C27.5516 4.27756 27.6054 4.14987 27.7129 4.04234C27.8204 3.92809 27.9548 3.87097 28.1161 3.87097H29.729C29.8903 3.87097 30.0247 3.92809 30.1323 4.04234C30.2398 4.14987 30.2936 4.27756 30.2936 4.42541C30.2936 4.57325 30.2398 4.7043 30.1323 4.81855C30.0247 4.92608 29.8903 4.97984 29.729 4.97984H28.1161ZM25.5355 3.68952C25.3742 3.68952 25.2398 3.63575 25.1323 3.52823C25.0247 3.41398 24.971 3.28293 24.971 3.13508C24.971 2.98723 25.0247 2.85954 25.1323 2.75202C25.2398 2.63777 25.3742 2.58065 25.5355 2.58065H26.5032C26.6645 2.58065 26.7989 2.63777 26.9065 2.75202C27.014 2.85954 27.0678 2.98723 27.0678 3.13508C27.0678 3.28293 27.014 3.41398 26.9065 3.52823C26.7989 3.63575 26.6645 3.68952 26.5032 3.68952H25.5355ZM26.1807 2.39919C26.0194 2.39919 25.885 2.34543 25.7774 2.2379C25.6699 2.12366 25.6161 1.99261 25.6161 1.84476C25.6161 1.69691 25.6699 1.56922 25.7774 1.46169C25.885 1.34745 26.0194 1.29032 26.1807 1.29032H27.1484C27.3097 1.29032 27.4441 1.34745 27.5516 1.46169C27.6592 1.56922 27.7129 1.69691 27.7129 1.84476C27.7129 1.99261 27.6592 2.12366 27.5516 2.2379C27.4441 2.34543 27.3097 2.39919 27.1484 2.39919H26.1807ZM28.7613 2.39919C28.6 2.39919 28.4656 2.34543 28.3581 2.2379C28.2505 2.12366 28.1968 1.99261 28.1968 1.84476C28.1968 1.69691 28.2505 1.56922 28.3581 1.46169C28.4656 1.34745 28.6 1.29032 28.7613 1.29032H29.729C29.8903 1.29032 30.0247 1.34745 30.1323 1.46169C30.2398 1.56922 30.2936 1.69691 30.2936 1.84476C30.2936 1.99261 30.2398 2.12366 30.1323 2.2379C30.0247 2.34543 29.8903 2.39919 29.729 2.39919H28.7613ZM26.9266 1.10887C26.7183 1.10887 26.5536 1.05511 26.4327 0.947581C26.3184 0.833334 26.2613 0.702285 26.2613 0.554436C26.2613 0.406586 26.3184 0.278898 26.4327 0.171371C26.5536 0.0571237 26.7183 0 26.9266 0H28.9831C29.1914 0 29.3527 0.0571237 29.4669 0.171371C29.5879 0.278898 29.6484 0.406586 29.6484 0.554436C29.6484 0.702285 29.5879 0.833334 29.4669 0.947581C29.3527 1.05511 29.1914 1.10887 28.9831 1.10887H26.9266Z" fill="white"/>
<path d="M31.8073 8.85081C31.5989 8.85081 31.4343 8.79705 31.3133 8.68952C31.1991 8.57527 31.1419 8.44423 31.1419 8.29638C31.1419 8.14853 31.1991 8.02084 31.3133 7.91331C31.4343 7.79906 31.5989 7.74194 31.8073 7.74194H35.154C35.3624 7.74194 35.5237 7.79906 35.6379 7.91331C35.7589 8.02084 35.8194 8.14853 35.8194 8.29638C35.8194 8.44423 35.7589 8.57527 35.6379 8.68952C35.5237 8.79705 35.3624 8.85081 35.154 8.85081H31.8073ZM32.9968 7.56049C32.8355 7.56049 32.7011 7.50672 32.5936 7.3992C32.486 7.28495 32.4323 7.1539 32.4323 7.00605C32.4323 6.8582 32.486 6.73051 32.5936 6.62299C32.7011 6.50874 32.8355 6.45162 32.9968 6.45162H33.9645C34.1258 6.45162 34.2602 6.50874 34.3678 6.62299C34.4753 6.73051 34.529 6.8582 34.529 7.00605C34.529 7.1539 34.4753 7.28495 34.3678 7.3992C34.2602 7.50672 34.1258 7.56049 33.9645 7.56049H32.9968ZM32.9968 6.27016C32.8355 6.27016 32.7011 6.2164 32.5936 6.10887C32.486 5.99463 32.4323 5.86358 32.4323 5.71573C32.4323 5.56788 32.486 5.44019 32.5936 5.33266C32.7011 5.21842 32.8355 5.16129 32.9968 5.16129H33.9645C34.1258 5.16129 34.2602 5.21842 34.3678 5.33266C34.4753 5.44019 34.529 5.56788 34.529 5.71573C34.529 5.86358 34.4753 5.99463 34.3678 6.10887C34.2602 6.2164 34.1258 6.27016 33.9645 6.27016H32.9968ZM32.9968 4.97984C32.8355 4.97984 32.7011 4.92608 32.5936 4.81855C32.486 4.7043 32.4323 4.57326 32.4323 4.42541C32.4323 4.27756 32.486 4.14987 32.5936 4.04234C32.7011 3.92809 32.8355 3.87097 32.9968 3.87097H33.9645C34.1258 3.87097 34.2602 3.92809 34.3678 4.04234C34.4753 4.14987 34.529 4.27756 34.529 4.42541C34.529 4.57326 34.4753 4.7043 34.3678 4.81855C34.2602 4.92608 34.1258 4.97984 33.9645 4.97984H32.9968ZM32.9968 3.68952C32.8355 3.68952 32.7011 3.63576 32.5936 3.52823C32.486 3.41398 32.4323 3.28293 32.4323 3.13508C32.4323 2.98723 32.486 2.85954 32.5936 2.75202C32.7011 2.63777 32.8355 2.58065 32.9968 2.58065H33.9645C34.1258 2.58065 34.2602 2.63777 34.3678 2.75202C34.4753 2.85954 34.529 2.98723 34.529 3.13508C34.529 3.28293 34.4753 3.41398 34.3678 3.52823C34.2602 3.63576 34.1258 3.68952 33.9645 3.68952H32.9968ZM32.9968 2.3992C32.8355 2.3992 32.7011 2.34543 32.5936 2.23791C32.486 2.12366 32.4323 1.99261 32.4323 1.84476C32.4323 1.69691 32.486 1.56922 32.5936 1.46169C32.7011 1.34745 32.8355 1.29032 32.9968 1.29032H33.9645C34.1258 1.29032 34.2602 1.34745 34.3678 1.46169C34.4753 1.56922 34.529 1.69691 34.529 1.84476C34.529 1.99261 34.4753 2.12366 34.3678 2.23791C34.2602 2.34543 34.1258 2.3992 33.9645 2.3992H32.9968ZM31.8073 1.10887C31.5989 1.10887 31.4343 1.05511 31.3133 0.947582C31.1991 0.833335 31.1419 0.702286 31.1419 0.554436C31.1419 0.406587 31.1991 0.278899 31.3133 0.171372C31.4343 0.0571245 31.5989 8.20365e-07 31.8073 8.20365e-07H35.154C35.3624 8.20365e-07 35.5237 0.0571245 35.6379 0.171372C35.7589 0.278899 35.8194 0.406587 35.8194 0.554436C35.8194 0.702286 35.7589 0.833335 35.6379 0.947582C35.5237 1.05511 35.3624 1.10887 35.154 1.10887H31.8073Z" fill="white"/>
<path d="M37.1516 8.85081C36.9903 8.85081 36.8559 8.79705 36.7484 8.68952C36.6409 8.57527 36.5871 8.44423 36.5871 8.29638C36.5871 8.14853 36.6409 8.02084 36.7484 7.91331C36.8559 7.79906 36.9903 7.74194 37.1516 7.74194H38.1194C38.2807 7.74194 38.4151 7.79906 38.5226 7.91331C38.6301 8.02084 38.6839 8.14853 38.6839 8.29638C38.6839 8.44423 38.6301 8.57527 38.5226 8.68952C38.4151 8.79705 38.2807 8.85081 38.1194 8.85081H37.1516ZM40.3774 8.85081C40.2161 8.85081 40.0817 8.79705 39.9742 8.68952C39.8667 8.57527 39.8129 8.44423 39.8129 8.29638C39.8129 8.14853 39.8667 8.02084 39.9742 7.91331C40.0817 7.79906 40.2161 7.74194 40.3774 7.74194H41.3452C41.5065 7.74194 41.6409 7.79906 41.7484 7.91331C41.8559 8.02084 41.9097 8.14853 41.9097 8.29638C41.9097 8.44423 41.8559 8.57527 41.7484 8.68952C41.6409 8.79705 41.5065 8.85081 41.3452 8.85081H40.3774ZM37.1516 7.56049C36.9903 7.56049 36.8559 7.50672 36.7484 7.3992C36.6409 7.28495 36.5871 7.1539 36.5871 7.00605C36.5871 6.8582 36.6409 6.73051 36.7484 6.62299C36.8559 6.50874 36.9903 6.45162 37.1516 6.45162H38.1194C38.2807 6.45162 38.4151 6.50874 38.5226 6.62299C38.6301 6.73051 38.6839 6.8582 38.6839 7.00605C38.6839 7.1539 38.6301 7.28495 38.5226 7.3992C38.4151 7.50672 38.2807 7.56049 38.1194 7.56049H37.1516ZM40.3774 7.56049C40.2161 7.56049 40.0817 7.50672 39.9742 7.3992C39.8667 7.28495 39.8129 7.1539 39.8129 7.00605C39.8129 6.8582 39.8667 6.73051 39.9742 6.62299C40.0817 6.50874 40.2161 6.45162 40.3774 6.45162H41.3452C41.5065 6.45162 41.6409 6.50874 41.7484 6.62299C41.8559 6.73051 41.9097 6.8582 41.9097 7.00605C41.9097 7.1539 41.8559 7.28495 41.7484 7.3992C41.6409 7.50672 41.5065 7.56049 41.3452 7.56049H40.3774ZM37.1516 6.27016C36.9903 6.27016 36.8559 6.2164 36.7484 6.10887C36.6409 5.99463 36.5871 5.86358 36.5871 5.71573C36.5871 5.56788 36.6409 5.44019 36.7484 5.33266C36.8559 5.21842 36.9903 5.16129 37.1516 5.16129H38.1194C38.2807 5.16129 38.4151 5.21842 38.5226 5.33266C38.6301 5.44019 38.6839 5.56788 38.6839 5.71573C38.6839 5.86358 38.6301 5.99463 38.5226 6.10887C38.4151 6.2164 38.2807 6.27016 38.1194 6.27016H37.1516ZM39.7323 6.27016C39.571 6.27016 39.4366 6.2164 39.329 6.10887C39.2215 5.99463 39.1677 5.86358 39.1677 5.71573C39.1677 5.56788 39.2215 5.44019 39.329 5.33266C39.4366 5.21842 39.571 5.16129 39.7323 5.16129H41.3452C41.5065 5.16129 41.6409 5.21842 41.7484 5.33266C41.8559 5.44019 41.9097 5.56788 41.9097 5.71573C41.9097 5.86358 41.8559 5.99463 41.7484 6.10887C41.6409 6.2164 41.5065 6.27016 41.3452 6.27016H39.7323ZM37.1516 4.97984C36.9903 4.97984 36.8559 4.92608 36.7484 4.81855C36.6409 4.7043 36.5871 4.57326 36.5871 4.42541C36.5871 4.27756 36.6409 4.14987 36.7484 4.04234C36.8559 3.92809 36.9903 3.87097 37.1516 3.87097H38.1194C38.2807 3.87097 38.4151 3.92809 38.5226 4.04234C38.6301 4.14987 38.6839 4.27756 38.6839 4.42541C38.6839 4.57326 38.6301 4.7043 38.5226 4.81855C38.4151 4.92608 38.2807 4.97984 38.1194 4.97984H37.1516ZM39.1879 4.97984C38.9796 4.97984 38.8149 4.92608 38.694 4.81855C38.5797 4.7043 38.5226 4.57326 38.5226 4.42541C38.5226 4.27756 38.5797 4.14987 38.694 4.04234C38.8149 3.92809 38.9796 3.87097 39.1879 3.87097H41.2444C41.4527 3.87097 41.614 3.92809 41.7282 4.04234C41.8492 4.14987 41.9097 4.27756 41.9097 4.42541C41.9097 4.57326 41.8492 4.7043 41.7282 4.81855C41.614 4.92608 41.4527 4.97984 41.2444 4.97984H39.1879ZM37.2524 3.68952C37.0441 3.68952 36.8828 3.63576 36.7686 3.52823C36.6476 3.41398 36.5871 3.28293 36.5871 3.13508C36.5871 2.98723 36.6476 2.85954 36.7686 2.75202C36.8828 2.63777 37.0441 2.58065 37.2524 2.58065H39.3089C39.5172 2.58065 39.6785 2.63777 39.7927 2.75202C39.9137 2.85954 39.9742 2.98723 39.9742 3.13508C39.9742 3.28293 39.9137 3.41398 39.7927 3.52823C39.6785 3.63576 39.5172 3.68952 39.3089 3.68952H37.2524ZM40.3774 3.68952C40.2161 3.68952 40.0817 3.63576 39.9742 3.52823C39.8667 3.41398 39.8129 3.28293 39.8129 3.13508C39.8129 2.98723 39.8667 2.85954 39.9742 2.75202C40.0817 2.63777 40.2161 2.58065 40.3774 2.58065H41.3452C41.5065 2.58065 41.6409 2.63777 41.7484 2.75202C41.8559 2.85954 41.9097 2.98723 41.9097 3.13508C41.9097 3.28293 41.8559 3.41398 41.7484 3.52823C41.6409 3.63576 41.5065 3.68952 41.3452 3.68952H40.3774ZM37.1516 2.3992C36.9903 2.3992 36.8559 2.34543 36.7484 2.23791C36.6409 2.12366 36.5871 1.99261 36.5871 1.84476C36.5871 1.69691 36.6409 1.56922 36.7484 1.46169C36.8559 1.34745 36.9903 1.29032 37.1516 1.29032H38.7645C38.9258 1.29032 39.0602 1.34745 39.1677 1.46169C39.2753 1.56922 39.329 1.69691 39.329 1.84476C39.329 1.99261 39.2753 2.12366 39.1677 2.23791C39.0602 2.34543 38.9258 2.3992 38.7645 2.3992H37.1516ZM40.3774 2.3992C40.2161 2.3992 40.0817 2.34543 39.9742 2.23791C39.8667 2.12366 39.8129 1.99261 39.8129 1.84476C39.8129 1.69691 39.8667 1.56922 39.9742 1.46169C40.0817 1.34745 40.2161 1.29032 40.3774 1.29032H41.3452C41.5065 1.29032 41.6409 1.34745 41.7484 1.46169C41.8559 1.56922 41.9097 1.69691 41.9097 1.84476C41.9097 1.99261 41.8559 2.12366 41.7484 2.23791C41.6409 2.34543 41.5065 2.3992 41.3452 2.3992H40.3774ZM37.1516 1.10887C36.9903 1.10887 36.8559 1.05511 36.7484 0.947582C36.6409 0.833335 36.5871 0.702286 36.5871 0.554436C36.5871 0.406587 36.6409 0.278899 36.7484 0.171372C36.8559 0.0571245 36.9903 8.20365e-07 37.1516 8.20365e-07H38.1194C38.2807 8.20365e-07 38.4151 0.0571245 38.5226 0.171372C38.6301 0.278899 38.6839 0.406587 38.6839 0.554436C38.6839 0.702286 38.6301 0.833335 38.5226 0.947582C38.4151 1.05511 38.2807 1.10887 38.1194 1.10887H37.1516ZM40.3774 1.10887C40.2161 1.10887 40.0817 1.05511 39.9742 0.947582C39.8667 0.833335 39.8129 0.702286 39.8129 0.554436C39.8129 0.406587 39.8667 0.278899 39.9742 0.171372C40.0817 0.0571245 40.2161 8.20365e-07 40.3774 8.20365e-07H41.3452C41.5065 8.20365e-07 41.6409 0.0571245 41.7484 0.171372C41.8559 0.278899 41.9097 0.406587 41.9097 0.554436C41.9097 0.702286 41.8559 0.833335 41.7484 0.947582C41.6409 1.05511 41.5065 1.10887 41.3452 1.10887H40.3774Z" fill="white"/>
<path d="M44.6331 8.85081C44.4247 8.85081 44.2601 8.79705 44.1391 8.68952C44.0249 8.57527 43.9677 8.44423 43.9677 8.29638C43.9677 8.14853 44.0249 8.02084 44.1391 7.91331C44.2601 7.79906 44.4247 7.74194 44.6331 7.74194H47.3347C47.543 7.74194 47.7043 7.79906 47.8186 7.91331C47.9395 8.02084 48 8.14853 48 8.29638C48 8.44423 47.9395 8.57527 47.8186 8.68952C47.7043 8.79705 47.543 8.85081 47.3347 8.85081H44.6331ZM43.8871 7.56049C43.7258 7.56049 43.5914 7.50672 43.4839 7.3992C43.3763 7.28495 43.3226 7.1539 43.3226 7.00605C43.3226 6.8582 43.3763 6.73051 43.4839 6.62299C43.5914 6.50874 43.7258 6.45162 43.8871 6.45162H44.8548C45.0161 6.45162 45.1505 6.50874 45.2581 6.62299C45.3656 6.73051 45.4194 6.8582 45.4194 7.00605C45.4194 7.1539 45.3656 7.28495 45.2581 7.3992C45.1505 7.50672 45.0161 7.56049 44.8548 7.56049H43.8871ZM46.4677 7.56049C46.3065 7.56049 46.172 7.50672 46.0645 7.3992C45.957 7.28495 45.9032 7.1539 45.9032 7.00605C45.9032 6.8582 45.957 6.73051 46.0645 6.62299C46.172 6.50874 46.3065 6.45162 46.4677 6.45162H47.4355C47.5968 6.45162 47.7312 6.50874 47.8387 6.62299C47.9462 6.73051 48 6.8582 48 7.00605C48 7.1539 47.9462 7.28495 47.8387 7.3992C47.7312 7.50672 47.5968 7.56049 47.4355 7.56049H46.4677ZM43.2419 6.27016C43.0806 6.27016 42.9462 6.2164 42.8387 6.10887C42.7312 5.99463 42.6774 5.86358 42.6774 5.71573C42.6774 5.56788 42.7312 5.44019 42.8387 5.33266C42.9462 5.21842 43.0806 5.16129 43.2419 5.16129H44.2097C44.371 5.16129 44.5054 5.21842 44.6129 5.33266C44.7204 5.44019 44.7742 5.56788 44.7742 5.71573C44.7742 5.86358 44.7204 5.99463 44.6129 6.10887C44.5054 6.2164 44.371 6.27016 44.2097 6.27016H43.2419ZM46.4677 6.27016C46.3065 6.27016 46.172 6.2164 46.0645 6.10887C45.957 5.99463 45.9032 5.86358 45.9032 5.71573C45.9032 5.56788 45.957 5.44019 46.0645 5.33266C46.172 5.21842 46.3065 5.16129 46.4677 5.16129H47.4355C47.5968 5.16129 47.7312 5.21842 47.8387 5.33266C47.9462 5.44019 48 5.56788 48 5.71573C48 5.86358 47.9462 5.99463 47.8387 6.10887C47.7312 6.2164 47.5968 6.27016 47.4355 6.27016H46.4677ZM43.2419 4.97984C43.0806 4.97984 42.9462 4.92608 42.8387 4.81855C42.7312 4.7043 42.6774 4.57326 42.6774 4.42541C42.6774 4.27756 42.7312 4.14987 42.8387 4.04234C42.9462 3.92809 43.0806 3.87097 43.2419 3.87097H44.2097C44.371 3.87097 44.5054 3.92809 44.6129 4.04234C44.7204 4.14987 44.7742 4.27756 44.7742 4.42541C44.7742 4.57326 44.7204 4.7043 44.6129 4.81855C44.5054 4.92608 44.371 4.97984 44.2097 4.97984H43.2419ZM45.8226 4.97984C45.6613 4.97984 45.5269 4.92608 45.4194 4.81855C45.3118 4.7043 45.2581 4.57326 45.2581 4.42541C45.2581 4.27756 45.3118 4.14987 45.4194 4.04234C45.5269 3.92809 45.6613 3.87097 45.8226 3.87097H47.4355C47.5968 3.87097 47.7312 3.92809 47.8387 4.04234C47.9462 4.14987 48 4.27756 48 4.42541C48 4.57326 47.9462 4.7043 47.8387 4.81855C47.7312 4.92608 47.5968 4.97984 47.4355 4.97984H45.8226ZM43.2419 3.68952C43.0806 3.68952 42.9462 3.63576 42.8387 3.52823C42.7312 3.41398 42.6774 3.28293 42.6774 3.13508C42.6774 2.98723 42.7312 2.85954 42.8387 2.75202C42.9462 2.63777 43.0806 2.58065 43.2419 2.58065H44.2097C44.371 2.58065 44.5054 2.63777 44.6129 2.75202C44.7204 2.85954 44.7742 2.98723 44.7742 3.13508C44.7742 3.28293 44.7204 3.41398 44.6129 3.52823C44.5054 3.63576 44.371 3.68952 44.2097 3.68952H43.2419ZM43.8871 2.3992C43.7258 2.3992 43.5914 2.34543 43.4839 2.23791C43.3763 2.12366 43.3226 1.99261 43.3226 1.84476C43.3226 1.69691 43.3763 1.56922 43.4839 1.46169C43.5914 1.34745 43.7258 1.29032 43.8871 1.29032H44.8548C45.0161 1.29032 45.1505 1.34745 45.2581 1.46169C45.3656 1.56922 45.4194 1.69691 45.4194 1.84476C45.4194 1.99261 45.3656 2.12366 45.2581 2.23791C45.1505 2.34543 45.0161 2.3992 44.8548 2.3992H43.8871ZM46.4677 2.3992C46.3065 2.3992 46.172 2.34543 46.0645 2.23791C45.957 2.12366 45.9032 1.99261 45.9032 1.84476C45.9032 1.69691 45.957 1.56922 46.0645 1.46169C46.172 1.34745 46.3065 1.29032 46.4677 1.29032H47.4355C47.5968 1.29032 47.7312 1.34745 47.8387 1.46169C47.9462 1.56922 48 1.69691 48 1.84476C48 1.99261 47.9462 2.12366 47.8387 2.23791C47.7312 2.34543 47.5968 2.3992 47.4355 2.3992H46.4677ZM44.6331 1.10887C44.4247 1.10887 44.2601 1.05511 44.1391 0.947582C44.0249 0.833335 43.9677 0.702286 43.9677 0.554436C43.9677 0.406587 44.0249 0.278899 44.1391 0.171372C44.2601 0.0571245 44.4247 8.20365e-07 44.6331 8.20365e-07H46.6895C46.8979 8.20365e-07 47.0591 0.0571245 47.1734 0.171372C47.2944 0.278899 47.3548 0.406587 47.3548 0.554436C47.3548 0.702286 47.2944 0.833335 47.1734 0.947582C47.0591 1.05511 46.8979 1.10887 46.6895 1.10887H44.6331Z" fill="white"/>
<path d="M22.4389 12.4234C22.4533 12.4725 22.4605 12.534 22.4605 12.6077C22.4605 12.6784 22.4533 12.7398 22.4389 12.792H21.5729C21.5873 12.8412 21.5946 12.9026 21.5946 12.9764C21.5946 13.047 21.5873 13.1085 21.5729 13.1607C21.5873 13.2099 21.5946 13.2713 21.5946 13.345C21.5946 13.4157 21.5873 13.4771 21.5729 13.5294C21.5873 13.5785 21.5946 13.64 21.5946 13.7137C21.5946 13.7844 21.5873 13.8458 21.5729 13.898H21.1399C21.1255 13.8458 21.1183 13.7844 21.1183 13.7137C21.1183 13.64 21.1255 13.5785 21.1399 13.5294C21.1255 13.4771 21.1183 13.4157 21.1183 13.345C21.1183 13.2713 21.1255 13.2099 21.1399 13.1607C21.1255 13.1085 21.1183 13.047 21.1183 12.9764C21.1183 12.9026 21.1255 12.8412 21.1399 12.792C21.1255 12.7398 21.1183 12.6784 21.1183 12.6077C21.1183 12.534 21.1255 12.4725 21.1399 12.4234C21.1255 12.3711 21.1183 12.3097 21.1183 12.239C21.1183 12.1653 21.1255 12.1039 21.1399 12.0547C21.1255 12.0025 21.1183 11.941 21.1183 11.8704C21.1183 11.7966 21.1255 11.7352 21.1399 11.686C21.1255 11.6338 21.1183 11.5724 21.1183 11.5017C21.1183 11.428 21.1255 11.3665 21.1399 11.3174H22.4389C22.4533 11.3665 22.4605 11.428 22.4605 11.5017C22.4605 11.5724 22.4533 11.6338 22.4389 11.686H21.5729C21.5873 11.7352 21.5946 11.7966 21.5946 11.8704C21.5946 11.941 21.5873 12.0025 21.5729 12.0547C21.5873 12.1039 21.5946 12.1653 21.5946 12.239C21.5946 12.3097 21.5873 12.3711 21.5729 12.4234H22.4389Z" fill="white"/>
<path d="M24.5119 12.4234C24.5264 12.4725 24.5336 12.534 24.5336 12.6077C24.5336 12.6784 24.5264 12.7398 24.5119 12.792C24.5264 12.8412 24.5336 12.9026 24.5336 12.9764C24.5336 13.047 24.5264 13.1085 24.5119 13.1607H24.3496C24.364 13.2099 24.3712 13.2713 24.3712 13.345C24.3712 13.4157 24.364 13.4771 24.3496 13.5294H24.079C24.0934 13.5785 24.1006 13.64 24.1006 13.7137C24.1006 13.7844 24.0934 13.8458 24.079 13.898H23.213C23.1986 13.8458 23.1913 13.7844 23.1913 13.7137C23.1913 13.64 23.1986 13.5785 23.213 13.5294H22.9424C22.9279 13.4771 22.9207 13.4157 22.9207 13.345C22.9207 13.2713 22.9279 13.2099 22.9424 13.1607H22.78C22.7656 13.1085 22.7583 13.047 22.7583 12.9764C22.7583 12.9026 22.7656 12.8412 22.78 12.792C22.7656 12.7398 22.7583 12.6784 22.7583 12.6077C22.7583 12.534 22.7656 12.4725 22.78 12.4234C22.7656 12.3711 22.7583 12.3097 22.7583 12.239C22.7583 12.1653 22.7656 12.1039 22.78 12.0547H22.9424C22.9279 12.0025 22.9207 11.941 22.9207 11.8704C22.9207 11.7966 22.9279 11.7352 22.9424 11.686H23.213C23.1986 11.6338 23.1913 11.5724 23.1913 11.5017C23.1913 11.428 23.1986 11.3665 23.213 11.3174H24.079C24.0934 11.3665 24.1006 11.428 24.1006 11.5017C24.1006 11.5724 24.0934 11.6338 24.079 11.686H24.3496C24.364 11.7352 24.3712 11.7966 24.3712 11.8704C24.3712 11.941 24.364 12.0025 24.3496 12.0547H24.5119C24.5264 12.1039 24.5336 12.1653 24.5336 12.239C24.5336 12.3097 24.5264 12.3711 24.5119 12.4234ZM24.079 13.1607C24.0645 13.1085 24.0573 13.047 24.0573 12.9764C24.0573 12.9026 24.0645 12.8412 24.079 12.792C24.0645 12.7398 24.0573 12.6784 24.0573 12.6077C24.0573 12.534 24.0645 12.4725 24.079 12.4234C24.0645 12.3711 24.0573 12.3097 24.0573 12.239C24.0573 12.1653 24.0645 12.1039 24.079 12.0547H23.9166C23.9022 12.0025 23.8949 11.941 23.8949 11.8704C23.8949 11.7966 23.9022 11.7352 23.9166 11.686H23.3754C23.3898 11.7352 23.397 11.7966 23.397 11.8704C23.397 11.941 23.3898 12.0025 23.3754 12.0547H23.213C23.2274 12.1039 23.2346 12.1653 23.2346 12.239C23.2346 12.3097 23.2274 12.3711 23.213 12.4234C23.2274 12.4725 23.2346 12.534 23.2346 12.6077C23.2346 12.6784 23.2274 12.7398 23.213 12.792C23.2274 12.8412 23.2346 12.9026 23.2346 12.9764C23.2346 13.047 23.2274 13.1085 23.213 13.1607H23.3754C23.3898 13.2099 23.397 13.2713 23.397 13.345C23.397 13.4157 23.3898 13.4771 23.3754 13.5294H23.9166C23.9022 13.4771 23.8949 13.4157 23.8949 13.345C23.8949 13.2713 23.9022 13.2099 23.9166 13.1607H24.079Z" fill="white"/>
<path d="M26.6249 13.5294C26.6393 13.5785 26.6465 13.64 26.6465 13.7137C26.6465 13.7844 26.6393 13.8458 26.6249 13.898H26.1919C26.1774 13.8458 26.1702 13.7844 26.1702 13.7137C26.1702 13.64 26.1774 13.5785 26.1919 13.5294H26.0295C26.0151 13.4771 26.0079 13.4157 26.0079 13.345C26.0079 13.2713 26.0151 13.2099 26.0295 13.1607H25.8671C25.8527 13.1085 25.8455 13.047 25.8455 12.9764C25.8455 12.9026 25.8527 12.8412 25.8671 12.792H25.3259C25.3403 12.8412 25.3476 12.9026 25.3476 12.9764C25.3476 13.047 25.3403 13.1085 25.3259 13.1607C25.3403 13.2099 25.3476 13.2713 25.3476 13.345C25.3476 13.4157 25.3403 13.4771 25.3259 13.5294C25.3403 13.5785 25.3476 13.64 25.3476 13.7137C25.3476 13.7844 25.3403 13.8458 25.3259 13.898H24.8929C24.8785 13.8458 24.8713 13.7844 24.8713 13.7137C24.8713 13.64 24.8785 13.5785 24.8929 13.5294C24.8785 13.4771 24.8713 13.4157 24.8713 13.345C24.8713 13.2713 24.8785 13.2099 24.8929 13.1607C24.8785 13.1085 24.8713 13.047 24.8713 12.9764C24.8713 12.9026 24.8785 12.8412 24.8929 12.792C24.8785 12.7398 24.8713 12.6784 24.8713 12.6077C24.8713 12.534 24.8785 12.4725 24.8929 12.4234C24.8785 12.3711 24.8713 12.3097 24.8713 12.239C24.8713 12.1653 24.8785 12.1039 24.8929 12.0547C24.8785 12.0025 24.8713 11.941 24.8713 11.8704C24.8713 11.7966 24.8785 11.7352 24.8929 11.686C24.8785 11.6338 24.8713 11.5724 24.8713 11.5017C24.8713 11.428 24.8785 11.3665 24.8929 11.3174H26.4084C26.4228 11.3665 26.43 11.428 26.43 11.5017C26.43 11.5724 26.4228 11.6338 26.4084 11.686H26.6249C26.6393 11.7352 26.6465 11.7966 26.6465 11.8704C26.6465 11.941 26.6393 12.0025 26.6249 12.0547H26.5166C26.5311 12.1039 26.5383 12.1653 26.5383 12.239C26.5383 12.3097 26.5311 12.3711 26.5166 12.4234H26.1919C26.2063 12.4725 26.2135 12.534 26.2135 12.6077C26.2135 12.6784 26.2063 12.7398 26.1919 12.792H26.3001C26.3146 12.8412 26.3218 12.9026 26.3218 12.9764C26.3218 13.047 26.3146 13.1085 26.3001 13.1607H26.4625C26.4769 13.2099 26.4841 13.2713 26.4841 13.345C26.4841 13.4157 26.4769 13.4771 26.4625 13.5294H26.6249ZM26.0836 12.4234C26.0692 12.3711 26.062 12.3097 26.062 12.239C26.062 12.1653 26.0692 12.1039 26.0836 12.0547C26.0692 12.0025 26.062 11.941 26.062 11.8704C26.062 11.7966 26.0692 11.7352 26.0836 11.686H25.3259C25.3403 11.7352 25.3476 11.7966 25.3476 11.8704C25.3476 11.941 25.3403 12.0025 25.3259 12.0547C25.3403 12.1039 25.3476 12.1653 25.3476 12.239C25.3476 12.3097 25.3403 12.3711 25.3259 12.4234H26.0836Z" fill="white"/>
<path d="M30.8724 11.5017C30.8724 11.5724 30.8652 11.6338 30.8507 11.686H30.2012C30.2157 11.7352 30.2229 11.7966 30.2229 11.8704C30.2229 11.941 30.2157 12.0025 30.2012 12.0547C30.2157 12.1039 30.2229 12.1653 30.2229 12.239C30.2229 12.3097 30.2157 12.3711 30.2012 12.4234C30.2157 12.4725 30.2229 12.534 30.2229 12.6077C30.2229 12.6784 30.2157 12.7398 30.2012 12.792C30.2157 12.8412 30.2229 12.9026 30.2229 12.9764C30.2229 13.047 30.2157 13.1085 30.2012 13.1607C30.2157 13.2099 30.2229 13.2713 30.2229 13.345C30.2229 13.4157 30.2157 13.4771 30.2012 13.5294C30.2157 13.5785 30.2229 13.64 30.2229 13.7137C30.2229 13.7844 30.2157 13.8458 30.2012 13.898H29.7683C29.7538 13.8458 29.7466 13.7844 29.7466 13.7137C29.7466 13.64 29.7538 13.5785 29.7683 13.5294C29.7538 13.4771 29.7466 13.4157 29.7466 13.345C29.7466 13.2713 29.7538 13.2099 29.7683 13.1607C29.7538 13.1085 29.7466 13.047 29.7466 12.9764C29.7466 12.9026 29.7538 12.8412 29.7683 12.792C29.7538 12.7398 29.7466 12.6784 29.7466 12.6077C29.7466 12.534 29.7538 12.4725 29.7683 12.4234C29.7538 12.3711 29.7466 12.3097 29.7466 12.239C29.7466 12.1653 29.7538 12.1039 29.7683 12.0547C29.7538 12.0025 29.7466 11.941 29.7466 11.8704C29.7466 11.7966 29.7538 11.7352 29.7683 11.686H29.1188C29.1043 11.6338 29.0971 11.5724 29.0971 11.5017C29.0971 11.428 29.1043 11.3665 29.1188 11.3174H30.8507C30.8652 11.3665 30.8724 11.428 30.8724 11.5017Z" fill="white"/>
<path d="M32.9636 11.686C32.9781 11.7352 32.9853 11.7966 32.9853 11.8704C32.9853 11.941 32.9781 12.0025 32.9636 12.0547C32.9781 12.1039 32.9853 12.1653 32.9853 12.239C32.9853 12.3097 32.9781 12.3711 32.9636 12.4234C32.9781 12.4725 32.9853 12.534 32.9853 12.6077C32.9853 12.6784 32.9781 12.7398 32.9636 12.792C32.9781 12.8412 32.9853 12.9026 32.9853 12.9764C32.9853 13.047 32.9781 13.1085 32.9636 13.1607C32.9781 13.2099 32.9853 13.2713 32.9853 13.345C32.9853 13.4157 32.9781 13.4771 32.9636 13.5294C32.9781 13.5785 32.9853 13.64 32.9853 13.7137C32.9853 13.7844 32.9781 13.8458 32.9636 13.898H32.5307C32.5162 13.8458 32.509 13.7844 32.509 13.7137C32.509 13.64 32.5162 13.5785 32.5307 13.5294C32.5162 13.4771 32.509 13.4157 32.509 13.345C32.509 13.2713 32.5162 13.2099 32.5307 13.1607C32.5162 13.1085 32.509 13.047 32.509 12.9764C32.509 12.9026 32.5162 12.8412 32.5307 12.792H31.6647C31.6791 12.8412 31.6863 12.9026 31.6863 12.9764C31.6863 13.047 31.6791 13.1085 31.6647 13.1607C31.6791 13.2099 31.6863 13.2713 31.6863 13.345C31.6863 13.4157 31.6791 13.4771 31.6647 13.5294C31.6791 13.5785 31.6863 13.64 31.6863 13.7137C31.6863 13.7844 31.6791 13.8458 31.6647 13.898H31.2317C31.2173 13.8458 31.21 13.7844 31.21 13.7137C31.21 13.64 31.2173 13.5785 31.2317 13.5294C31.2173 13.4771 31.21 13.4157 31.21 13.345C31.21 13.2713 31.2173 13.2099 31.2317 13.1607C31.2173 13.1085 31.21 13.047 31.21 12.9764C31.21 12.9026 31.2173 12.8412 31.2317 12.792C31.2173 12.7398 31.21 12.6784 31.21 12.6077C31.21 12.534 31.2173 12.4725 31.2317 12.4234C31.2173 12.3711 31.21 12.3097 31.21 12.239C31.21 12.1653 31.2173 12.1039 31.2317 12.0547C31.2173 12.0025 31.21 11.941 31.21 11.8704C31.21 11.7966 31.2173 11.7352 31.2317 11.686C31.2173 11.6338 31.21 11.5724 31.21 11.5017C31.21 11.428 31.2173 11.3665 31.2317 11.3174H31.6647C31.6791 11.3665 31.6863 11.428 31.6863 11.5017C31.6863 11.5724 31.6791 11.6338 31.6647 11.686C31.6791 11.7352 31.6863 11.7966 31.6863 11.8704C31.6863 11.941 31.6791 12.0025 31.6647 12.0547C31.6791 12.1039 31.6863 12.1653 31.6863 12.239C31.6863 12.3097 31.6791 12.3711 31.6647 12.4234H32.5307C32.5162 12.3711 32.509 12.3097 32.509 12.239C32.509 12.1653 32.5162 12.1039 32.5307 12.0547C32.5162 12.0025 32.509 11.941 32.509 11.8704C32.509 11.7966 32.5162 11.7352 32.5307 11.686C32.5162 11.6338 32.509 11.5724 32.509 11.5017C32.509 11.428 32.5162 11.3665 32.5307 11.3174H32.9636C32.9781 11.3665 32.9853 11.428 32.9853 11.5017C32.9853 11.5724 32.9781 11.6338 32.9636 11.686Z" fill="white"/>
<path d="M33.9941 12.792C34.0085 12.8412 34.0158 12.9026 34.0158 12.9764C34.0158 13.047 34.0085 13.1085 33.9941 13.1607C34.0085 13.2099 34.0158 13.2713 34.0158 13.345C34.0158 13.4157 34.0085 13.4771 33.9941 13.5294H34.8601C34.8745 13.5785 34.8817 13.64 34.8817 13.7137C34.8817 13.7844 34.8745 13.8458 34.8601 13.898H33.5611C33.5467 13.8458 33.5395 13.7844 33.5395 13.7137C33.5395 13.64 33.5467 13.5785 33.5611 13.5294C33.5467 13.4771 33.5395 13.4157 33.5395 13.345C33.5395 13.2713 33.5467 13.2099 33.5611 13.1607C33.5467 13.1085 33.5395 13.047 33.5395 12.9764C33.5395 12.9026 33.5467 12.8412 33.5611 12.792C33.5467 12.7398 33.5395 12.6784 33.5395 12.6077C33.5395 12.534 33.5467 12.4725 33.5611 12.4234C33.5467 12.3711 33.5395 12.3097 33.5395 12.239C33.5395 12.1653 33.5467 12.1039 33.5611 12.0547C33.5467 12.0025 33.5395 11.941 33.5395 11.8704C33.5395 11.7966 33.5467 11.7352 33.5611 11.686C33.5467 11.6338 33.5395 11.5724 33.5395 11.5017C33.5395 11.428 33.5467 11.3665 33.5611 11.3174H34.8601C34.8745 11.3665 34.8817 11.428 34.8817 11.5017C34.8817 11.5724 34.8745 11.6338 34.8601 11.686H33.9941C34.0085 11.7352 34.0158 11.7966 34.0158 11.8704C34.0158 11.941 34.0085 12.0025 33.9941 12.0547C34.0085 12.1039 34.0158 12.1653 34.0158 12.239C34.0158 12.3097 34.0085 12.3711 33.9941 12.4234H34.8601C34.8745 12.4725 34.8817 12.534 34.8817 12.6077C34.8817 12.6784 34.8745 12.7398 34.8601 12.792H33.9941Z" fill="white"/>
<path d="M15.7621 25.2156C15.5538 25.2156 15.3891 25.1618 15.2681 25.0543C15.1539 24.94 15.0968 24.809 15.0968 24.6611C15.0968 24.5133 15.1539 24.3856 15.2681 24.2781C15.3891 24.1638 15.5538 24.1067 15.7621 24.1067H17.8185C18.0269 24.1067 18.1882 24.1638 18.3024 24.2781C18.4234 24.3856 18.4839 24.5133 18.4839 24.6611C18.4839 24.809 18.4234 24.94 18.3024 25.0543C18.1882 25.1618 18.0269 25.2156 17.8185 25.2156H15.7621ZM15.0161 23.9252C14.8548 23.9252 14.7204 23.8715 14.6129 23.7639C14.5054 23.6497 14.4516 23.5186 14.4516 23.3708C14.4516 23.2229 14.5054 23.0953 14.6129 22.9877C14.7204 22.8735 14.8548 22.8164 15.0161 22.8164H15.9839C16.1452 22.8164 16.2796 22.8735 16.3871 22.9877C16.4946 23.0953 16.5484 23.2229 16.5484 23.3708C16.5484 23.5186 16.4946 23.6497 16.3871 23.7639C16.2796 23.8715 16.1452 23.9252 15.9839 23.9252H15.0161ZM17.5968 23.9252C17.4355 23.9252 17.3011 23.8715 17.1935 23.7639C17.086 23.6497 17.0323 23.5186 17.0323 23.3708C17.0323 23.2229 17.086 23.0953 17.1935 22.9877C17.3011 22.8735 17.4355 22.8164 17.5968 22.8164H18.5645C18.7258 22.8164 18.8602 22.8735 18.9677 22.9877C19.0753 23.0953 19.129 23.2229 19.129 23.3708C19.129 23.5186 19.0753 23.6497 18.9677 23.7639C18.8602 23.8715 18.7258 23.9252 18.5645 23.9252H17.5968ZM16.9516 22.6349C16.7903 22.6349 16.6559 22.5811 16.5484 22.4736C16.4409 22.3594 16.3871 22.2283 16.3871 22.0805C16.3871 21.9326 16.4409 21.8049 16.5484 21.6974C16.6559 21.5832 16.7903 21.526 16.9516 21.526H18.5645C18.7258 21.526 18.8602 21.5832 18.9677 21.6974C19.0753 21.8049 19.129 21.9326 19.129 22.0805C19.129 22.2283 19.0753 22.3594 18.9677 22.4736C18.8602 22.5811 18.7258 22.6349 18.5645 22.6349H16.9516ZM15.6613 21.3446C15.5 21.3446 15.3656 21.2908 15.2581 21.1833C15.1505 21.069 15.0968 20.938 15.0968 20.7902C15.0968 20.6423 15.1505 20.5146 15.2581 20.4071C15.3656 20.2928 15.5 20.2357 15.6613 20.2357H17.2742C17.4355 20.2357 17.5699 20.2928 17.6774 20.4071C17.7849 20.5146 17.8387 20.6423 17.8387 20.7902C17.8387 20.938 17.7849 21.069 17.6774 21.1833C17.5699 21.2908 17.4355 21.3446 17.2742 21.3446H15.6613ZM15.0161 20.0543C14.8548 20.0543 14.7204 20.0005 14.6129 19.893C14.5054 19.7787 14.4516 19.6477 14.4516 19.4998C14.4516 19.352 14.5054 19.2243 14.6129 19.1168C14.7204 19.0025 14.8548 18.9454 15.0161 18.9454H16.629C16.7903 18.9454 16.9247 19.0025 17.0323 19.1168C17.1398 19.2243 17.1935 19.352 17.1935 19.4998C17.1935 19.6477 17.1398 19.7787 17.0323 19.893C16.9247 20.0005 16.7903 20.0543 16.629 20.0543H15.0161ZM15.0161 18.7639C14.8548 18.7639 14.7204 18.7102 14.6129 18.6027C14.5054 18.4884 14.4516 18.3574 14.4516 18.2095C14.4516 18.0617 14.5054 17.934 14.6129 17.8264C14.7204 17.7122 14.8548 17.6551 15.0161 17.6551H15.9839C16.1452 17.6551 16.2796 17.7122 16.3871 17.8264C16.4946 17.934 16.5484 18.0617 16.5484 18.2095C16.5484 18.3574 16.4946 18.4884 16.3871 18.6027C16.2796 18.7102 16.1452 18.7639 15.9839 18.7639H15.0161ZM17.5968 18.7639C17.4355 18.7639 17.3011 18.7102 17.1935 18.6027C17.086 18.4884 17.0323 18.3574 17.0323 18.2095C17.0323 18.0617 17.086 17.934 17.1935 17.8264C17.3011 17.7122 17.4355 17.6551 17.5968 17.6551H18.5645C18.7258 17.6551 18.8602 17.7122 18.9677 17.8264C19.0753 17.934 19.129 18.0617 19.129 18.2095C19.129 18.3574 19.0753 18.4884 18.9677 18.6027C18.8602 18.7102 18.7258 18.7639 18.5645 18.7639H17.5968ZM15.7621 17.4736C15.5538 17.4736 15.3891 17.4199 15.2681 17.3123C15.1539 17.1981 15.0968 17.067 15.0968 16.9192C15.0968 16.7713 15.1539 16.6436 15.2681 16.5361C15.3891 16.4219 15.5538 16.3647 15.7621 16.3647H17.8185C18.0269 16.3647 18.1882 16.4219 18.3024 16.5361C18.4234 16.6436 18.4839 16.7713 18.4839 16.9192C18.4839 17.067 18.4234 17.1981 18.3024 17.3123C18.1882 17.4199 18.0269 17.4736 17.8185 17.4736H15.7621Z" fill="white"/>
<path d="M21.0965 25.2156C20.8882 25.2156 20.7235 25.1618 20.6025 25.0543C20.4883 24.94 20.4312 24.809 20.4312 24.6611C20.4312 24.5133 20.4883 24.3856 20.6025 24.2781C20.7235 24.1638 20.8882 24.1067 21.0965 24.1067H23.153C23.3613 24.1067 23.5226 24.1638 23.6368 24.2781C23.7578 24.3856 23.8183 24.5133 23.8183 24.6611C23.8183 24.809 23.7578 24.94 23.6368 25.0543C23.5226 25.1618 23.3613 25.2156 23.153 25.2156H21.0965ZM21.6409 23.9252C21.4796 23.9252 21.3452 23.8715 21.2376 23.7639C21.1301 23.6497 21.0763 23.5186 21.0763 23.3708C21.0763 23.2229 21.1301 23.0953 21.2376 22.9877C21.3452 22.8735 21.4796 22.8164 21.6409 22.8164H22.6086C22.7699 22.8164 22.9043 22.8735 23.0118 22.9877C23.1193 23.0953 23.1731 23.2229 23.1731 23.3708C23.1731 23.5186 23.1193 23.6497 23.0118 23.7639C22.9043 23.8715 22.7699 23.9252 22.6086 23.9252H21.6409ZM21.6409 22.6349C21.4796 22.6349 21.3452 22.5811 21.2376 22.4736C21.1301 22.3594 21.0763 22.2283 21.0763 22.0805C21.0763 21.9326 21.1301 21.8049 21.2376 21.6974C21.3452 21.5832 21.4796 21.526 21.6409 21.526H22.6086C22.7699 21.526 22.9043 21.5832 23.0118 21.6974C23.1193 21.8049 23.1731 21.9326 23.1731 22.0805C23.1731 22.2283 23.1193 22.3594 23.0118 22.4736C22.9043 22.5811 22.7699 22.6349 22.6086 22.6349H21.6409ZM21.6409 21.3446C21.4796 21.3446 21.3452 21.2908 21.2376 21.1833C21.1301 21.069 21.0763 20.938 21.0763 20.7902C21.0763 20.6423 21.1301 20.5146 21.2376 20.4071C21.3452 20.2928 21.4796 20.2357 21.6409 20.2357H22.6086C22.7699 20.2357 22.9043 20.2928 23.0118 20.4071C23.1193 20.5146 23.1731 20.6423 23.1731 20.7902C23.1731 20.938 23.1193 21.069 23.0118 21.1833C22.9043 21.2908 22.7699 21.3446 22.6086 21.3446H21.6409ZM21.6409 20.0543C21.4796 20.0543 21.3452 20.0005 21.2376 19.893C21.1301 19.7787 21.0763 19.6477 21.0763 19.4998C21.0763 19.352 21.1301 19.2243 21.2376 19.1168C21.3452 19.0025 21.4796 18.9454 21.6409 18.9454H22.6086C22.7699 18.9454 22.9043 19.0025 23.0118 19.1168C23.1193 19.2243 23.1731 19.352 23.1731 19.4998C23.1731 19.6477 23.1193 19.7787 23.0118 19.893C22.9043 20.0005 22.7699 20.0543 22.6086 20.0543H21.6409ZM20.2396 18.7639C20.112 18.7639 20.0044 18.7102 19.9171 18.6027C19.8297 18.4884 19.786 18.3574 19.786 18.2095C19.786 18.0617 19.8297 17.934 19.9171 17.8264C20.0044 17.7122 20.112 17.6551 20.2396 17.6551H20.784C20.9117 17.6551 21.0192 17.7122 21.1066 17.8264C21.1939 17.934 21.2376 18.0617 21.2376 18.2095C21.2376 18.3574 21.1939 18.4884 21.1066 18.6027C21.0192 18.7102 20.9117 18.7639 20.784 18.7639H20.2396ZM21.6409 18.7639C21.4796 18.7639 21.3452 18.7102 21.2376 18.6027C21.1301 18.4884 21.0763 18.3574 21.0763 18.2095C21.0763 18.0617 21.1301 17.934 21.2376 17.8264C21.3452 17.7122 21.4796 17.6551 21.6409 17.6551H22.6086C22.7699 17.6551 22.9043 17.7122 23.0118 17.8264C23.1193 17.934 23.1731 18.0617 23.1731 18.2095C23.1731 18.3574 23.1193 18.4884 23.0118 18.6027C22.9043 18.7102 22.7699 18.7639 22.6086 18.7639H21.6409ZM23.4655 18.7639C23.3378 18.7639 23.2302 18.7102 23.1429 18.6027C23.0555 18.4884 23.0118 18.3574 23.0118 18.2095C23.0118 18.0617 23.0555 17.934 23.1429 17.8264C23.2302 17.7122 23.3378 17.6551 23.4655 17.6551H24.0098C24.1375 17.6551 24.245 17.7122 24.3324 17.8264C24.4198 17.934 24.4634 18.0617 24.4634 18.2095C24.4634 18.3574 24.4198 18.4884 24.3324 18.6027C24.245 18.7102 24.1375 18.7639 24.0098 18.7639H23.4655ZM20.4513 17.4736C20.243 17.4736 20.0784 17.4199 19.9574 17.3123C19.8431 17.1981 19.786 17.067 19.786 16.9192C19.786 16.7713 19.8431 16.6436 19.9574 16.5361C20.0784 16.4219 20.243 16.3647 20.4513 16.3647H23.7981C24.0064 16.3647 24.1677 16.4219 24.282 16.5361C24.403 16.6436 24.4634 16.7713 24.4634 16.9192C24.4634 17.067 24.403 17.1981 24.282 17.3123C24.1677 17.4199 24.0064 17.4736 23.7981 17.4736H20.4513Z" fill="white"/>
<path d="M25.3387 25.2156C25.1774 25.2156 25.043 25.1618 24.9355 25.0543C24.828 24.94 24.7742 24.809 24.7742 24.6611C24.7742 24.5133 24.828 24.3856 24.9355 24.2781C25.043 24.1638 25.1774 24.1067 25.3387 24.1067H26.3065C26.4677 24.1067 26.6021 24.1638 26.7097 24.2781C26.8172 24.3856 26.871 24.5133 26.871 24.6611C26.871 24.809 26.8172 24.94 26.7097 25.0543C26.6021 25.1618 26.4677 25.2156 26.3065 25.2156H25.3387ZM29.2097 25.2156C29.0484 25.2156 28.914 25.1618 28.8065 25.0543C28.6989 24.94 28.6452 24.809 28.6452 24.6611C28.6452 24.5133 28.6989 24.3856 28.8065 24.2781C28.914 24.1638 29.0484 24.1067 29.2097 24.1067H30.1774C30.3387 24.1067 30.4731 24.1638 30.5806 24.2781C30.6882 24.3856 30.7419 24.5133 30.7419 24.6611C30.7419 24.809 30.6882 24.94 30.5806 25.0543C30.4731 25.1618 30.3387 25.2156 30.1774 25.2156H29.2097ZM25.3387 23.9252C25.1774 23.9252 25.043 23.8715 24.9355 23.7639C24.828 23.6497 24.7742 23.5186 24.7742 23.3708C24.7742 23.2229 24.828 23.0953 24.9355 22.9877C25.043 22.8735 25.1774 22.8164 25.3387 22.8164H26.3065C26.4677 22.8164 26.6021 22.8735 26.7097 22.9877C26.8172 23.0953 26.871 23.2229 26.871 23.3708C26.871 23.5186 26.8172 23.6497 26.7097 23.7639C26.6021 23.8715 26.4677 23.9252 26.3065 23.9252H25.3387ZM29.2097 23.9252C29.0484 23.9252 28.914 23.8715 28.8065 23.7639C28.6989 23.6497 28.6452 23.5186 28.6452 23.3708C28.6452 23.2229 28.6989 23.0953 28.8065 22.9877C28.914 22.8735 29.0484 22.8164 29.2097 22.8164H30.1774C30.3387 22.8164 30.4731 22.8735 30.5806 22.9877C30.6882 23.0953 30.7419 23.2229 30.7419 23.3708C30.7419 23.5186 30.6882 23.6497 30.5806 23.7639C30.4731 23.8715 30.3387 23.9252 30.1774 23.9252H29.2097ZM26.0847 22.6349C25.8763 22.6349 25.7117 22.5811 25.5907 22.4736C25.4765 22.3594 25.4194 22.2283 25.4194 22.0805C25.4194 21.9326 25.4765 21.8049 25.5907 21.6974C25.7117 21.5832 25.8763 21.526 26.0847 21.526H29.4315C29.6398 21.526 29.8011 21.5832 29.9153 21.6974C30.0363 21.8049 30.0968 21.9326 30.0968 22.0805C30.0968 22.2283 30.0363 22.3594 29.9153 22.4736C29.8011 22.5811 29.6398 22.6349 29.4315 22.6349H26.0847ZM25.9839 21.3446C25.8226 21.3446 25.6882 21.2908 25.5806 21.1833C25.4731 21.069 25.4194 20.938 25.4194 20.7902C25.4194 20.6423 25.4731 20.5146 25.5806 20.4071C25.6882 20.2928 25.8226 20.2357 25.9839 20.2357H26.9516C27.1129 20.2357 27.2473 20.2928 27.3548 20.4071C27.4624 20.5146 27.5161 20.6423 27.5161 20.7902C27.5161 20.938 27.4624 21.069 27.3548 21.1833C27.2473 21.2908 27.1129 21.3446 26.9516 21.3446H25.9839ZM28.5645 21.3446C28.4032 21.3446 28.2688 21.2908 28.1613 21.1833C28.0538 21.069 28 20.938 28 20.7902C28 20.6423 28.0538 20.5146 28.1613 20.4071C28.2688 20.2928 28.4032 20.2357 28.5645 20.2357H29.5323C29.6935 20.2357 29.828 20.2928 29.9355 20.4071C30.043 20.5146 30.0968 20.6423 30.0968 20.7902C30.0968 20.938 30.043 21.069 29.9355 21.1833C29.828 21.2908 29.6935 21.3446 29.5323 21.3446H28.5645ZM26.7298 20.0543C26.5215 20.0543 26.3569 20.0005 26.2359 19.893C26.1216 19.7787 26.0645 19.6477 26.0645 19.4998C26.0645 19.352 26.1216 19.2243 26.2359 19.1168C26.3569 19.0025 26.5215 18.9454 26.7298 18.9454H28.7863C28.9946 18.9454 29.1559 19.0025 29.2702 19.1168C29.3911 19.2243 29.4516 19.352 29.4516 19.4998C29.4516 19.6477 29.3911 19.7787 29.2702 19.893C29.1559 20.0005 28.9946 20.0543 28.7863 20.0543H26.7298ZM26.7298 18.7639C26.5215 18.7639 26.3569 18.7102 26.2359 18.6027C26.1216 18.4884 26.0645 18.3574 26.0645 18.2095C26.0645 18.0617 26.1216 17.934 26.2359 17.8264C26.3569 17.7122 26.5215 17.6551 26.7298 17.6551H28.7863C28.9946 17.6551 29.1559 17.7122 29.2702 17.8264C29.3911 17.934 29.4516 18.0617 29.4516 18.2095C29.4516 18.3574 29.3911 18.4884 29.2702 18.6027C29.1559 18.7102 28.9946 18.7639 28.7863 18.7639H26.7298ZM27.2742 17.4736C27.1129 17.4736 26.9785 17.4199 26.871 17.3123C26.7634 17.1981 26.7097 17.067 26.7097 16.9192C26.7097 16.7713 26.7634 16.6436 26.871 16.5361C26.9785 16.4219 27.1129 16.3647 27.2742 16.3647H28.2419C28.4032 16.3647 28.5376 16.4219 28.6452 16.5361C28.7527 16.6436 28.8065 16.7713 28.8065 16.9192C28.8065 17.067 28.7527 17.1981 28.6452 17.3123C28.5376 17.4199 28.4032 17.4736 28.2419 17.4736H27.2742Z" fill="white"/>
<path d="M32.5363 25.2156C32.328 25.2156 32.1633 25.1618 32.0423 25.0543C31.9281 24.94 31.871 24.809 31.871 24.6611C31.871 24.5133 31.9281 24.3856 32.0423 24.2781C32.1633 24.1638 32.328 24.1067 32.5363 24.1067H34.5927C34.8011 24.1067 34.9624 24.1638 35.0766 24.2781C35.1976 24.3856 35.2581 24.5133 35.2581 24.6611C35.2581 24.809 35.1976 24.94 35.0766 25.0543C34.9624 25.1618 34.8011 25.2156 34.5927 25.2156H32.5363ZM33.0806 23.9252C32.9194 23.9252 32.7849 23.8715 32.6774 23.7639C32.5699 23.6497 32.5161 23.5186 32.5161 23.3708C32.5161 23.2229 32.5699 23.0953 32.6774 22.9877C32.7849 22.8735 32.9194 22.8164 33.0806 22.8164H34.0484C34.2097 22.8164 34.3441 22.8735 34.4516 22.9877C34.5591 23.0953 34.6129 23.2229 34.6129 23.3708C34.6129 23.5186 34.5591 23.6497 34.4516 23.7639C34.3441 23.8715 34.2097 23.9252 34.0484 23.9252H33.0806ZM33.0806 22.6349C32.9194 22.6349 32.7849 22.5811 32.6774 22.4736C32.5699 22.3594 32.5161 22.2283 32.5161 22.0805C32.5161 21.9326 32.5699 21.8049 32.6774 21.6974C32.7849 21.5832 32.9194 21.526 33.0806 21.526H34.0484C34.2097 21.526 34.3441 21.5832 34.4516 21.6974C34.5591 21.8049 34.6129 21.9326 34.6129 22.0805C34.6129 22.2283 34.5591 22.3594 34.4516 22.4736C34.3441 22.5811 34.2097 22.6349 34.0484 22.6349H33.0806ZM33.0806 21.3446C32.9194 21.3446 32.7849 21.2908 32.6774 21.1833C32.5699 21.069 32.5161 20.938 32.5161 20.7902C32.5161 20.6423 32.5699 20.5146 32.6774 20.4071C32.7849 20.2928 32.9194 20.2357 33.0806 20.2357H34.0484C34.2097 20.2357 34.3441 20.2928 34.4516 20.4071C34.5591 20.5146 34.6129 20.6423 34.6129 20.7902C34.6129 20.938 34.5591 21.069 34.4516 21.1833C34.3441 21.2908 34.2097 21.3446 34.0484 21.3446H33.0806ZM33.0806 20.0543C32.9194 20.0543 32.7849 20.0005 32.6774 19.893C32.5699 19.7787 32.5161 19.6477 32.5161 19.4998C32.5161 19.352 32.5699 19.2243 32.6774 19.1168C32.7849 19.0025 32.9194 18.9454 33.0806 18.9454H34.0484C34.2097 18.9454 34.3441 19.0025 34.4516 19.1168C34.5591 19.2243 34.6129 19.352 34.6129 19.4998C34.6129 19.6477 34.5591 19.7787 34.4516 19.893C34.3441 20.0005 34.2097 20.0543 34.0484 20.0543H33.0806ZM31.6794 18.7639C31.5517 18.7639 31.4442 18.7102 31.3569 18.6027C31.2695 18.4884 31.2258 18.3574 31.2258 18.2095C31.2258 18.0617 31.2695 17.934 31.3569 17.8264C31.4442 17.7122 31.5517 17.6551 31.6794 17.6551H32.2238C32.3515 17.6551 32.459 17.7122 32.5464 17.8264C32.6337 17.934 32.6774 18.0617 32.6774 18.2095C32.6774 18.3574 32.6337 18.4884 32.5464 18.6027C32.459 18.7102 32.3515 18.7639 32.2238 18.7639H31.6794ZM33.0806 18.7639C32.9194 18.7639 32.7849 18.7102 32.6774 18.6027C32.5699 18.4884 32.5161 18.3574 32.5161 18.2095C32.5161 18.0617 32.5699 17.934 32.6774 17.8264C32.7849 17.7122 32.9194 17.6551 33.0806 17.6551H34.0484C34.2097 17.6551 34.3441 17.7122 34.4516 17.8264C34.5591 17.934 34.6129 18.0617 34.6129 18.2095C34.6129 18.3574 34.5591 18.4884 34.4516 18.6027C34.3441 18.7102 34.2097 18.7639 34.0484 18.7639H33.0806ZM34.9052 18.7639C34.7776 18.7639 34.67 18.7102 34.5827 18.6027C34.4953 18.4884 34.4516 18.3574 34.4516 18.2095C34.4516 18.0617 34.4953 17.934 34.5827 17.8264C34.67 17.7122 34.7776 17.6551 34.9052 17.6551H35.4496C35.5773 17.6551 35.6848 17.7122 35.7722 17.8264C35.8595 17.934 35.9032 18.0617 35.9032 18.2095C35.9032 18.3574 35.8595 18.4884 35.7722 18.6027C35.6848 18.7102 35.5773 18.7639 35.4496 18.7639H34.9052ZM31.8911 17.4736C31.6828 17.4736 31.5181 17.4199 31.3972 17.3123C31.2829 17.1981 31.2258 17.067 31.2258 16.9192C31.2258 16.7713 31.2829 16.6436 31.3972 16.5361C31.5181 16.4219 31.6828 16.3647 31.8911 16.3647H35.2379C35.4462 16.3647 35.6075 16.4219 35.7218 16.5361C35.8427 16.6436 35.9032 16.7713 35.9032 16.9192C35.9032 17.067 35.8427 17.1981 35.7218 17.3123C35.6075 17.4199 35.4462 17.4736 35.2379 17.4736H31.8911Z" fill="white"/>
<path d="M38.1815 25.2156C37.9731 25.2156 37.8085 25.1618 37.6875 25.0543C37.5733 24.94 37.5161 24.809 37.5161 24.6611C37.5161 24.5133 37.5733 24.3856 37.6875 24.2781C37.8085 24.1638 37.9731 24.1067 38.1815 24.1067H40.2379C40.4462 24.1067 40.6075 24.1638 40.7218 24.2781C40.8427 24.3856 40.9032 24.5133 40.9032 24.6611C40.9032 24.809 40.8427 24.94 40.7218 25.0543C40.6075 25.1618 40.4462 25.2156 40.2379 25.2156H38.1815ZM37.4355 23.9252C37.2742 23.9252 37.1398 23.8715 37.0323 23.7639C36.9247 23.6497 36.871 23.5186 36.871 23.3708C36.871 23.2229 36.9247 23.0953 37.0323 22.9877C37.1398 22.8735 37.2742 22.8164 37.4355 22.8164H38.4032C38.5645 22.8164 38.6989 22.8735 38.8065 22.9877C38.914 23.0953 38.9677 23.2229 38.9677 23.3708C38.9677 23.5186 38.914 23.6497 38.8065 23.7639C38.6989 23.8715 38.5645 23.9252 38.4032 23.9252H37.4355ZM40.0161 23.9252C39.8548 23.9252 39.7204 23.8715 39.6129 23.7639C39.5054 23.6497 39.4516 23.5186 39.4516 23.3708C39.4516 23.2229 39.5054 23.0953 39.6129 22.9877C39.7204 22.8735 39.8548 22.8164 40.0161 22.8164H40.9839C41.1452 22.8164 41.2796 22.8735 41.3871 22.9877C41.4946 23.0953 41.5484 23.2229 41.5484 23.3708C41.5484 23.5186 41.4946 23.6497 41.3871 23.7639C41.2796 23.8715 41.1452 23.9252 40.9839 23.9252H40.0161ZM39.371 22.6349C39.2097 22.6349 39.0753 22.5811 38.9677 22.4736C38.8602 22.3594 38.8065 22.2283 38.8065 22.0805C38.8065 21.9326 38.8602 21.8049 38.9677 21.6974C39.0753 21.5832 39.2097 21.526 39.371 21.526H40.9839C41.1452 21.526 41.2796 21.5832 41.3871 21.6974C41.4946 21.8049 41.5484 21.9326 41.5484 22.0805C41.5484 22.2283 41.4946 22.3594 41.3871 22.4736C41.2796 22.5811 41.1452 22.6349 40.9839 22.6349H39.371ZM38.0806 21.3446C37.9194 21.3446 37.785 21.2908 37.6774 21.1833C37.5699 21.069 37.5161 20.938 37.5161 20.7902C37.5161 20.6423 37.5699 20.5146 37.6774 20.4071C37.785 20.2928 37.9194 20.2357 38.0806 20.2357H39.6936C39.8548 20.2357 39.9893 20.2928 40.0968 20.4071C40.2043 20.5146 40.2581 20.6423 40.2581 20.7902C40.2581 20.938 40.2043 21.069 40.0968 21.1833C39.9893 21.2908 39.8548 21.3446 39.6936 21.3446H38.0806ZM37.4355 20.0543C37.2742 20.0543 37.1398 20.0005 37.0323 19.893C36.9247 19.7787 36.871 19.6477 36.871 19.4998C36.871 19.352 36.9247 19.2243 37.0323 19.1168C37.1398 19.0025 37.2742 18.9454 37.4355 18.9454H39.0484C39.2097 18.9454 39.3441 19.0025 39.4516 19.1168C39.5591 19.2243 39.6129 19.352 39.6129 19.4998C39.6129 19.6477 39.5591 19.7787 39.4516 19.893C39.3441 20.0005 39.2097 20.0543 39.0484 20.0543H37.4355ZM37.4355 18.7639C37.2742 18.7639 37.1398 18.7102 37.0323 18.6027C36.9247 18.4884 36.871 18.3574 36.871 18.2095C36.871 18.0617 36.9247 17.934 37.0323 17.8264C37.1398 17.7122 37.2742 17.6551 37.4355 17.6551H38.4032C38.5645 17.6551 38.6989 17.7122 38.8065 17.8264C38.914 17.934 38.9677 18.0617 38.9677 18.2095C38.9677 18.3574 38.914 18.4884 38.8065 18.6027C38.6989 18.7102 38.5645 18.7639 38.4032 18.7639H37.4355ZM40.0161 18.7639C39.8548 18.7639 39.7204 18.7102 39.6129 18.6027C39.5054 18.4884 39.4516 18.3574 39.4516 18.2095C39.4516 18.0617 39.5054 17.934 39.6129 17.8264C39.7204 17.7122 39.8548 17.6551 40.0161 17.6551H40.9839C41.1452 17.6551 41.2796 17.7122 41.3871 17.8264C41.4946 17.934 41.5484 18.0617 41.5484 18.2095C41.5484 18.3574 41.4946 18.4884 41.3871 18.6027C41.2796 18.7102 41.1452 18.7639 40.9839 18.7639H40.0161ZM38.1815 17.4736C37.9731 17.4736 37.8085 17.4199 37.6875 17.3123C37.5733 17.1981 37.5161 17.067 37.5161 16.9192C37.5161 16.7713 37.5733 16.6436 37.6875 16.5361C37.8085 16.4219 37.9731 16.3647 38.1815 16.3647H40.2379C40.4462 16.3647 40.6075 16.4219 40.7218 16.5361C40.8427 16.6436 40.9032 16.7713 40.9032 16.9192C40.9032 17.067 40.8427 17.1981 40.7218 17.3123C40.6075 17.4199 40.4462 17.4736 40.2379 17.4736H38.1815Z" fill="white"/>
</svg>
